<?xml version="1.0" encoding="utf-8" standalone="no"?>
<!DOCTYPE svg PUBLIC "-//W3C//DTD SVG 1.1//EN"
  "http://www.w3.org/Graphics/SVG/1.1/DTD/svg11.dtd">
<svg xmlns:xlink="http://www.w3.org/1999/xlink" width="901.44pt" height="274.752pt" viewBox="0 0 901.44 274.752" xmlns="http://www.w3.org/2000/svg" version="1.1">
 <metadata>
  <rdf:RDF xmlns:dc="http://purl.org/dc/elements/1.1/" xmlns:cc="http://creativecommons.org/ns#" xmlns:rdf="http://www.w3.org/1999/02/22-rdf-syntax-ns#">
   <cc:Work>
    <dc:type rdf:resource="http://purl.org/dc/dcmitype/StillImage"/>
    <dc:date>2026-07-13T07:07:42.696732</dc:date>
    <dc:format>image/svg+xml</dc:format>
    <dc:creator>
     <cc:Agent>
      <dc:title>Matplotlib v3.10.0, https://matplotlib.org/</dc:title>
     </cc:Agent>
    </dc:creator>
   </cc:Work>
  </rdf:RDF>
 </metadata>
 <defs>
  <style type="text/css">*{stroke-linejoin: round; stroke-linecap: butt}</style>
 </defs>
 <g id="figure_1">
  <g id="patch_1">
   <path d="M 0 274.752 
L 901.44 274.752 
L 901.44 0 
L 0 0 
z
" style="fill: #ffffff"/>
  </g>
  <g id="axes_1">
   <g id="patch_2">
    <path d="M 145.215 137.376 
Q 160.56 137.376 174.116146 137.376 
" clip-path="url(#p8cbd1e5b09)" style="fill: none; stroke: #000000; stroke-width: 1.6; stroke-linecap: round"/>
    <path d="M 168.116146 134.376 
L 174.116146 137.376 
L 168.116146 140.376 
z
" clip-path="url(#p8cbd1e5b09)" style="stroke: #000000; stroke-width: 1.6; stroke-linecap: round"/>
   </g>
   <g id="patch_3">
    <path d="M 301.455 127.795968 
Q 340.515 127.795968 340.515 77.959094 
" clip-path="url(#p8cbd1e5b09)" style="fill: none; stroke: #000000; stroke-width: 1.6; stroke-linecap: round"/>
    <path d="M 337.515 83.959094 
L 340.515 77.959094 
L 343.515 83.959094 
z
" clip-path="url(#p8cbd1e5b09)" style="stroke: #000000; stroke-width: 1.6; stroke-linecap: round"/>
   </g>
   <g id="patch_4">
    <path d="M 301.455 146.956032 
Q 340.515 146.956032 340.515 196.792906 
" clip-path="url(#p8cbd1e5b09)" style="fill: none; stroke: #000000; stroke-width: 1.6; stroke-linecap: round"/>
    <path d="M 343.515 190.792906 
L 340.515 196.792906 
L 337.515 190.792906 
z
" clip-path="url(#p8cbd1e5b09)" style="stroke: #000000; stroke-width: 1.6; stroke-linecap: round"/>
   </g>
   <g id="patch_5">
    <path d="M 482.805 76.17024 
Q 540 76.17024 540 126.007114 
" clip-path="url(#p8cbd1e5b09)" style="fill: none; stroke: #000000; stroke-width: 1.6; stroke-linecap: round"/>
    <path d="M 543 120.007114 
L 540 126.007114 
L 537 120.007114 
z
" clip-path="url(#p8cbd1e5b09)" style="stroke: #000000; stroke-width: 1.6; stroke-linecap: round"/>
   </g>
   <g id="patch_6">
    <path d="M 482.805 198.58176 
Q 540 198.58176 540 148.744886 
" clip-path="url(#p8cbd1e5b09)" style="fill: none; stroke: #000000; stroke-width: 1.6; stroke-linecap: round"/>
    <path d="M 537 154.744886 
L 540 148.744886 
L 543 154.744886 
z
" clip-path="url(#p8cbd1e5b09)" style="stroke: #000000; stroke-width: 1.6; stroke-linecap: round"/>
   </g>
   <g id="patch_7">
    <path d="M 696.24 137.376 
Q 723.4425 137.376 748.856146 137.376 
" clip-path="url(#p8cbd1e5b09)" style="fill: none; stroke: #000000; stroke-width: 1.6; stroke-linecap: round"/>
    <path d="M 742.856146 134.376 
L 748.856146 137.376 
L 742.856146 140.376 
z
" clip-path="url(#p8cbd1e5b09)" style="stroke: #000000; stroke-width: 1.6; stroke-linecap: round"/>
   </g>
   <g id="patch_8">
    <path d="M 19.665 171.704448 
L 145.215 171.704448 
Q 151.911 171.704448 151.911 165.31776 
L 151.911 109.43424 
Q 151.911 103.047552 145.215 103.047552 
L 19.665 103.047552 
Q 12.969 103.047552 12.969 109.43424 
L 12.969 165.31776 
Q 12.969 171.704448 19.665 171.704448 
z
" clip-path="url(#p8cbd1e5b09)" style="fill: #ffffff; stroke: #000000; stroke-width: 1.6; stroke-linejoin: miter"/>
   </g>
   <g id="patch_9">
    <path d="M 175.905 171.704448 
L 301.455 171.704448 
Q 308.151 171.704448 308.151 165.31776 
L 308.151 109.43424 
Q 308.151 103.047552 301.455 103.047552 
L 175.905 103.047552 
Q 169.209 103.047552 169.209 109.43424 
L 169.209 165.31776 
Q 169.209 171.704448 175.905 171.704448 
z
" clip-path="url(#p8cbd1e5b09)" style="fill: #ffffff; stroke: #000000; stroke-width: 1.6; stroke-linejoin: miter"/>
   </g>
   <g id="patch_10">
    <path d="M 340.515 111.829248 
L 482.805 111.829248 
Q 489.501 111.829248 489.501 105.44256 
L 489.501 46.89792 
Q 489.501 40.511232 482.805 40.511232 
L 340.515 40.511232 
Q 333.819 40.511232 333.819 46.89792 
L 333.819 105.44256 
Q 333.819 111.829248 340.515 111.829248 
z
" clip-path="url(#p8cbd1e5b09)" style="fill: #ffffff; stroke: #000000; stroke-width: 1.6; stroke-linejoin: miter"/>
   </g>
   <g id="patch_11">
    <path d="M 340.515 234.240768 
L 482.805 234.240768 
Q 489.501 234.240768 489.501 227.85408 
L 489.501 169.30944 
Q 489.501 162.922752 482.805 162.922752 
L 340.515 162.922752 
Q 333.819 162.922752 333.819 169.30944 
L 333.819 227.85408 
Q 333.819 234.240768 340.515 234.240768 
z
" clip-path="url(#p8cbd1e5b09)" style="fill: #ffffff; stroke: #000000; stroke-width: 1.6; stroke-linejoin: miter"/>
   </g>
   <g id="patch_12">
    <path d="M 540 171.704448 
L 696.24 171.704448 
Q 702.936 171.704448 702.936 165.31776 
L 702.936 109.43424 
Q 702.936 103.047552 696.24 103.047552 
L 540 103.047552 
Q 533.304 103.047552 533.304 109.43424 
L 533.304 165.31776 
Q 533.304 171.704448 540 171.704448 
z
" clip-path="url(#p8cbd1e5b09)" style="fill: #ffffff; stroke: #000000; stroke-width: 1.6; stroke-linejoin: miter"/>
   </g>
   <g id="patch_13">
    <path d="M 750.645 171.704448 
L 876.195 171.704448 
Q 882.891 171.704448 882.891 165.31776 
L 882.891 109.43424 
Q 882.891 103.047552 876.195 103.047552 
L 750.645 103.047552 
Q 743.949 103.047552 743.949 109.43424 
L 743.949 165.31776 
Q 743.949 171.704448 750.645 171.704448 
z
" clip-path="url(#p8cbd1e5b09)" style="fill: #ffffff; stroke: #000000; stroke-width: 1.6; stroke-linejoin: miter"/>
   </g>
   <g id="text_1">
    <!-- 2つの方法で変位を求める -->
    <g transform="translate(347.695859 31.344924) scale(0.11 -0.11)">
     <defs>
      <path id="IPAexGothic-32" d="M 3659 63 
L 447 63 
L 447 594 
Q 825 1475 1894 2203 
L 2072 2322 
Q 2619 2697 2791 2906 
Q 2988 3153 2988 3444 
Q 2988 3772 2756 4003 
Q 2500 4259 2084 4259 
Q 1250 4259 991 3328 
L 497 3506 
Q 853 4725 2116 4725 
Q 2806 4725 3216 4316 
Q 3575 3947 3575 3425 
Q 3575 3038 3344 2722 
Q 3131 2416 2366 1938 
L 2231 1856 
Q 1256 1253 978 569 
L 3659 569 
L 3659 63 
z
" transform="scale(0.015625)"/>
      <path id="IPAexGothic-3064" d="M 575 3541 
Q 2694 4116 3769 4116 
Q 4506 4116 4978 3750 
Q 5559 3303 5559 2497 
Q 5559 1481 4606 903 
Q 3750 388 2213 281 
L 1963 781 
Q 5022 916 5022 2497 
Q 5022 3053 4663 3375 
Q 4331 3669 3734 3669 
Q 2663 3669 800 3041 
L 575 3541 
z
" transform="scale(0.015625)"/>
      <path id="IPAexGothic-306e" d="M 3119 469 
Q 5275 766 5275 2425 
Q 5275 3453 4413 3925 
Q 4041 4116 3547 4159 
Q 3394 2525 2850 1400 
Q 2322 306 1722 306 
Q 1384 306 1084 666 
Q 609 1244 609 2003 
Q 609 3025 1397 3794 
Q 2184 4563 3431 4563 
Q 4306 4563 4928 4122 
Q 5813 3506 5813 2425 
Q 5813 438 3431 6 
L 3119 469 
z
M 3053 4147 
Q 2378 4044 1891 3641 
Q 1097 2981 1097 1991 
Q 1097 1366 1434 978 
Q 1581 813 1719 813 
Q 2022 813 2416 1625 
Q 2909 2638 3053 4147 
z
" transform="scale(0.015625)"/>
      <path id="IPAexGothic-65b9" d="M 2931 3750 
L 2925 3616 
Q 2916 3203 2872 2778 
L 5244 2778 
Q 5175 781 5000 156 
Q 4913 -144 4691 -247 
Q 4528 -325 4194 -325 
Q 3759 -325 3256 -263 
L 3144 269 
Q 3700 156 4141 156 
Q 4491 156 4556 463 
Q 4725 1197 4744 2350 
L 2822 2350 
Q 2822 2313 2816 2288 
Q 2538 428 916 -484 
L 563 -94 
Q 1859 491 2247 1869 
Q 2422 2488 2450 3750 
L 409 3750 
L 409 4178 
L 2931 4178 
L 2931 5175 
L 3431 5175 
L 3431 4178 
L 5984 4178 
L 5984 3750 
L 2931 3750 
z
" transform="scale(0.015625)"/>
      <path id="IPAexGothic-6cd5" d="M 3853 2175 
L 3847 2144 
Q 3500 1134 3109 384 
L 3078 331 
Q 3663 372 4444 466 
L 5025 538 
Q 4722 1006 4341 1478 
L 4719 1688 
Q 5372 928 5978 -78 
L 5575 -384 
Q 5353 16 5244 184 
Q 3900 -56 2003 -219 
L 1869 256 
Q 2147 266 2578 294 
Q 3125 1406 3366 2175 
L 1838 2175 
L 1838 2578 
L 3628 2578 
L 3628 3738 
L 2200 3738 
L 2200 4147 
L 3628 4147 
L 3628 5216 
L 4097 5216 
L 4097 4147 
L 5653 4147 
L 5653 3738 
L 4097 3738 
L 4097 2578 
L 6016 2578 
L 6016 2175 
L 3853 2175 
z
M 372 6 
Q 981 797 1472 1913 
L 1806 1550 
Q 1294 378 750 -403 
L 372 6 
z
M 1409 2394 
Q 931 2928 469 3231 
L 775 3597 
Q 1275 3259 1747 2778 
L 1409 2394 
z
M 1613 3847 
Q 1188 4338 691 4703 
L 1000 5056 
Q 1503 4709 1934 4238 
L 1613 3847 
z
" transform="scale(0.015625)"/>
      <path id="IPAexGothic-3067" d="M 581 4034 
Q 2978 4363 5466 4556 
L 5509 4097 
Q 4388 4031 3750 3572 
Q 2797 2878 2797 1913 
Q 2797 1169 3291 819 
Q 3778 484 4869 416 
L 4906 -116 
Q 2278 0 2278 1850 
Q 2278 3125 3691 4000 
Q 2066 3784 684 3553 
L 581 4034 
z
M 5631 2522 
Q 5269 3063 4875 3391 
L 5175 3622 
Q 5559 3313 5950 2797 
L 5631 2522 
z
M 5034 2053 
Q 4747 2544 4300 2944 
L 4613 3184 
Q 4984 2878 5369 2328 
L 5034 2053 
z
" transform="scale(0.015625)"/>
      <path id="IPAexGothic-5909" d="M 2147 1253 
Q 1641 822 944 563 
L 672 900 
Q 1938 1391 2556 2394 
L 2972 2231 
Q 2847 2034 2747 1900 
L 4750 1900 
L 4969 1700 
Q 4422 984 3859 563 
Q 4650 241 6094 69 
L 5825 -366 
Q 4275 -125 3431 288 
Q 2441 -272 603 -538 
L 341 -134 
Q 2103 75 2997 538 
Q 2591 791 2184 1209 
L 2147 1253 
z
M 2434 1528 
L 2422 1516 
Q 2803 1106 3425 778 
Q 3888 1078 4269 1528 
L 2434 1528 
z
M 4059 4147 
L 4059 2650 
Q 4059 2272 3663 2272 
Q 3416 2272 3047 2309 
L 2963 2725 
Q 3241 2681 3431 2681 
Q 3631 2681 3631 2872 
L 3631 4147 
L 2822 4147 
Q 2766 3291 2503 2816 
Q 2191 2259 1503 1869 
L 1172 2156 
Q 1878 2572 2144 3066 
Q 2359 3456 2388 4147 
L 403 4147 
L 403 4544 
L 2938 4544 
L 2938 5294 
L 3419 5294 
L 3419 4544 
L 6000 4544 
L 6000 4147 
L 4059 4147 
z
M 5494 2363 
Q 4828 3150 4328 3584 
L 4672 3859 
Q 5266 3369 5878 2656 
L 5494 2363 
z
M 341 2528 
Q 1025 3022 1441 3775 
L 1844 3597 
Q 1406 2781 706 2241 
L 341 2528 
z
" transform="scale(0.015625)"/>
      <path id="IPAexGothic-4f4d" d="M 1566 3669 
L 1566 -447 
L 1113 -447 
L 1113 2725 
Q 856 2288 544 1863 
L 294 2253 
Q 1209 3525 1591 5241 
L 2034 5147 
Q 1838 4313 1566 3669 
z
M 4075 3944 
L 5791 3944 
L 5791 3528 
L 2044 3528 
L 2044 3944 
L 3600 3944 
L 3600 5109 
L 4075 5109 
L 4075 3944 
z
M 4025 225 
L 4031 256 
Q 4456 1591 4691 3213 
L 5184 3091 
Q 4878 1459 4484 225 
L 6009 225 
L 6009 -191 
L 1838 -191 
L 1838 225 
L 4025 225 
z
M 3000 556 
Q 2791 1869 2431 2988 
L 2891 3116 
Q 3225 2194 3506 709 
L 3000 556 
z
" transform="scale(0.015625)"/>
      <path id="IPAexGothic-3092" d="M 1094 4263 
Q 1544 4222 2359 4222 
Q 2581 4734 2700 5163 
L 3175 5028 
Q 2997 4538 2859 4256 
Q 3516 4284 4294 4459 
L 4356 4019 
Q 3603 3869 2656 3819 
Q 2391 3284 2059 2797 
Q 2531 3200 2963 3200 
Q 3638 3200 3859 2378 
Q 4556 2681 5338 2950 
L 5575 2528 
Q 4641 2253 3941 1956 
Q 3981 1678 3994 1028 
L 3513 991 
Q 3513 1456 3494 1753 
Q 2388 1194 2388 716 
Q 2388 428 2753 328 
Q 3066 241 3806 241 
Q 4394 241 5178 344 
L 5216 -128 
Q 4434 -213 3653 -213 
Q 2656 -213 2244 41 
Q 1913 244 1913 631 
Q 1913 1094 2344 1497 
Q 2709 1841 3428 2181 
Q 3266 2797 2878 2797 
Q 2238 2797 1209 1419 
L 838 1694 
Q 1625 2716 2163 3800 
Q 1522 3800 1088 3825 
L 1094 4263 
z
" transform="scale(0.015625)"/>
      <path id="IPAexGothic-6c42" d="M 3491 3578 
Q 3678 2825 4119 2175 
Q 4600 2613 5028 3225 
L 5488 2938 
Q 4884 2250 4369 1844 
Q 5053 1022 6000 531 
L 5647 109 
Q 4113 1000 3478 2541 
L 3478 38 
Q 3478 -238 3344 -331 
Q 3213 -434 2844 -434 
Q 2553 -434 2056 -397 
L 1978 97 
Q 2419 19 2766 19 
Q 2997 19 2997 244 
L 2997 3578 
L 513 3578 
L 513 4000 
L 2997 4000 
L 2997 5209 
L 3478 5209 
L 3478 4000 
L 5922 4000 
L 5922 3578 
L 3491 3578 
z
M 1991 1950 
Q 1544 2484 1056 2841 
L 1384 3166 
Q 1894 2806 2338 2322 
L 1991 1950 
z
M 481 494 
Q 1681 1094 2650 1900 
L 2803 1484 
Q 2034 797 775 78 
L 481 494 
z
M 4891 4122 
Q 4584 4528 4206 4844 
L 4578 5094 
Q 4981 4775 5294 4409 
L 4891 4122 
z
" transform="scale(0.015625)"/>
      <path id="IPAexGothic-3081" d="M 1588 4550 
Q 1709 3969 1881 3431 
Q 2488 3791 3309 3891 
Q 3444 4513 3488 4972 
L 3994 4878 
Q 3922 4456 3800 3897 
Q 4666 3838 5169 3397 
Q 5513 3103 5650 2753 
Q 5784 2413 5784 1900 
Q 5784 1081 5106 550 
Q 4500 75 3397 -128 
L 3103 331 
Q 4238 484 4784 944 
Q 5253 1334 5253 1913 
Q 5253 2428 5100 2725 
Q 4981 2963 4716 3156 
Q 4331 3441 3694 3500 
Q 3363 2388 2766 1428 
Q 2872 1241 3084 966 
L 2725 647 
Q 2597 813 2475 1019 
Q 1834 231 1313 231 
Q 966 231 756 556 
Q 544 884 544 1338 
Q 544 2300 1484 3156 
Q 1250 3903 1153 4353 
L 1588 4550 
z
M 1631 2725 
Q 991 2069 991 1378 
Q 991 738 1344 738 
Q 1709 738 2228 1428 
Q 1894 2025 1631 2725 
z
M 3206 3488 
Q 2519 3381 2009 3028 
Q 2266 2306 2516 1863 
Q 3003 2763 3206 3488 
z
" transform="scale(0.015625)"/>
      <path id="IPAexGothic-308b" d="M 4391 4397 
L 2613 2588 
Q 3225 2809 3759 2809 
Q 4263 2809 4659 2625 
Q 5391 2269 5391 1484 
Q 5391 756 4706 275 
Q 4072 -166 3053 -166 
Q 2559 -166 2247 19 
Q 1863 250 1863 666 
Q 1863 934 2069 1141 
Q 2331 1403 2741 1403 
Q 3509 1403 4019 428 
Q 4872 784 4872 1491 
Q 4872 1981 4469 2222 
Q 4166 2406 3681 2406 
Q 2425 2406 1238 1209 
L 891 1581 
Q 2438 2934 3578 4281 
Q 2594 4125 1588 4066 
L 1478 4550 
Q 2594 4581 4109 4763 
L 4391 4397 
z
M 3591 303 
Q 3244 1025 2731 1025 
Q 2553 1025 2434 934 
Q 2316 844 2316 700 
Q 2316 250 3034 250 
Q 3275 250 3591 303 
z
" transform="scale(0.015625)"/>
     </defs>
     <use xlink:href="#IPAexGothic-32"/>
     <use xlink:href="#IPAexGothic-3064" transform="translate(62.988281 0)"/>
     <use xlink:href="#IPAexGothic-306e" transform="translate(162.988281 0)"/>
     <use xlink:href="#IPAexGothic-65b9" transform="translate(262.988281 0)"/>
     <use xlink:href="#IPAexGothic-6cd5" transform="translate(362.988281 0)"/>
     <use xlink:href="#IPAexGothic-3067" transform="translate(462.988281 0)"/>
     <use xlink:href="#IPAexGothic-5909" transform="translate(562.988281 0)"/>
     <use xlink:href="#IPAexGothic-4f4d" transform="translate(662.988281 0)"/>
     <use xlink:href="#IPAexGothic-3092" transform="translate(762.988281 0)"/>
     <use xlink:href="#IPAexGothic-6c42" transform="translate(862.988281 0)"/>
     <use xlink:href="#IPAexGothic-3081" transform="translate(962.988281 0)"/>
     <use xlink:href="#IPAexGothic-308b" transform="translate(1062.988281 0)"/>
    </g>
   </g>
   <g id="text_2">
    <!-- 機構の動きを -->
    <g transform="translate(43.44 133.445328) scale(0.13 -0.13)">
     <defs>
      <path id="IPAexGothic-6a5f" d="M 3916 2125 
Q 3806 2984 3806 4238 
L 3806 5313 
L 4216 5313 
L 4216 4300 
Q 4216 3081 4300 2278 
L 4313 2150 
L 5175 2150 
Q 4984 2350 4822 2469 
L 5144 2669 
Q 5325 2541 5547 2309 
L 5309 2150 
L 6006 2150 
L 6006 1797 
L 4363 1797 
Q 4450 1278 4688 869 
Q 4931 1150 5194 1631 
L 5553 1431 
Q 5284 953 4913 531 
Q 4941 491 4959 475 
Q 5278 78 5438 78 
Q 5581 78 5669 844 
L 6066 628 
Q 5881 -422 5559 -422 
Q 5163 -422 4631 244 
Q 4069 -275 3384 -519 
L 3116 -191 
Q 3881 88 4406 569 
Q 4072 1116 3966 1772 
L 3084 1772 
Q 3078 1747 3078 1675 
Q 3078 1650 3063 1431 
Q 3534 1153 3934 781 
L 3684 441 
Q 3328 816 3031 1056 
Q 2906 91 2238 -494 
L 1950 -172 
Q 2478 241 2603 891 
Q 2659 1197 2681 1772 
L 2116 1772 
L 2116 2125 
L 3916 2125 
z
M 1113 2534 
Q 813 1522 384 794 
L 153 1250 
Q 763 2228 1063 3547 
L 294 3547 
L 294 3956 
L 1113 3956 
L 1113 5306 
L 1522 5306 
L 1522 3956 
L 2138 3956 
L 2138 3547 
L 1522 3547 
L 1522 2881 
Q 1875 2588 2150 2228 
L 1888 1884 
Q 1753 2144 1522 2434 
L 1522 -447 
L 1113 -447 
L 1113 2534 
z
M 2750 3334 
Q 2441 3850 2131 4159 
L 2347 4469 
Q 2384 4425 2509 4275 
Q 2734 4703 2913 5228 
L 3263 5025 
Q 3028 4447 2719 3988 
Q 2766 3919 2838 3803 
Q 2913 3684 2938 3647 
Q 3175 4066 3347 4434 
L 3666 4244 
Q 3263 3431 2809 2841 
Q 3097 2872 3347 2900 
Q 3347 2913 3334 2950 
Q 3313 3063 3231 3303 
L 3519 3372 
Q 3716 2891 3781 2413 
L 3456 2297 
Q 3453 2316 3428 2484 
Q 3416 2575 3403 2631 
Q 2906 2506 2175 2438 
L 2072 2797 
Q 2109 2800 2194 2803 
Q 2263 2806 2297 2809 
Q 2369 2809 2413 2816 
L 2438 2853 
Q 2538 2994 2750 3334 
z
M 4875 3413 
Q 4559 3916 4263 4206 
L 4478 4506 
Q 4494 4488 4559 4406 
Q 4609 4350 4641 4306 
Q 4891 4769 5038 5216 
L 5394 5013 
Q 5147 4466 4838 4025 
Q 4963 3844 5050 3700 
Q 5241 4019 5466 4469 
L 5784 4256 
Q 5497 3725 4991 3009 
Q 5356 3031 5547 3053 
Q 5466 3281 5381 3450 
L 5681 3553 
Q 5872 3181 6022 2669 
L 5709 2503 
Q 5697 2550 5663 2678 
Q 5641 2759 5631 2797 
Q 5019 2669 4434 2619 
L 4338 2975 
Q 4513 2975 4594 2981 
Q 4778 3256 4875 3413 
z
" transform="scale(0.015625)"/>
      <path id="IPAexGothic-69cb" d="M 1206 2594 
Q 925 1575 456 788 
L 194 1250 
Q 856 2238 1153 3547 
L 328 3547 
L 328 3956 
L 1206 3956 
L 1206 5306 
L 1628 5306 
L 1628 3956 
L 2306 3956 
L 2306 3547 
L 1628 3547 
L 1628 2906 
Q 2213 2391 2447 2106 
L 2191 1647 
Q 1931 2031 1628 2406 
L 1628 -447 
L 1206 -447 
L 1206 2594 
z
M 5006 3194 
L 6100 3194 
L 6100 2841 
L 4328 2841 
L 4328 2509 
L 5647 2509 
L 5647 1025 
L 6131 1025 
L 6131 672 
L 5647 672 
L 5647 78 
Q 5647 -191 5525 -294 
Q 5413 -397 5106 -397 
Q 4716 -397 4409 -353 
L 4347 84 
Q 4759 13 5069 13 
Q 5228 13 5228 197 
L 5228 672 
L 3047 672 
L 3047 -447 
L 2631 -447 
L 2631 672 
L 1978 672 
L 1978 1025 
L 2631 1025 
L 2631 2509 
L 3913 2509 
L 3913 2841 
L 2175 2841 
L 2175 3194 
L 3222 3194 
L 3222 3631 
L 2522 3631 
L 2522 3956 
L 3222 3956 
L 3222 4369 
L 2291 4369 
L 2291 4709 
L 3222 4709 
L 3222 5313 
L 3644 5313 
L 3644 4709 
L 4591 4709 
L 4591 5313 
L 5006 5313 
L 5006 4709 
L 5953 4709 
L 5953 4369 
L 5006 4369 
L 5006 3956 
L 5759 3956 
L 5759 3631 
L 5006 3631 
L 5006 3194 
z
M 4591 3194 
L 4591 3631 
L 3644 3631 
L 3644 3194 
L 4591 3194 
z
M 4591 4369 
L 3644 4369 
L 3644 3956 
L 4591 3956 
L 4591 4369 
z
M 3047 2169 
L 3047 1759 
L 3925 1759 
L 3925 2169 
L 3047 2169 
z
M 3047 1434 
L 3047 1025 
L 3925 1025 
L 3925 1434 
L 3047 1434 
z
M 4316 2169 
L 4316 1759 
L 5228 1759 
L 5228 2169 
L 4316 2169 
z
M 4316 1434 
L 4316 1025 
L 5228 1025 
L 5228 1434 
L 4316 1434 
z
" transform="scale(0.015625)"/>
      <path id="IPAexGothic-52d5" d="M 1803 3425 
L 1803 3794 
L 372 3794 
L 372 4147 
L 1803 4147 
L 1803 4556 
Q 1250 4500 634 4466 
L 506 4819 
Q 1997 4903 3091 5159 
L 3378 4794 
Q 2803 4678 2219 4606 
L 2219 4147 
L 3538 4147 
L 3538 3794 
L 2219 3794 
L 2219 3425 
L 3378 3425 
L 3378 1569 
L 2219 1569 
L 2219 1178 
L 3447 1178 
L 3447 825 
L 2219 825 
L 2219 384 
Q 2934 459 3544 569 
L 3544 231 
Q 2569 22 416 -206 
L 294 197 
Q 791 238 1284 288 
L 1803 338 
L 1803 825 
L 581 825 
L 581 1178 
L 1803 1178 
L 1803 1569 
L 678 1569 
L 678 3425 
L 1803 3425 
z
M 1816 3100 
L 1075 3100 
L 1075 2669 
L 1816 2669 
L 1816 3100 
z
M 2206 3100 
L 2206 2669 
L 2981 2669 
L 2981 3100 
L 2206 3100 
z
M 1816 2350 
L 1075 2350 
L 1075 1894 
L 1816 1894 
L 1816 2350 
z
M 2206 2350 
L 2206 1894 
L 2981 1894 
L 2981 2350 
L 2206 2350 
z
M 4806 3469 
Q 4797 2084 4628 1338 
Q 4375 250 3572 -459 
L 3238 -141 
Q 3975 481 4225 1550 
Q 4378 2213 4378 3413 
L 3559 3413 
L 3559 3828 
L 4384 3828 
L 4384 5209 
L 4813 5209 
L 4813 3878 
L 5931 3878 
Q 5931 941 5766 128 
Q 5669 -347 5144 -347 
Q 4838 -347 4500 -294 
L 4422 197 
Q 4797 100 5069 100 
Q 5294 100 5344 369 
Q 5484 1053 5503 3200 
L 5503 3469 
L 4806 3469 
z
" transform="scale(0.015625)"/>
      <path id="IPAexGothic-304d" d="M 2944 1600 
Q 2369 1600 2053 1428 
Q 1772 1275 1772 1019 
Q 1772 666 2200 481 
Q 2600 309 3903 309 
Q 4138 309 4397 331 
L 4422 -147 
Q 4203 -166 3969 -166 
Q 2325 -166 1819 141 
Q 1313 444 1313 994 
Q 1313 1447 1791 1738 
Q 2219 1997 2859 1997 
Q 3319 1997 3606 1947 
Q 3894 1894 4216 1759 
Q 3953 2050 3506 2791 
Q 2263 2547 1191 2491 
L 1094 2956 
Q 2263 2966 3281 3175 
Q 3019 3647 2950 3794 
Q 2125 3641 1253 3622 
L 1166 4063 
Q 2013 4063 2750 4184 
Q 2478 4744 2381 4984 
L 2841 5131 
Q 2925 4916 3213 4281 
Q 3888 4438 4459 4709 
L 4672 4313 
Q 4119 4056 3409 3891 
Q 3638 3447 3738 3284 
Q 4528 3503 5113 3794 
L 5331 3366 
Q 4738 3094 3953 2900 
Q 4272 2366 4903 1484 
L 4575 1147 
Q 3888 1600 2944 1600 
z
" transform="scale(0.015625)"/>
     </defs>
     <use xlink:href="#IPAexGothic-6a5f"/>
     <use xlink:href="#IPAexGothic-69cb" transform="translate(100 0)"/>
     <use xlink:href="#IPAexGothic-306e" transform="translate(200 0)"/>
     <use xlink:href="#IPAexGothic-52d5" transform="translate(300 0)"/>
     <use xlink:href="#IPAexGothic-304d" transform="translate(400 0)"/>
     <use xlink:href="#IPAexGothic-3092" transform="translate(500 0)"/>
    </g>
    <!-- 確認 -->
    <g transform="translate(69.44 148.574484) scale(0.13 -0.13)">
     <defs>
      <path id="IPAexGothic-78ba" d="M 4347 3219 
Q 4516 3538 4647 3956 
L 5075 3853 
Q 4875 3431 4750 3219 
L 5888 3219 
L 5888 2847 
L 4700 2847 
L 4700 2222 
L 5741 2222 
L 5741 1869 
L 4700 1869 
L 4700 1250 
L 5741 1250 
L 5741 897 
L 4700 897 
L 4700 231 
L 6034 231 
L 6034 -141 
L 3463 -141 
L 3463 -447 
L 3047 -447 
L 3047 2444 
Q 2756 2019 2484 1703 
L 2284 2100 
Q 3159 3197 3506 4147 
L 2913 4147 
L 2913 3425 
L 2509 3425 
L 2509 4519 
L 3634 4519 
Q 3750 4903 3847 5319 
L 4269 5241 
Q 4175 4834 4072 4519 
L 5934 4519 
L 5934 3425 
L 5525 3425 
L 5525 4147 
L 3938 4147 
Q 3747 3647 3513 3219 
L 4347 3219 
z
M 4297 2847 
L 3463 2847 
L 3463 2222 
L 4297 2222 
L 4297 2847 
z
M 4297 1869 
L 3463 1869 
L 3463 1250 
L 4297 1250 
L 4297 1869 
z
M 4297 897 
L 3463 897 
L 3463 231 
L 4297 231 
L 4297 897 
z
M 1159 2944 
L 2275 2944 
L 2275 197 
L 1213 197 
L 1213 -328 
L 816 -328 
L 816 2206 
Q 650 1903 394 1522 
L 188 1919 
Q 931 3013 1200 4416 
L 406 4416 
L 406 4819 
L 2409 4819 
L 2409 4416 
L 1616 4416 
L 1597 4353 
Q 1456 3663 1159 2944 
z
M 1213 2553 
L 1213 588 
L 1878 588 
L 1878 2553 
L 1213 2553 
z
" transform="scale(0.015625)"/>
      <path id="IPAexGothic-8a8d" d="M 4341 4556 
Q 4309 4069 4219 3694 
Q 4622 3497 4956 3309 
L 4731 2963 
Q 4463 3125 4141 3291 
L 4091 3322 
Q 3756 2566 2959 2088 
L 2663 2419 
Q 3456 2844 3713 3500 
Q 3213 3722 2906 3828 
L 3113 4141 
Q 3381 4050 3828 3866 
Q 3916 4231 3925 4556 
L 2816 4556 
L 2816 4947 
L 5775 4947 
Q 5766 3272 5653 2713 
Q 5606 2459 5453 2369 
Q 5334 2284 5025 2284 
Q 4684 2284 4366 2334 
L 4303 2784 
Q 4644 2713 4928 2713 
Q 5181 2713 5228 2906 
Q 5309 3234 5338 4513 
Q 5338 4544 5338 4556 
L 4341 4556 
z
M 2406 1684 
L 2406 -128 
L 959 -128 
L 959 -447 
L 544 -447 
L 544 1684 
L 2406 1684 
z
M 959 1313 
L 959 244 
L 1984 244 
L 1984 1313 
L 959 1313 
z
M 634 5044 
L 2313 5044 
L 2313 4659 
L 634 4659 
L 634 5044 
z
M 353 4206 
L 2638 4206 
L 2638 3816 
L 353 3816 
L 353 4206 
z
M 634 3359 
L 2313 3359 
L 2313 2975 
L 634 2975 
L 634 3359 
z
M 634 2522 
L 2313 2522 
L 2313 2138 
L 634 2138 
L 634 2522 
z
M 2528 31 
Q 2816 625 2919 1447 
L 3322 1375 
Q 3200 381 2900 -225 
L 2528 31 
z
M 3572 1556 
L 4000 1556 
L 4000 294 
Q 4000 128 4084 100 
Q 4144 75 4300 75 
Q 4728 75 4775 275 
Q 4806 394 4825 738 
L 5253 616 
Q 5206 -44 5081 -188 
Q 4941 -347 4359 -347 
Q 3900 -347 3738 -269 
Q 3572 -191 3572 91 
L 3572 1556 
z
M 5775 -25 
Q 5428 800 5006 1375 
L 5366 1588 
Q 5819 994 6166 244 
L 5775 -25 
z
M 4566 1294 
Q 4106 1772 3656 2075 
L 3938 2350 
Q 4331 2113 4872 1613 
L 4566 1294 
z
" transform="scale(0.015625)"/>
     </defs>
     <use xlink:href="#IPAexGothic-78ba"/>
     <use xlink:href="#IPAexGothic-8a8d" transform="translate(100 0)"/>
    </g>
   </g>
   <g id="text_3">
    <!-- 解析条件を -->
    <g transform="translate(206.18 133.445328) scale(0.13 -0.13)">
     <defs>
      <path id="IPAexGothic-89e3" d="M 4538 2222 
L 4538 2906 
L 4953 2906 
L 4953 2222 
L 5850 2222 
L 5850 1850 
L 4953 1850 
L 4953 1159 
L 6072 1159 
L 6072 775 
L 4953 775 
L 4953 -447 
L 4538 -447 
L 4538 775 
L 3303 775 
L 3303 1159 
L 4538 1159 
L 4538 1850 
L 3897 1850 
Q 3781 1528 3622 1269 
L 3303 1544 
Q 3600 2072 3706 2734 
L 4103 2663 
Q 4053 2416 4006 2222 
L 4538 2222 
z
M 2394 3803 
L 3141 3803 
L 3141 63 
Q 3141 -213 3006 -306 
Q 2900 -384 2622 -384 
Q 2250 -384 1919 -341 
L 1853 103 
Q 2278 31 2547 31 
Q 2744 31 2744 213 
L 2744 1319 
L 1241 1319 
Q 1191 303 722 -513 
L 394 -178 
Q 863 566 863 1869 
L 863 3181 
Q 738 3000 516 2741 
L 281 3094 
Q 1106 4053 1363 5319 
L 1797 5238 
Q 1747 5044 1719 4959 
L 1700 4891 
L 2653 4891 
L 2853 4684 
Q 2653 4238 2394 3803 
z
M 1809 3450 
L 1259 3450 
L 1259 2747 
L 1809 2747 
L 1809 3450 
z
M 2175 3450 
L 2175 2747 
L 2744 2747 
L 2744 3450 
L 2175 3450 
z
M 1809 2406 
L 1259 2406 
L 1259 1672 
L 1809 1672 
L 1809 2406 
z
M 2175 2406 
L 2175 1672 
L 2744 1672 
L 2744 2406 
L 2175 2406 
z
M 1969 3803 
Q 2172 4141 2322 4531 
L 1572 4531 
Q 1409 4100 1247 3803 
L 1969 3803 
z
M 4622 4594 
Q 4534 3469 3597 2897 
L 3297 3225 
Q 4088 3625 4191 4594 
L 3316 4594 
L 3316 4978 
L 5844 4978 
Q 5813 3791 5734 3422 
Q 5688 3194 5556 3103 
Q 5444 3031 5184 3031 
Q 4863 3031 4556 3078 
L 4500 3475 
Q 4819 3422 5044 3422 
Q 5266 3422 5313 3600 
Q 5372 3831 5400 4594 
L 4622 4594 
z
" transform="scale(0.015625)"/>
      <path id="IPAexGothic-6790" d="M 1363 2669 
L 1350 2625 
Q 1066 1647 550 781 
L 263 1256 
Q 953 2256 1300 3541 
L 397 3541 
L 397 3956 
L 1363 3956 
L 1363 5300 
L 1803 5300 
L 1803 3956 
L 2700 3956 
L 2700 3541 
L 1803 3541 
L 1803 2931 
Q 2375 2453 2788 1991 
L 2519 1531 
Q 2156 2053 1803 2434 
L 1803 -447 
L 1363 -447 
L 1363 2669 
z
M 3016 4634 
L 3156 4647 
Q 4450 4763 5319 5075 
L 5709 4678 
Q 4731 4363 3469 4256 
L 3469 3213 
L 6088 3213 
L 6088 2797 
L 5134 2797 
L 5134 -441 
L 4681 -441 
L 4681 2797 
L 3469 2797 
Q 3469 1600 3347 972 
Q 3184 100 2663 -525 
L 2331 -225 
Q 2850 488 2953 1325 
Q 3016 1772 3016 2584 
L 3016 4634 
z
" transform="scale(0.015625)"/>
      <path id="IPAexGothic-6761" d="M 3406 1475 
L 3406 -447 
L 2953 -447 
L 2953 1422 
Q 2147 306 641 -331 
L 334 59 
Q 1738 569 2563 1538 
L 488 1538 
L 488 1941 
L 2953 1941 
L 2953 2691 
L 3406 2691 
L 3406 1941 
L 5928 1941 
L 5928 1538 
L 3847 1538 
Q 4597 769 6063 238 
L 5759 -203 
Q 4256 400 3406 1475 
z
M 3738 3419 
Q 4619 2991 5959 2772 
L 5684 2356 
Q 4216 2631 3353 3150 
Q 2350 2494 813 2175 
L 531 2566 
Q 2063 2825 2997 3391 
Q 2494 3763 2163 4219 
Q 1694 3747 1038 3359 
L 725 3688 
Q 1897 4319 2466 5306 
L 2900 5203 
Q 2784 5003 2713 4903 
L 4641 4903 
L 4872 4691 
Q 4384 3938 3738 3419 
z
M 3353 3634 
Q 3919 4075 4219 4531 
L 2438 4531 
L 2425 4513 
Q 2838 3956 3353 3634 
z
" transform="scale(0.015625)"/>
      <path id="IPAexGothic-4ef6" d="M 3903 3425 
L 2906 3425 
Q 2697 2825 2309 2247 
L 1991 2572 
Q 2588 3497 2803 4788 
L 3256 4713 
Q 3175 4313 3041 3834 
L 3903 3834 
L 3903 5250 
L 4356 5250 
L 4356 3834 
L 5731 3834 
L 5731 3425 
L 4356 3425 
L 4356 2009 
L 6041 2009 
L 6041 1594 
L 4356 1594 
L 4356 -447 
L 3903 -447 
L 3903 1594 
L 2078 1594 
L 2078 2009 
L 3903 2009 
L 3903 3425 
z
M 1638 3681 
L 1638 -447 
L 1169 -447 
L 1169 2753 
Q 881 2272 575 1863 
L 313 2253 
Q 1238 3463 1650 5184 
L 2125 5069 
Q 1909 4316 1638 3681 
z
" transform="scale(0.015625)"/>
     </defs>
     <use xlink:href="#IPAexGothic-89e3"/>
     <use xlink:href="#IPAexGothic-6790" transform="translate(100 0)"/>
     <use xlink:href="#IPAexGothic-6761" transform="translate(200 0)"/>
     <use xlink:href="#IPAexGothic-4ef6" transform="translate(300 0)"/>
     <use xlink:href="#IPAexGothic-3092" transform="translate(400 0)"/>
    </g>
    <!-- 設定 -->
    <g transform="translate(225.68 148.574484) scale(0.13 -0.13)">
     <defs>
      <path id="IPAexGothic-8a2d" d="M 2388 1684 
L 2388 -128 
L 959 -128 
L 959 -447 
L 538 -447 
L 538 1684 
L 2388 1684 
z
M 959 1313 
L 959 244 
L 1966 244 
L 1966 1313 
L 959 1313 
z
M 4969 4984 
L 4969 3441 
Q 4969 3256 5225 3256 
Q 5472 3256 5500 3384 
Q 5538 3509 5556 3941 
L 5981 3800 
Q 5950 3134 5813 2988 
Q 5688 2853 5225 2853 
Q 4753 2853 4625 2963 
Q 4528 3050 4528 3238 
L 4528 4575 
L 3681 4575 
L 3681 4409 
Q 3681 3675 3478 3256 
Q 3303 2916 2900 2628 
L 2606 2950 
Q 3028 3253 3156 3634 
Q 3253 3922 3253 4363 
L 3253 4984 
L 4969 4984 
z
M 4591 766 
Q 5241 306 6081 56 
L 5800 -403 
Q 4984 -97 4284 459 
Q 3581 -166 2766 -500 
L 2484 -122 
Q 3303 159 3963 753 
Q 3416 1300 3053 2053 
L 2722 2053 
L 2722 2463 
L 5344 2463 
L 5563 2278 
Q 5247 1478 4591 766 
z
M 4269 1041 
Q 4719 1519 4981 2053 
L 3503 2053 
Q 3794 1500 4269 1041 
z
M 634 5044 
L 2294 5044 
L 2294 4659 
L 634 4659 
L 634 5044 
z
M 347 4206 
L 2625 4206 
L 2625 3816 
L 347 3816 
L 347 4206 
z
M 634 3359 
L 2294 3359 
L 2294 2975 
L 634 2975 
L 634 3359 
z
M 634 2522 
L 2294 2522 
L 2294 2138 
L 634 2138 
L 634 2522 
z
" transform="scale(0.015625)"/>
      <path id="IPAexGothic-5b9a" d="M 3431 303 
Q 3931 225 4709 225 
Q 5191 225 6053 263 
Q 5963 59 5888 -228 
Q 5234 -250 4844 -250 
Q 3569 -250 3003 -78 
Q 2259 153 1750 903 
Q 1441 163 806 -459 
L 475 -75 
Q 1416 759 1684 2419 
L 2125 2303 
Q 2031 1756 1909 1356 
Q 2338 678 2972 416 
L 2972 2944 
L 1434 2944 
L 1434 3353 
L 4959 3353 
L 4959 2944 
L 3431 2944 
L 3431 1984 
L 5397 1984 
L 5397 1569 
L 3431 1569 
L 3431 303 
z
M 3419 4428 
L 5750 4428 
L 5750 3166 
L 5275 3166 
L 5275 4025 
L 1122 4025 
L 1122 3166 
L 647 3166 
L 647 4428 
L 2938 4428 
L 2938 5313 
L 3419 5313 
L 3419 4428 
z
" transform="scale(0.015625)"/>
     </defs>
     <use xlink:href="#IPAexGothic-8a2d"/>
     <use xlink:href="#IPAexGothic-5b9a" transform="translate(100 0)"/>
    </g>
   </g>
   <g id="text_4">
    <!-- Motion解析 -->
    <g transform="translate(377.012969 72.173552) scale(0.13 -0.13)">
     <defs>
      <path id="IPAexGothic-4d" d="M 5147 63 
L 4597 63 
L 4597 2534 
Q 4597 3281 4634 4134 
L 4609 4134 
Q 4356 3409 4066 2675 
L 3066 209 
L 2650 209 
L 1641 2725 
Q 1328 3506 1128 4141 
L 1103 4141 
Q 1141 3131 1141 2553 
L 1141 63 
L 609 63 
L 609 4634 
L 1416 4634 
L 2503 1944 
Q 2697 1472 2869 906 
L 2888 906 
Q 3028 1416 3234 1931 
L 4316 4634 
L 5147 4634 
L 5147 63 
z
" transform="scale(0.015625)"/>
      <path id="IPAexGothic-6f" d="M 1919 3341 
Q 2594 3341 3056 2888 
Q 3531 2413 3531 1638 
Q 3531 888 3066 422 
Q 2609 -31 1919 -31 
Q 1228 -31 781 416 
Q 313 881 313 1656 
Q 313 2413 788 2888 
Q 1241 3341 1919 3341 
z
M 1919 2919 
Q 1519 2919 1241 2631 
Q 888 2278 888 1650 
Q 888 1031 1234 684 
Q 1516 403 1919 403 
Q 2331 403 2609 691 
Q 2956 1038 2956 1672 
Q 2956 2269 2603 2631 
Q 2316 2919 1919 2919 
z
" transform="scale(0.015625)"/>
      <path id="IPAexGothic-74" d="M 2125 241 
Q 1769 -6 1397 -6 
Q 653 -6 653 831 
L 653 2859 
L 219 2859 
L 219 3250 
L 653 3250 
L 653 3966 
L 1178 4228 
L 1178 3250 
L 2063 3250 
L 2063 2859 
L 1178 2859 
L 1178 906 
Q 1178 416 1513 416 
Q 1738 416 1941 588 
L 2125 241 
z
" transform="scale(0.015625)"/>
      <path id="IPAexGothic-69" d="M 1178 3928 
L 550 3928 
L 550 4569 
L 1178 4569 
L 1178 3928 
z
M 1138 63 
L 588 63 
L 588 3250 
L 1138 3250 
L 1138 63 
z
" transform="scale(0.015625)"/>
      <path id="IPAexGothic-6e" d="M 3328 63 
L 2778 63 
L 2778 2041 
Q 2778 2853 2106 2853 
Q 1428 2853 1113 2041 
L 1113 63 
L 563 63 
L 563 3250 
L 1075 3250 
L 1075 2675 
Q 1525 3316 2222 3316 
Q 3328 3316 3328 2072 
L 3328 63 
z
" transform="scale(0.015625)"/>
     </defs>
     <use xlink:href="#IPAexGothic-4d"/>
     <use xlink:href="#IPAexGothic-6f" transform="translate(90.185547 0)"/>
     <use xlink:href="#IPAexGothic-74" transform="translate(150.585938 0)"/>
     <use xlink:href="#IPAexGothic-69" transform="translate(185.205078 0)"/>
     <use xlink:href="#IPAexGothic-6f" transform="translate(212.207031 0)"/>
     <use xlink:href="#IPAexGothic-6e" transform="translate(272.607422 0)"/>
     <use xlink:href="#IPAexGothic-89e3" transform="translate(333.007812 0)"/>
     <use xlink:href="#IPAexGothic-6790" transform="translate(433.007812 0)"/>
    </g>
    <!-- 変位グラフを取得 -->
    <g transform="translate(359.66 87.43474) scale(0.13 -0.13)">
     <defs>
      <path id="IPAexGothic-30b0" d="M 4769 4128 
L 5106 3878 
Q 4728 2272 3866 1238 
Q 3106 328 1863 -288 
L 1491 122 
Q 2709 628 3475 1563 
Q 4238 2491 4525 3669 
L 2738 3669 
Q 2022 2591 1191 1897 
L 813 2247 
Q 2163 3338 2766 4959 
L 3256 4819 
Q 3197 4609 2975 4128 
L 4769 4128 
z
M 6009 4422 
Q 5647 4966 5253 5294 
L 5556 5522 
Q 5941 5213 6328 4697 
L 6009 4422 
z
M 5416 3956 
Q 5125 4447 4678 4844 
L 4991 5088 
Q 5363 4781 5747 4231 
L 5416 3956 
z
" transform="scale(0.015625)"/>
      <path id="IPAexGothic-30e9" d="M 1447 4709 
L 4922 4709 
L 4922 4234 
L 1447 4234 
L 1447 4709 
z
M 897 3303 
L 5172 3303 
L 5478 3013 
Q 5069 1669 4219 875 
Q 3475 181 2306 -181 
L 1972 294 
Q 4150 784 4834 2828 
L 897 2828 
L 897 3303 
z
" transform="scale(0.015625)"/>
      <path id="IPAexGothic-30d5" d="M 4966 4294 
L 5263 4019 
Q 4819 894 1966 -97 
L 1600 353 
Q 4234 1156 4684 3822 
L 1044 3756 
L 1044 4244 
L 4966 4294 
z
" transform="scale(0.015625)"/>
      <path id="IPAexGothic-53d6" d="M 2825 4544 
L 2825 -447 
L 2384 -447 
L 2384 891 
L 2250 853 
Q 1509 650 484 431 
L 331 884 
Q 594 925 919 981 
L 919 4544 
L 406 4544 
L 406 4953 
L 3300 4953 
L 3300 4544 
L 2825 4544 
z
M 2384 4544 
L 1341 4544 
L 1341 3700 
L 2384 3700 
L 2384 4544 
z
M 2384 3316 
L 1341 3316 
L 1341 2472 
L 2384 2472 
L 2384 3316 
z
M 2384 2088 
L 1341 2088 
L 1341 1056 
L 1525 1091 
Q 2231 1231 2384 1269 
L 2384 2088 
z
M 4838 1281 
L 4863 1244 
Q 5359 578 6116 59 
L 5822 -378 
Q 5178 116 4606 872 
Q 4050 13 3250 -506 
L 2956 -128 
Q 3788 359 4338 1269 
Q 3644 2359 3422 3963 
L 3063 3963 
L 3063 4391 
L 5522 4391 
L 5753 4188 
Q 5372 2341 4838 1281 
z
M 4569 1697 
Q 5019 2684 5222 3963 
L 3850 3963 
Q 4069 2634 4569 1697 
z
" transform="scale(0.015625)"/>
      <path id="IPAexGothic-5f97" d="M 1613 2803 
L 1613 -447 
L 1172 -447 
L 1172 2247 
Q 850 1884 544 1613 
L 244 1953 
Q 1197 2800 1797 3938 
L 2200 3738 
Q 1916 3234 1613 2803 
z
M 5491 5088 
L 5491 3072 
L 2541 3072 
L 2541 5088 
L 5491 5088 
z
M 2981 4734 
L 2981 4250 
L 5038 4250 
L 5038 4734 
L 2981 4734 
z
M 2981 3919 
L 2981 3419 
L 5038 3419 
L 5038 3919 
L 2981 3919 
z
M 5147 2253 
L 5147 1728 
L 6050 1728 
L 6050 1350 
L 5166 1350 
L 5166 72 
Q 5166 -422 4584 -422 
Q 4134 -422 3700 -384 
L 3625 91 
Q 4097 31 4444 31 
Q 4644 31 4694 103 
Q 4719 144 4719 275 
L 4719 1350 
L 1966 1350 
L 1966 1728 
L 4700 1728 
L 4700 2253 
L 2050 2253 
L 2050 2638 
L 5966 2638 
L 5966 2253 
L 5147 2253 
z
M 288 3716 
Q 1213 4372 1666 5209 
L 2075 4997 
Q 1472 4009 591 3372 
L 288 3716 
z
M 3259 159 
Q 2856 728 2478 1044 
L 2822 1306 
Q 3253 963 3622 459 
L 3259 159 
z
" transform="scale(0.015625)"/>
     </defs>
     <use xlink:href="#IPAexGothic-5909"/>
     <use xlink:href="#IPAexGothic-4f4d" transform="translate(100 0)"/>
     <use xlink:href="#IPAexGothic-30b0" transform="translate(200 0)"/>
     <use xlink:href="#IPAexGothic-30e9" transform="translate(300 0)"/>
     <use xlink:href="#IPAexGothic-30d5" transform="translate(400 0)"/>
     <use xlink:href="#IPAexGothic-3092" transform="translate(500 0)"/>
     <use xlink:href="#IPAexGothic-53d6" transform="translate(600 0)"/>
     <use xlink:href="#IPAexGothic-5f97" transform="translate(700 0)"/>
    </g>
   </g>
   <g id="text_5">
    <!-- 理論計算 -->
    <g transform="translate(385.66 194.585072) scale(0.13 -0.13)">
     <defs>
      <path id="IPAexGothic-7406" d="M 1541 4397 
L 1541 3084 
L 2219 3084 
L 2219 2688 
L 1541 2688 
L 1541 1247 
Q 1919 1356 2397 1522 
L 2431 1144 
Q 1353 713 434 472 
L 263 909 
Q 763 1025 1113 1119 
L 1113 2688 
L 441 2688 
L 441 3084 
L 1113 3084 
L 1113 4397 
L 369 4397 
L 369 4800 
L 2347 4800 
L 2347 4397 
L 1541 4397 
z
M 5691 4991 
L 5691 2106 
L 4378 2106 
L 4378 1375 
L 5825 1375 
L 5825 984 
L 4378 984 
L 4378 206 
L 6081 206 
L 6081 -191 
L 2150 -191 
L 2150 206 
L 3944 206 
L 3944 984 
L 2559 984 
L 2559 1375 
L 3944 1375 
L 3944 2106 
L 2675 2106 
L 2675 4991 
L 5691 4991 
z
M 3091 4606 
L 3091 3750 
L 3956 3750 
L 3956 4606 
L 3091 4606 
z
M 3091 3378 
L 3091 2491 
L 3956 2491 
L 3956 3378 
L 3091 3378 
z
M 5275 2491 
L 5275 3378 
L 4366 3378 
L 4366 2491 
L 5275 2491 
z
M 5275 3750 
L 5275 4606 
L 4366 4606 
L 4366 3750 
L 5275 3750 
z
" transform="scale(0.015625)"/>
      <path id="IPAexGothic-8ad6" d="M 2181 1684 
L 2181 -128 
L 894 -128 
L 894 -447 
L 484 -447 
L 484 1684 
L 2181 1684 
z
M 894 1313 
L 894 244 
L 1772 244 
L 1772 1313 
L 894 1313 
z
M 5063 3584 
L 5063 3250 
L 3334 3250 
L 3334 3566 
Q 3003 3200 2516 2828 
L 2219 3153 
Q 3372 3916 3844 5241 
L 4338 5241 
Q 5019 4022 6163 3300 
L 5888 2909 
Q 5463 3191 5063 3584 
z
M 3384 3622 
L 5022 3622 
Q 4466 4191 4116 4806 
Q 3850 4156 3384 3622 
z
M 5747 2778 
L 5747 6 
Q 5747 -397 5331 -397 
Q 5138 -397 4966 -372 
L 4909 63 
Q 5072 25 5203 25 
Q 5338 25 5338 206 
L 5338 1197 
L 4794 1197 
L 4794 -288 
L 4409 -288 
L 4409 1197 
L 3903 1197 
L 3903 -288 
L 3519 -288 
L 3519 1197 
L 3006 1197 
L 3006 -447 
L 2603 -447 
L 2603 2778 
L 5747 2778 
z
M 3006 2400 
L 3006 1550 
L 3519 1550 
L 3519 2400 
L 3006 2400 
z
M 5338 1550 
L 5338 2400 
L 4794 2400 
L 4794 1550 
L 5338 1550 
z
M 3903 2400 
L 3903 1550 
L 4409 1550 
L 4409 2400 
L 3903 2400 
z
M 569 5044 
L 2097 5044 
L 2097 4659 
L 569 4659 
L 569 5044 
z
M 313 4206 
L 2366 4206 
L 2366 3816 
L 313 3816 
L 313 4206 
z
M 569 3359 
L 2097 3359 
L 2097 2975 
L 569 2975 
L 569 3359 
z
M 569 2522 
L 2097 2522 
L 2097 2138 
L 569 2138 
L 569 2522 
z
" transform="scale(0.015625)"/>
      <path id="IPAexGothic-8a08" d="M 2853 1684 
L 2853 -416 
L 2413 -416 
L 2413 -128 
L 1088 -128 
L 1088 -447 
L 647 -447 
L 647 1684 
L 2853 1684 
z
M 1088 1300 
L 1088 256 
L 2413 256 
L 2413 1300 
L 1088 1300 
z
M 4322 3225 
L 4322 5178 
L 4781 5178 
L 4781 3225 
L 6063 3225 
L 6063 2797 
L 4781 2797 
L 4781 -447 
L 4322 -447 
L 4322 2797 
L 3063 2797 
L 3063 3225 
L 4322 3225 
z
M 781 5044 
L 2722 5044 
L 2722 4647 
L 781 4647 
L 781 5044 
z
M 384 4206 
L 3150 4206 
L 3150 3803 
L 384 3803 
L 384 4206 
z
M 781 3359 
L 2722 3359 
L 2722 2963 
L 781 2963 
L 781 3359 
z
M 781 2522 
L 2722 2522 
L 2722 2125 
L 781 2125 
L 781 2522 
z
" transform="scale(0.015625)"/>
      <path id="IPAexGothic-7b97" d="M 2466 672 
Q 2322 -228 1031 -525 
L 756 -166 
Q 1419 -22 1731 213 
Q 1944 369 2013 672 
L 328 672 
L 328 1056 
L 2038 1056 
L 2038 1466 
L 1206 1466 
L 1206 3803 
L 3319 3803 
L 3022 4019 
Q 3444 4525 3694 5319 
L 4122 5222 
Q 4081 5094 3963 4794 
L 5991 4794 
L 5991 4422 
L 4691 4422 
Q 4788 4281 4956 3988 
L 4556 3809 
Q 4397 4153 4225 4422 
L 3791 4422 
Q 3609 4075 3375 3803 
L 5213 3803 
L 5213 1466 
L 4422 1466 
L 4422 1056 
L 6088 1056 
L 6088 672 
L 4444 672 
L 4444 -441 
L 3991 -441 
L 3991 672 
L 2466 672 
z
M 2491 1056 
L 3969 1056 
L 3969 1466 
L 2491 1466 
L 2491 1056 
z
M 4769 1797 
L 4769 2172 
L 1647 2172 
L 1647 1797 
L 4769 1797 
z
M 4769 2497 
L 4769 2819 
L 1647 2819 
L 1647 2497 
L 4769 2497 
z
M 4769 3144 
L 4769 3463 
L 1647 3463 
L 1647 3144 
L 4769 3144 
z
M 1472 4794 
L 3206 4794 
L 3206 4422 
L 2272 4422 
L 2478 3994 
L 2088 3806 
Q 1934 4200 1819 4422 
L 1281 4422 
Q 1025 3969 691 3616 
L 384 3878 
Q 941 4494 1241 5313 
L 1659 5203 
Q 1594 5053 1472 4794 
z
" transform="scale(0.015625)"/>
     </defs>
     <use xlink:href="#IPAexGothic-7406"/>
     <use xlink:href="#IPAexGothic-8ad6" transform="translate(100 0)"/>
     <use xlink:href="#IPAexGothic-8a08" transform="translate(200 0)"/>
     <use xlink:href="#IPAexGothic-7b97" transform="translate(300 0)"/>
    </g>
    <!-- 変位グラフを作成 -->
    <g transform="translate(359.66 209.84626) scale(0.13 -0.13)">
     <defs>
      <path id="IPAexGothic-4f5c" d="M 3609 3834 
L 3231 3834 
Q 2869 2822 2297 2038 
L 1963 2381 
Q 2797 3513 3153 5275 
L 3616 5184 
Q 3506 4656 3378 4256 
L 5984 4256 
L 5984 3834 
L 4078 3834 
L 4078 2906 
L 5678 2906 
L 5678 2484 
L 4078 2484 
L 4078 1563 
L 5775 1563 
L 5775 1147 
L 4078 1147 
L 4078 -447 
L 3609 -447 
L 3609 3834 
z
M 1734 3725 
L 1734 -447 
L 1275 -447 
L 1275 2797 
L 1250 2747 
Q 984 2284 647 1850 
L 372 2234 
Q 1309 3481 1747 5203 
L 2219 5081 
Q 2028 4406 1734 3725 
z
" transform="scale(0.015625)"/>
      <path id="IPAexGothic-6210" d="M 4322 1650 
Q 4809 2375 5153 3309 
L 5563 3116 
Q 5159 2053 4566 1200 
Q 4881 675 5250 384 
Q 5388 275 5441 275 
Q 5544 275 5641 1119 
L 6063 875 
Q 5919 -328 5550 -328 
Q 5397 -328 5141 -150 
Q 4644 203 4250 806 
Q 3659 97 2825 -431 
L 2497 -59 
Q 3341 434 4009 1228 
Q 3491 2244 3272 3738 
L 1347 3738 
L 1347 2847 
L 2947 2847 
Q 2897 1366 2813 953 
Q 2706 453 2191 453 
Q 1900 453 1563 509 
L 1513 978 
Q 1981 888 2153 888 
Q 2350 888 2391 1100 
Q 2453 1416 2491 2463 
L 1347 2463 
L 1347 2303 
Q 1347 606 609 -438 
L 256 -78 
Q 878 772 878 2316 
L 878 4153 
L 3216 4153 
Q 3159 4672 3119 5291 
L 3594 5291 
Q 3619 4716 3681 4184 
L 5959 4184 
L 5959 3769 
L 3741 3769 
L 3759 3641 
Q 3956 2413 4322 1650 
z
M 4934 4225 
Q 4597 4656 4300 4897 
L 4659 5172 
Q 5003 4916 5319 4506 
L 4934 4225 
z
" transform="scale(0.015625)"/>
     </defs>
     <use xlink:href="#IPAexGothic-5909"/>
     <use xlink:href="#IPAexGothic-4f4d" transform="translate(100 0)"/>
     <use xlink:href="#IPAexGothic-30b0" transform="translate(200 0)"/>
     <use xlink:href="#IPAexGothic-30e9" transform="translate(300 0)"/>
     <use xlink:href="#IPAexGothic-30d5" transform="translate(400 0)"/>
     <use xlink:href="#IPAexGothic-3092" transform="translate(500 0)"/>
     <use xlink:href="#IPAexGothic-4f5c" transform="translate(600 0)"/>
     <use xlink:href="#IPAexGothic-6210" transform="translate(700 0)"/>
    </g>
   </g>
   <g id="text_6">
    <!-- 変位グラフと -->
    <g transform="translate(579.12 133.496109) scale(0.13 -0.13)">
     <defs>
      <path id="IPAexGothic-3068" d="M 5222 56 
Q 4200 -72 3450 -72 
Q 2478 -72 1941 113 
Q 1184 372 1184 1038 
Q 1184 1584 1594 2009 
Q 1941 2369 2656 2725 
Q 2231 3734 1972 4878 
L 2491 4978 
Q 2706 3884 3078 2950 
Q 4250 3447 4756 3616 
L 4978 3150 
Q 3181 2575 2409 2078 
Q 1691 1613 1691 1113 
Q 1691 403 3322 403 
Q 4125 403 5134 563 
L 5222 56 
z
" transform="scale(0.015625)"/>
     </defs>
     <use xlink:href="#IPAexGothic-5909"/>
     <use xlink:href="#IPAexGothic-4f4d" transform="translate(100 0)"/>
     <use xlink:href="#IPAexGothic-30b0" transform="translate(200 0)"/>
     <use xlink:href="#IPAexGothic-30e9" transform="translate(300 0)"/>
     <use xlink:href="#IPAexGothic-30d5" transform="translate(400 0)"/>
     <use xlink:href="#IPAexGothic-3068" transform="translate(500 0)"/>
    </g>
    <!-- ストロークを比較 -->
    <g transform="translate(566.12 148.625266) scale(0.13 -0.13)">
     <defs>
      <path id="IPAexGothic-30b9" d="M 4359 4481 
L 4716 4147 
Q 4328 3072 3647 2150 
Q 4659 1434 5659 453 
L 5234 19 
Q 4256 1088 3353 1778 
Q 2372 597 1044 -31 
L 653 403 
Q 3128 1453 4097 4000 
L 1241 3963 
L 1228 4453 
L 4359 4481 
z
" transform="scale(0.015625)"/>
      <path id="IPAexGothic-30c8" d="M 2284 4997 
L 2803 4997 
L 2803 3206 
Q 4088 2619 5216 1888 
L 4878 1369 
Q 3819 2175 2803 2688 
L 2803 -184 
L 2284 -184 
L 2284 4997 
z
" transform="scale(0.015625)"/>
      <path id="IPAexGothic-30ed" d="M 1147 4269 
L 5250 4269 
L 5250 172 
L 4725 172 
L 4725 569 
L 1672 569 
L 1672 172 
L 1147 172 
L 1147 4269 
z
M 1672 3781 
L 1672 1063 
L 4725 1063 
L 4725 3781 
L 1672 3781 
z
" transform="scale(0.015625)"/>
      <path id="IPAexGothic-30fc" d="M 588 2688 
L 5809 2688 
L 5809 2175 
L 588 2175 
L 588 2688 
z
" transform="scale(0.015625)"/>
      <path id="IPAexGothic-30af" d="M 4934 4191 
L 5272 3941 
Q 4894 2334 4031 1300 
Q 3275 391 2028 -225 
L 1656 184 
Q 2875 691 3641 1625 
Q 4403 2553 4691 3731 
L 2903 3731 
Q 2188 2653 1356 1959 
L 978 2309 
Q 2328 3400 2931 5022 
L 3422 4881 
Q 3363 4672 3141 4191 
L 4934 4191 
z
" transform="scale(0.015625)"/>
      <path id="IPAexGothic-6bd4" d="M 1525 3250 
L 3003 3250 
L 3003 2822 
L 1525 2822 
L 1525 472 
Q 2469 747 3016 934 
L 3041 531 
Q 1813 59 459 -300 
L 294 159 
Q 694 250 1056 344 
L 1056 5081 
L 1525 5081 
L 1525 3250 
z
M 3794 3028 
Q 4691 3472 5341 4038 
L 5744 3706 
Q 4778 2969 3794 2572 
L 3794 556 
Q 3794 353 3978 313 
Q 4106 288 4472 288 
Q 5169 288 5328 378 
Q 5491 463 5522 1516 
L 5994 1356 
Q 5966 238 5772 34 
Q 5566 -172 4491 -172 
Q 3809 -172 3588 -75 
Q 3334 28 3334 397 
L 3334 5113 
L 3794 5113 
L 3794 3028 
z
" transform="scale(0.015625)"/>
      <path id="IPAexGothic-8f03" d="M 1413 3688 
L 1413 4153 
L 384 4153 
L 384 4538 
L 1413 4538 
L 1413 5313 
L 1816 5313 
L 1816 4538 
L 2875 4538 
L 2875 4153 
L 1816 4153 
L 1816 3688 
L 2734 3688 
L 2734 1516 
L 1816 1516 
L 1816 1013 
L 2931 1013 
L 2931 628 
L 1816 628 
L 1816 -447 
L 1413 -447 
L 1413 628 
L 294 628 
L 294 1013 
L 1413 1013 
L 1413 1516 
L 531 1516 
L 531 3688 
L 1413 3688 
z
M 1425 3353 
L 903 3353 
L 903 2778 
L 1425 2778 
L 1425 3353 
z
M 1803 3353 
L 1803 2778 
L 2363 2778 
L 2363 3353 
L 1803 3353 
z
M 1425 2456 
L 903 2456 
L 903 1856 
L 1425 1856 
L 1425 2456 
z
M 1803 2456 
L 1803 1856 
L 2363 1856 
L 2363 2456 
L 1803 2456 
z
M 4241 1013 
Q 3791 1606 3550 2338 
L 3916 2509 
Q 4091 1900 4478 1363 
Q 4825 1941 4978 2638 
L 5375 2491 
Q 5194 1719 4747 1031 
Q 5294 444 6144 44 
L 5859 -378 
Q 5069 50 4497 691 
Q 3853 -78 3050 -481 
L 2750 -128 
Q 3644 259 4241 1013 
z
M 4647 4263 
L 6059 4263 
L 6059 3853 
L 2963 3853 
L 2963 4263 
L 4206 4263 
L 4206 5313 
L 4647 5313 
L 4647 4263 
z
M 2847 2297 
Q 3406 2859 3738 3700 
L 4119 3541 
Q 3769 2644 3153 1991 
L 2847 2297 
z
M 5759 2106 
Q 5334 2863 4734 3541 
L 5075 3731 
Q 5731 3044 6097 2419 
L 5759 2106 
z
" transform="scale(0.015625)"/>
     </defs>
     <use xlink:href="#IPAexGothic-30b9"/>
     <use xlink:href="#IPAexGothic-30c8" transform="translate(100 0)"/>
     <use xlink:href="#IPAexGothic-30ed" transform="translate(200 0)"/>
     <use xlink:href="#IPAexGothic-30fc" transform="translate(300 0)"/>
     <use xlink:href="#IPAexGothic-30af" transform="translate(400 0)"/>
     <use xlink:href="#IPAexGothic-3092" transform="translate(500 0)"/>
     <use xlink:href="#IPAexGothic-6bd4" transform="translate(600 0)"/>
     <use xlink:href="#IPAexGothic-8f03" transform="translate(700 0)"/>
    </g>
   </g>
   <g id="text_7">
    <!-- 解析結果の -->
    <g transform="translate(780.92 133.445328) scale(0.13 -0.13)">
     <defs>
      <path id="IPAexGothic-7d50" d="M 1241 3084 
Q 794 3713 378 4128 
L 666 4422 
Q 828 4259 916 4153 
Q 1300 4750 1541 5331 
L 1956 5119 
Q 1547 4363 1150 3859 
Q 1228 3759 1466 3425 
Q 1844 4016 2138 4550 
L 2522 4313 
Q 1853 3213 1313 2572 
Q 1647 2581 2253 2631 
Q 2134 2909 2009 3156 
L 2353 3303 
Q 2656 2775 2878 2106 
L 2494 1925 
Q 2469 2022 2425 2156 
Q 2384 2284 2372 2322 
Q 2334 2319 2222 2300 
Q 1966 2259 1778 2234 
L 1778 -447 
L 1363 -447 
L 1363 2181 
L 1291 2175 
Q 1000 2144 428 2106 
L 281 2534 
Q 672 2547 863 2553 
Q 909 2613 972 2700 
Q 1059 2816 1241 3084 
z
M 4134 4325 
L 4134 5309 
L 4563 5309 
L 4563 4325 
L 6113 4325 
L 6113 3934 
L 4563 3934 
L 4563 3034 
L 5906 3034 
L 5906 2650 
L 2859 2650 
L 2859 3034 
L 4134 3034 
L 4134 3934 
L 2719 3934 
L 2719 4325 
L 4134 4325 
z
M 5631 1997 
L 5631 -450 
L 5203 -450 
L 5203 -103 
L 3550 -103 
L 3550 -450 
L 3122 -450 
L 3122 1997 
L 5631 1997 
z
M 3550 1613 
L 3550 281 
L 5203 281 
L 5203 1613 
L 3550 1613 
z
M 353 197 
Q 581 863 647 1759 
L 1056 1709 
Q 988 709 769 -13 
L 353 197 
z
M 2334 313 
Q 2206 1147 1997 1759 
L 2363 1869 
Q 2609 1253 2766 488 
L 2334 313 
z
" transform="scale(0.015625)"/>
      <path id="IPAexGothic-679c" d="M 3809 1666 
Q 4656 800 6088 297 
L 5784 -131 
Q 4256 494 3406 1563 
L 3406 -447 
L 2947 -447 
L 2947 1519 
Q 2203 425 647 -281 
L 334 109 
Q 1769 697 2575 1666 
L 378 1666 
L 378 2075 
L 2947 2075 
L 2947 2625 
L 1109 2625 
L 1109 5013 
L 5288 5013 
L 5288 2625 
L 3406 2625 
L 3406 2075 
L 6016 2075 
L 6016 1666 
L 3809 1666 
z
M 1556 4628 
L 1556 3994 
L 2959 3994 
L 2959 4628 
L 1556 4628 
z
M 1556 3628 
L 1556 3009 
L 2959 3009 
L 2959 3628 
L 1556 3628 
z
M 4834 3009 
L 4834 3628 
L 3394 3628 
L 3394 3009 
L 4834 3009 
z
M 4834 3994 
L 4834 4628 
L 3394 4628 
L 3394 3994 
L 4834 3994 
z
" transform="scale(0.015625)"/>
     </defs>
     <use xlink:href="#IPAexGothic-89e3"/>
     <use xlink:href="#IPAexGothic-6790" transform="translate(100 0)"/>
     <use xlink:href="#IPAexGothic-7d50" transform="translate(200 0)"/>
     <use xlink:href="#IPAexGothic-679c" transform="translate(300 0)"/>
     <use xlink:href="#IPAexGothic-306e" transform="translate(400 0)"/>
    </g>
    <!-- 妥当性を確認 -->
    <g transform="translate(774.42 148.574484) scale(0.13 -0.13)">
     <defs>
      <path id="IPAexGothic-59a5" d="M 1422 1056 
L 1484 1141 
Q 1813 1584 2047 1984 
L 416 1984 
L 416 2388 
L 2266 2388 
Q 2416 2678 2553 3009 
L 3000 2863 
Q 2831 2509 2766 2388 
L 5984 2388 
L 5984 1984 
L 4763 1984 
Q 4438 1153 3969 672 
Q 4941 325 5784 -13 
L 5406 -384 
Q 4594 -22 3603 359 
Q 2741 -238 794 -459 
L 550 -25 
Q 2256 119 3078 544 
Q 2106 869 1625 1000 
L 1422 1056 
z
M 2078 1234 
Q 2747 1069 3347 878 
L 3500 831 
Q 3994 1269 4275 1984 
L 2547 1984 
Q 2309 1572 2078 1234 
z
M 678 4569 
Q 3353 4697 4972 5100 
L 5406 4703 
Q 3384 4288 856 4141 
L 678 4569 
z
M 1722 2772 
Q 1409 3456 1113 3859 
L 1534 4031 
Q 1891 3600 2188 2956 
L 1722 2772 
z
M 3169 2894 
Q 2938 3497 2572 4044 
L 2981 4231 
Q 3331 3734 3628 3103 
L 3169 2894 
z
M 4031 2847 
Q 4547 3556 4856 4378 
L 5350 4178 
Q 4928 3309 4453 2688 
L 4031 2847 
z
" transform="scale(0.015625)"/>
      <path id="IPAexGothic-5f53" d="M 3413 2931 
L 5466 2931 
L 5466 -447 
L 4991 -447 
L 4991 -128 
L 825 -128 
L 825 288 
L 4991 288 
L 4991 1241 
L 978 1241 
L 978 1650 
L 4991 1650 
L 4991 2528 
L 819 2528 
L 819 2931 
L 2938 2931 
L 2938 5147 
L 3413 5147 
L 3413 2931 
z
M 1716 3219 
Q 1375 3966 972 4506 
L 1388 4738 
Q 1800 4228 2175 3450 
L 1716 3219 
z
M 4088 3416 
Q 4531 4009 4916 4844 
L 5394 4625 
Q 4984 3828 4513 3194 
L 4088 3416 
z
" transform="scale(0.015625)"/>
      <path id="IPAexGothic-6027" d="M 3106 3788 
L 3900 3788 
L 3900 5216 
L 4353 5216 
L 4353 3788 
L 5884 3788 
L 5884 3372 
L 4353 3372 
L 4353 2069 
L 5756 2069 
L 5756 1653 
L 4353 1653 
L 4353 153 
L 6081 153 
L 6081 -269 
L 2231 -269 
L 2231 153 
L 3900 153 
L 3900 1653 
L 2606 1653 
L 2606 2069 
L 3900 2069 
L 3900 3372 
L 2984 3372 
Q 2806 2803 2544 2325 
L 2147 2613 
Q 2638 3428 2875 4875 
L 3313 4778 
Q 3234 4309 3106 3788 
z
M 269 2188 
Q 459 2891 525 3950 
L 934 3884 
Q 884 2694 672 1931 
L 269 2188 
z
M 1997 3047 
Q 1872 3591 1650 4078 
L 1984 4256 
Q 2216 3844 2394 3291 
L 1997 3047 
z
M 1159 5313 
L 1613 5313 
L 1613 -447 
L 1159 -447 
L 1159 5313 
z
" transform="scale(0.015625)"/>
     </defs>
     <use xlink:href="#IPAexGothic-59a5"/>
     <use xlink:href="#IPAexGothic-5f53" transform="translate(100 0)"/>
     <use xlink:href="#IPAexGothic-6027" transform="translate(200 0)"/>
     <use xlink:href="#IPAexGothic-3092" transform="translate(300 0)"/>
     <use xlink:href="#IPAexGothic-78ba" transform="translate(400 0)"/>
     <use xlink:href="#IPAexGothic-8a8d" transform="translate(500 0)"/>
    </g>
   </g>
  </g>
 </g>
 <defs>
  <clipPath id="p8cbd1e5b09">
   <rect x="4.32" y="4.32" width="892.8" height="266.112"/>
  </clipPath>
 </defs>
</svg>
