<?xml version="1.0" encoding="utf-8" standalone="no"?>
<!DOCTYPE svg PUBLIC "-//W3C//DTD SVG 1.1//EN"
  "http://www.w3.org/Graphics/SVG/1.1/DTD/svg11.dtd">
<svg xmlns:xlink="http://www.w3.org/1999/xlink" width="696.342857pt" height="489.6pt" viewBox="0 0 696.342857 489.6" xmlns="http://www.w3.org/2000/svg" version="1.1">
 <metadata>
  <rdf:RDF xmlns:dc="http://purl.org/dc/elements/1.1/" xmlns:cc="http://creativecommons.org/ns#" xmlns:rdf="http://www.w3.org/1999/02/22-rdf-syntax-ns#">
   <cc:Work>
    <dc:type rdf:resource="http://purl.org/dc/dcmitype/StillImage"/>
    <dc:date>2026-07-07T09:01:32.644201</dc:date>
    <dc:format>image/svg+xml</dc:format>
    <dc:creator>
     <cc:Agent>
      <dc:title>Matplotlib v3.10.0, https://matplotlib.org/</dc:title>
     </cc:Agent>
    </dc:creator>
   </cc:Work>
  </rdf:RDF>
 </metadata>
 <defs>
  <style type="text/css">*{stroke-linejoin: round; stroke-linecap: butt}</style>
 </defs>
 <g id="figure_1">
  <g id="patch_1">
   <path d="M 0 489.6 
L 696.342857 489.6 
L 696.342857 0 
L 0 0 
z
" style="fill: #ffffff"/>
  </g>
  <g id="axes_1">
   <g id="patch_2">
    <path d="M 3.6 403.302857 
L 692.742857 403.302857 
L 692.742857 379.182857 
L 3.6 379.182857 
z
" clip-path="url(#p442371e82d)" style="stroke: #000000; stroke-width: 1.2; stroke-linejoin: miter"/>
   </g>
   <g id="patch_3">
    <path d="M 348.171429 131.091429 
C 352.740499 131.091429 357.123047 129.276118 360.353868 126.045297 
C 363.584689 122.814476 365.4 118.431928 365.4 113.862857 
C 365.4 109.293787 363.584689 104.911238 360.353868 101.680417 
C 357.123047 98.449597 352.740499 96.634286 348.171429 96.634286 
C 343.602358 96.634286 339.21981 98.449597 335.988989 101.680417 
C 332.758168 104.911238 330.942857 109.293787 330.942857 113.862857 
C 330.942857 118.431928 332.758168 122.814476 335.988989 126.045297 
C 339.21981 129.276118 343.602358 131.091429 348.171429 131.091429 
z
" clip-path="url(#p442371e82d)" style="fill: #ffffff; stroke: #000000; stroke-width: 2; stroke-linejoin: miter"/>
   </g>
  </g>
 </g>
 <defs>
  <clipPath id="p442371e82d">
   <rect x="3.6" y="3.6" width="689.142857" height="482.4"/>
  </clipPath>
 </defs>
</svg>
