<?xml version="1.0" encoding="utf-8" standalone="no"?>
<!DOCTYPE svg PUBLIC "-//W3C//DTD SVG 1.1//EN"
  "http://www.w3.org/Graphics/SVG/1.1/DTD/svg11.dtd">
<svg xmlns:xlink="http://www.w3.org/1999/xlink" width="530.260236pt" height="273.6pt" viewBox="0 0 530.260236 273.6" xmlns="http://www.w3.org/2000/svg" version="1.1">
 <metadata>
  <rdf:RDF xmlns:dc="http://purl.org/dc/elements/1.1/" xmlns:cc="http://creativecommons.org/ns#" xmlns:rdf="http://www.w3.org/1999/02/22-rdf-syntax-ns#">
   <cc:Work>
    <dc:type rdf:resource="http://purl.org/dc/dcmitype/StillImage"/>
    <dc:date>2026-07-06T07:18:16.035928</dc:date>
    <dc:format>image/svg+xml</dc:format>
    <dc:creator>
     <cc:Agent>
      <dc:title>Matplotlib v3.10.0, https://matplotlib.org/</dc:title>
     </cc:Agent>
    </dc:creator>
   </cc:Work>
  </rdf:RDF>
 </metadata>
 <defs>
  <style type="text/css">*{stroke-linejoin: round; stroke-linecap: butt}</style>
 </defs>
 <g id="figure_1">
  <g id="patch_1">
   <path d="M 0 273.6 
L 530.260236 273.6 
L 530.260236 0 
L 0 0 
z
" style="fill: #ffffff"/>
  </g>
  <g id="axes_1">
   <g id="patch_2">
    <path d="M 158.176584 40.476832 
C 143.755345 37.276388 128.797772 37.355089 114.41101 40.707106 
C 100.024247 44.059124 86.572239 50.599663 75.050689 59.844599 
C 63.529139 69.089536 54.22951 80.804999 47.84015 94.123822 
C 41.45079 107.442645 38.133333 122.027899 38.133333 136.8 
C 38.133333 151.572101 41.45079 166.157355 47.84015 179.476178 
C 54.22951 192.795001 63.529139 204.510464 75.050689 213.755401 
C 86.572239 223.000337 100.024247 229.540876 114.41101 232.892894 
C 128.797772 236.244911 143.755345 236.323612 158.176584 233.123168 
" clip-path="url(#p5dacc66cd5)" style="fill: none; stroke: #000000; stroke-width: 2.2; stroke-linejoin: miter"/>
   </g>
   <g id="patch_3">
    <path d="M 470.443431 163.82314 
C 476.591901 162.458636 482.094317 159.035754 486.03588 154.123561 
C 489.977443 149.211368 492.126902 143.09806 492.126902 136.8 
C 492.126902 130.50194 489.977443 124.388632 486.03588 119.476439 
C 482.094317 114.564246 476.591901 111.141364 470.443431 109.77686 
" clip-path="url(#p5dacc66cd5)" style="fill: none; stroke: #000000; stroke-width: 2.2; stroke-linejoin: miter"/>
   </g>
   <g id="patch_4">
    <path d="M 136.8 235.466667 
C 162.966706 235.466667 188.065214 225.070524 206.567869 206.567869 
C 225.070524 188.065214 235.466667 162.966706 235.466667 136.8 
C 235.466667 110.633294 225.070524 85.534786 206.567869 67.032131 
C 188.065214 48.529476 162.966706 38.133333 136.8 38.133333 
C 110.633294 38.133333 85.534786 48.529476 67.032131 67.032131 
C 48.529476 85.534786 38.133333 110.633294 38.133333 136.8 
C 38.133333 162.966706 48.529476 188.065214 67.032131 206.567869 
C 85.534786 225.070524 110.633294 235.466667 136.8 235.466667 
L 136.8 235.466667 
z
" clip-path="url(#p5dacc66cd5)" style="fill: none; stroke: #000000; stroke-width: 2; stroke-linejoin: miter"/>
   </g>
   <g id="patch_5">
    <path d="M 464.446302 164.4806 
C 471.787283 164.4806 478.828585 161.563998 484.019442 156.37314 
C 489.2103 151.182283 492.126902 144.140981 492.126902 136.8 
C 492.126902 129.459019 489.2103 122.417717 484.019442 117.22686 
C 478.828585 112.036002 471.787283 109.1194 464.446302 109.1194 
C 457.105321 109.1194 450.06402 112.036002 444.873162 117.22686 
C 439.682305 122.417717 436.765702 129.459019 436.765702 136.8 
C 436.765702 144.140981 439.682305 151.182283 444.873162 156.37314 
C 450.06402 161.563998 457.105321 164.4806 464.446302 164.4806 
L 464.446302 164.4806 
z
" clip-path="url(#p5dacc66cd5)" style="fill: none; stroke: #000000; stroke-width: 2; stroke-linejoin: miter"/>
   </g>
   <g id="patch_6">
    <path d="M 136.8 144.693333 
C 138.893336 144.693333 140.901217 143.861642 142.38143 142.38143 
C 143.861642 140.901217 144.693333 138.893336 144.693333 136.8 
C 144.693333 134.706664 143.861642 132.698783 142.38143 131.21857 
C 140.901217 129.738358 138.893336 128.906667 136.8 128.906667 
C 134.706664 128.906667 132.698783 129.738358 131.21857 131.21857 
C 129.738358 132.698783 128.906667 134.706664 128.906667 136.8 
C 128.906667 138.893336 129.738358 140.901217 131.21857 142.38143 
C 132.698783 143.861642 134.706664 144.693333 136.8 144.693333 
L 136.8 144.693333 
z
" clip-path="url(#p5dacc66cd5)" style="fill: none; stroke: #000000; stroke-width: 1.5; stroke-linejoin: miter"/>
   </g>
   <g id="patch_7">
    <path d="M 464.446302 141.782508 
C 465.767679 141.782508 467.035113 141.25752 467.969467 140.323165 
C 468.903822 139.388811 469.42881 138.121377 469.42881 136.8 
C 469.42881 135.478623 468.903822 134.211189 467.969467 133.276835 
C 467.035113 132.34248 465.767679 131.817492 464.446302 131.817492 
C 463.124926 131.817492 461.857491 132.34248 460.923137 133.276835 
C 459.988783 134.211189 459.463794 135.478623 459.463794 136.8 
C 459.463794 138.121377 459.988783 139.388811 460.923137 140.323165 
C 461.857491 141.25752 463.124926 141.782508 464.446302 141.782508 
L 464.446302 141.782508 
z
" clip-path="url(#p5dacc66cd5)" style="fill: none; stroke: #000000; stroke-width: 1.5; stroke-linejoin: miter"/>
   </g>
   <g id="patch_8">
    <path d="M 159.734084 95.511031 
C 161.827421 95.511031 163.835301 94.679339 165.315514 93.199127 
C 166.795726 91.718915 167.627418 89.711034 167.627418 87.617697 
C 167.627418 85.524361 166.795726 83.51648 165.315514 82.036268 
C 163.835301 80.556055 161.827421 79.724364 159.734084 79.724364 
C 157.640748 79.724364 155.632867 80.556055 154.152655 82.036268 
C 152.672442 83.51648 151.840751 85.524361 151.840751 87.617697 
C 151.840751 89.711034 152.672442 91.718915 154.152655 93.199127 
C 155.632867 94.679339 157.640748 95.511031 159.734084 95.511031 
L 159.734084 95.511031 
z
" clip-path="url(#p5dacc66cd5)" style="fill: none; stroke: #000000; stroke-width: 1.5; stroke-linejoin: miter"/>
   </g>
   <g id="patch_9">
    <path d="M 472.384772 151.735788 
C 473.3391 151.735788 474.254469 151.35663 474.92928 150.681818 
C 475.604092 150.007007 475.98325 149.091638 475.98325 148.13731 
C 475.98325 147.182983 475.604092 146.267613 474.92928 145.592802 
C 474.254469 144.91799 473.3391 144.538832 472.384772 144.538832 
C 471.430445 144.538832 470.515076 144.91799 469.840264 145.592802 
C 469.165453 146.267613 468.786294 147.182983 468.786294 148.13731 
C 468.786294 149.091638 469.165453 150.007007 469.840264 150.681818 
C 470.515076 151.35663 471.430445 151.735788 472.384772 151.735788 
L 472.384772 151.735788 
z
" clip-path="url(#p5dacc66cd5)" style="fill: none; stroke: #000000; stroke-width: 1.5; stroke-linejoin: miter"/>
   </g>
   <g id="line2d_1">
    <path d="M 158.176584 40.476832 
L 470.443431 109.77686 
" clip-path="url(#p5dacc66cd5)" style="fill: none; stroke: #000000; stroke-width: 2.2; stroke-linecap: square"/>
   </g>
   <g id="line2d_2">
    <path d="M 158.176584 233.123168 
L 470.443431 163.82314 
" clip-path="url(#p5dacc66cd5)" style="fill: none; stroke: #000000; stroke-width: 2.2; stroke-linecap: square"/>
   </g>
   <g id="line2d_3">
    <path d="M 136.8 136.8 
" clip-path="url(#p5dacc66cd5)" style="fill: none; stroke: #000000; stroke-width: 1.5; stroke-linecap: square"/>
    <defs>
     <path id="m75e90166d9" d="M -4 0 
L 4 0 
M 0 4 
L 0 -4 
" style="stroke: #000000; stroke-width: 1.5"/>
    </defs>
    <g clip-path="url(#p5dacc66cd5)">
     <use xlink:href="#m75e90166d9" x="136.8" y="136.8" style="stroke: #000000; stroke-width: 1.5"/>
    </g>
   </g>
   <g id="line2d_4">
    <path d="M 464.446302 136.8 
" clip-path="url(#p5dacc66cd5)" style="fill: none; stroke: #000000; stroke-width: 1.5; stroke-linecap: square"/>
    <defs>
     <path id="mb19a7e3002" d="M -3.5 0 
L 3.5 0 
M 0 3.5 
L 0 -3.5 
" style="stroke: #000000; stroke-width: 1.5"/>
    </defs>
    <g clip-path="url(#p5dacc66cd5)">
     <use xlink:href="#mb19a7e3002" x="464.446302" y="136.8" style="stroke: #000000; stroke-width: 1.5"/>
    </g>
   </g>
  </g>
 </g>
 <defs>
  <clipPath id="p5dacc66cd5">
   <rect x="3.6" y="3.6" width="523.060236" height="266.4"/>
  </clipPath>
 </defs>
</svg>
