<?xml version="1.0" encoding="utf-8" standalone="no"?>
<!DOCTYPE svg PUBLIC "-//W3C//DTD SVG 1.1//EN"
  "http://www.w3.org/Graphics/SVG/1.1/DTD/svg11.dtd">
<svg xmlns:xlink="http://www.w3.org/1999/xlink" width="555.085714pt" height="345.6pt" viewBox="0 0 555.085714 345.6" xmlns="http://www.w3.org/2000/svg" version="1.1">
 <metadata>
  <rdf:RDF xmlns:dc="http://purl.org/dc/elements/1.1/" xmlns:cc="http://creativecommons.org/ns#" xmlns:rdf="http://www.w3.org/1999/02/22-rdf-syntax-ns#">
   <cc:Work>
    <dc:type rdf:resource="http://purl.org/dc/dcmitype/StillImage"/>
    <dc:date>2026-07-14T08:54:54.100822</dc:date>
    <dc:format>image/svg+xml</dc:format>
    <dc:creator>
     <cc:Agent>
      <dc:title>Matplotlib v3.10.0, https://matplotlib.org/</dc:title>
     </cc:Agent>
    </dc:creator>
   </cc:Work>
  </rdf:RDF>
 </metadata>
 <defs>
  <style type="text/css">*{stroke-linejoin: round; stroke-linecap: butt}</style>
 </defs>
 <g id="figure_1">
  <g id="patch_1">
   <path d="M 0 345.6 
L 555.085714 345.6 
L 555.085714 0 
L 0 0 
z
" style="fill: #ffffff"/>
  </g>
  <g id="axes_1">
   <g id="line2d_1">
    <path d="M 35.828571 172.8 
L 527.314286 172.8 
" clip-path="url(#pad8d640285)" style="fill: none; stroke-dasharray: 3.7,1.6; stroke-dashoffset: 0; stroke: #000000"/>
   </g>
   <g id="line2d_2">
    <path d="M 148.628571 172.8 
L 188.914286 103.023096 
" clip-path="url(#pad8d640285)" style="fill: none; stroke: #000000; stroke-width: 5; stroke-linecap: round"/>
   </g>
   <g id="line2d_3">
    <path d="M 188.914286 103.023096 
L 420.338095 172.8 
" clip-path="url(#pad8d640285)" style="fill: none; stroke: #000000; stroke-width: 5; stroke-linecap: round"/>
   </g>
   <g id="text_1">
    <!-- $\theta$ -->
    <g transform="translate(191.736866 149.268839) scale(0.14 -0.14)">
     <defs>
      <path id="DejaVuSans-Oblique-3b8" d="M 2913 2219 
L 925 2219 
Q 791 1284 928 888 
Q 1100 400 1566 400 
Q 2034 400 2391 891 
Q 2703 1322 2913 2219 
z
M 3009 2750 
Q 3094 3638 2984 3950 
Q 2813 4444 2353 4444 
Q 1875 4444 1525 3956 
Q 1250 3563 1034 2750 
L 3009 2750 
z
M 2444 4913 
Q 3194 4913 3494 4250 
Q 3794 3591 3566 2422 
Q 3341 1256 2781 594 
Q 2225 -72 1475 -72 
Q 722 -72 425 594 
Q 128 1256 353 2422 
Q 581 3591 1134 4250 
Q 1691 4913 2444 4913 
z
" transform="scale(0.015625)"/>
     </defs>
     <use xlink:href="#DejaVuSans-Oblique-3b8" transform="translate(0 0.234375)"/>
    </g>
   </g>
   <g id="text_2">
    <!-- $\phi$ -->
    <g transform="translate(361.515787 168.656416) scale(0.14 -0.14)">
     <defs>
      <path id="DejaVuSans-Oblique-3d5" d="M 2991 4863 
L 2738 3572 
Q 3363 3572 3684 3094 
Q 4016 2606 3850 1747 
Q 3681 888 3159 400 
Q 2653 -78 2028 -78 
L 1784 -1331 
L 1213 -1331 
L 1456 -78 
Q 834 -78 509 400 
Q 178 888 347 1747 
Q 513 2606 1034 3094 
Q 1544 3572 2166 3572 
L 2419 4863 
L 2991 4863 
z
M 2128 434 
Q 2481 434 2784 756 
Q 3116 1116 3244 1747 
Q 3369 2372 3169 2738 
Q 2991 3059 2638 3059 
L 2128 434 
z
M 1556 434 
L 2066 3059 
Q 1716 3059 1413 2738 
Q 1072 2372 953 1747 
Q 834 1116 1028 756 
Q 1203 434 1556 434 
z
" transform="scale(0.015625)"/>
     </defs>
     <use xlink:href="#DejaVuSans-Oblique-3d5" transform="translate(0 0.015625)"/>
    </g>
   </g>
   <g id="text_3">
    <!-- $\theta=60.0^\circ$ -->
    <g transform="translate(19.714286 42.437812) scale(0.14 -0.14)">
     <defs>
      <path id="DejaVuSans-3d" d="M 678 2906 
L 4684 2906 
L 4684 2381 
L 678 2381 
L 678 2906 
z
M 678 1631 
L 4684 1631 
L 4684 1100 
L 678 1100 
L 678 1631 
z
" transform="scale(0.015625)"/>
      <path id="DejaVuSans-36" d="M 2113 2584 
Q 1688 2584 1439 2293 
Q 1191 2003 1191 1497 
Q 1191 994 1439 701 
Q 1688 409 2113 409 
Q 2538 409 2786 701 
Q 3034 994 3034 1497 
Q 3034 2003 2786 2293 
Q 2538 2584 2113 2584 
z
M 3366 4563 
L 3366 3988 
Q 3128 4100 2886 4159 
Q 2644 4219 2406 4219 
Q 1781 4219 1451 3797 
Q 1122 3375 1075 2522 
Q 1259 2794 1537 2939 
Q 1816 3084 2150 3084 
Q 2853 3084 3261 2657 
Q 3669 2231 3669 1497 
Q 3669 778 3244 343 
Q 2819 -91 2113 -91 
Q 1303 -91 875 529 
Q 447 1150 447 2328 
Q 447 3434 972 4092 
Q 1497 4750 2381 4750 
Q 2619 4750 2861 4703 
Q 3103 4656 3366 4563 
z
" transform="scale(0.015625)"/>
      <path id="DejaVuSans-30" d="M 2034 4250 
Q 1547 4250 1301 3770 
Q 1056 3291 1056 2328 
Q 1056 1369 1301 889 
Q 1547 409 2034 409 
Q 2525 409 2770 889 
Q 3016 1369 3016 2328 
Q 3016 3291 2770 3770 
Q 2525 4250 2034 4250 
z
M 2034 4750 
Q 2819 4750 3233 4129 
Q 3647 3509 3647 2328 
Q 3647 1150 3233 529 
Q 2819 -91 2034 -91 
Q 1250 -91 836 529 
Q 422 1150 422 2328 
Q 422 3509 836 4129 
Q 1250 4750 2034 4750 
z
" transform="scale(0.015625)"/>
      <path id="DejaVuSans-2e" d="M 684 794 
L 1344 794 
L 1344 0 
L 684 0 
L 684 794 
z
" transform="scale(0.015625)"/>
      <path id="DejaVuSans-2218" d="M 2000 2619 
Q 1750 2619 1578 2445 
Q 1406 2272 1406 2022 
Q 1406 1775 1578 1605 
Q 1750 1435 2000 1435 
Q 2250 1435 2422 1605 
Q 2594 1775 2594 2022 
Q 2594 2269 2420 2444 
Q 2247 2619 2000 2619 
z
M 2000 3022 
Q 2200 3022 2384 2945 
Q 2569 2869 2703 2725 
Q 2847 2585 2919 2406 
Q 2991 2228 2991 2022 
Q 2991 1610 2702 1324 
Q 2413 1038 1994 1038 
Q 1572 1038 1290 1319 
Q 1009 1600 1009 2022 
Q 1009 2441 1296 2731 
Q 1584 3022 2000 3022 
z
" transform="scale(0.015625)"/>
     </defs>
     <use xlink:href="#DejaVuSans-Oblique-3b8" transform="translate(0 0.234375)"/>
     <use xlink:href="#DejaVuSans-3d" transform="translate(80.664062 0.234375)"/>
     <use xlink:href="#DejaVuSans-36" transform="translate(183.935547 0.234375)"/>
     <use xlink:href="#DejaVuSans-30" transform="translate(247.558594 0.234375)"/>
     <use xlink:href="#DejaVuSans-2e" transform="translate(311.181641 0.234375)"/>
     <use xlink:href="#DejaVuSans-30" transform="translate(342.96875 0.234375)"/>
     <use xlink:href="#DejaVuSans-2218" transform="translate(421.186523 38.515625) scale(0.7)"/>
    </g>
    <!-- $\phi=16.8^\circ$ -->
    <g transform="translate(19.714286 58.117375) scale(0.14 -0.14)">
     <defs>
      <path id="DejaVuSans-31" d="M 794 531 
L 1825 531 
L 1825 4091 
L 703 3866 
L 703 4441 
L 1819 4666 
L 2450 4666 
L 2450 531 
L 3481 531 
L 3481 0 
L 794 0 
L 794 531 
z
" transform="scale(0.015625)"/>
      <path id="DejaVuSans-38" d="M 2034 2216 
Q 1584 2216 1326 1975 
Q 1069 1734 1069 1313 
Q 1069 891 1326 650 
Q 1584 409 2034 409 
Q 2484 409 2743 651 
Q 3003 894 3003 1313 
Q 3003 1734 2745 1975 
Q 2488 2216 2034 2216 
z
M 1403 2484 
Q 997 2584 770 2862 
Q 544 3141 544 3541 
Q 544 4100 942 4425 
Q 1341 4750 2034 4750 
Q 2731 4750 3128 4425 
Q 3525 4100 3525 3541 
Q 3525 3141 3298 2862 
Q 3072 2584 2669 2484 
Q 3125 2378 3379 2068 
Q 3634 1759 3634 1313 
Q 3634 634 3220 271 
Q 2806 -91 2034 -91 
Q 1263 -91 848 271 
Q 434 634 434 1313 
Q 434 1759 690 2068 
Q 947 2378 1403 2484 
z
M 1172 3481 
Q 1172 3119 1398 2916 
Q 1625 2713 2034 2713 
Q 2441 2713 2670 2916 
Q 2900 3119 2900 3481 
Q 2900 3844 2670 4047 
Q 2441 4250 2034 4250 
Q 1625 4250 1398 4047 
Q 1172 3844 1172 3481 
z
" transform="scale(0.015625)"/>
     </defs>
     <use xlink:href="#DejaVuSans-Oblique-3d5" transform="translate(0 0.015625)"/>
     <use xlink:href="#DejaVuSans-3d" transform="translate(85.449219 0.015625)"/>
     <use xlink:href="#DejaVuSans-31" transform="translate(188.720703 0.015625)"/>
     <use xlink:href="#DejaVuSans-36" transform="translate(252.34375 0.015625)"/>
     <use xlink:href="#DejaVuSans-2e" transform="translate(315.966797 0.015625)"/>
     <use xlink:href="#DejaVuSans-38" transform="translate(347.753906 0.015625)"/>
     <use xlink:href="#DejaVuSans-2218" transform="translate(425.97168 38.296875) scale(0.7)"/>
    </g>
   </g>
   <g id="patch_2">
    <path d="M 400.195238 188.914286 
L 440.480952 188.914286 
L 440.480952 156.685714 
L 400.195238 156.685714 
z
" clip-path="url(#pad8d640285)" style="fill: #ffffff; stroke: #000000; stroke-width: 2; stroke-linejoin: miter"/>
   </g>
   <g id="patch_3">
    <path d="M 148.628571 180.857143 
C 150.765351 180.857143 152.814901 180.008191 154.325832 178.49726 
C 155.836763 176.986329 156.685714 174.936779 156.685714 172.8 
C 156.685714 170.663221 155.836763 168.613671 154.325832 167.10274 
C 152.814901 165.591809 150.765351 164.742857 148.628571 164.742857 
C 146.491792 164.742857 144.442242 165.591809 142.931311 167.10274 
C 141.42038 168.613671 140.571429 170.663221 140.571429 172.8 
C 140.571429 174.936779 141.42038 176.986329 142.931311 178.49726 
C 144.442242 180.008191 146.491792 180.857143 148.628571 180.857143 
z
" clip-path="url(#pad8d640285)" style="fill: #ffffff; stroke: #000000; stroke-width: 2; stroke-linejoin: miter"/>
   </g>
   <g id="patch_4">
    <path d="M 188.914286 111.080239 
C 191.051065 111.080239 193.100615 110.231287 194.611546 108.720356 
C 196.122477 107.209425 196.971429 105.159875 196.971429 103.023096 
C 196.971429 100.886317 196.122477 98.836767 194.611546 97.325836 
C 193.100615 95.814905 191.051065 94.965953 188.914286 94.965953 
C 186.777506 94.965953 184.727956 95.814905 183.217025 97.325836 
C 181.706094 98.836767 180.857143 100.886317 180.857143 103.023096 
C 180.857143 105.159875 181.706094 107.209425 183.217025 108.720356 
C 184.727956 110.231287 186.777506 111.080239 188.914286 111.080239 
z
" clip-path="url(#pad8d640285)" style="fill: #ffffff; stroke: #000000; stroke-width: 2; stroke-linejoin: miter"/>
   </g>
   <g id="patch_5">
    <path d="M 420.338095 180.857143 
C 422.474874 180.857143 424.524424 180.008191 426.035356 178.49726 
C 427.546287 176.986329 428.395238 174.936779 428.395238 172.8 
C 428.395238 170.663221 427.546287 168.613671 426.035356 167.10274 
C 424.524424 165.591809 422.474874 164.742857 420.338095 164.742857 
C 418.201316 164.742857 416.151766 165.591809 414.640835 167.10274 
C 413.129904 168.613671 412.280952 170.663221 412.280952 172.8 
C 412.280952 174.936779 413.129904 176.986329 414.640835 178.49726 
C 416.151766 180.008191 418.201316 180.857143 420.338095 180.857143 
z
" clip-path="url(#pad8d640285)" style="fill: #ffffff; stroke: #000000; stroke-width: 2; stroke-linejoin: miter"/>
   </g>
   <g id="patch_6">
    <path d="M 188.914286 172.8 
C 188.914286 165.728907 187.05257 158.780889 183.517023 152.657143 
C 179.981477 146.533396 174.895175 141.447095 168.771429 137.911548 
" clip-path="url(#pad8d640285)" style="fill: none; stroke: #000000; stroke-width: 1.5; stroke-linejoin: miter"/>
   </g>
   <g id="patch_7">
    <path d="M 381.76746 161.170516 
C 381.199605 163.053878 380.770456 164.976306 380.483457 166.922365 
C 380.196459 168.868423 380.052381 170.832892 380.052381 172.8 
" clip-path="url(#pad8d640285)" style="fill: none; stroke: #000000; stroke-width: 1.5; stroke-linejoin: miter"/>
   </g>
  </g>
 </g>
 <defs>
  <clipPath id="pad8d640285">
   <rect x="3.6" y="3.6" width="547.885714" height="338.4"/>
  </clipPath>
 </defs>
</svg>
