<?xml version="1.0" encoding="utf-8" standalone="no"?>
<!DOCTYPE svg PUBLIC "-//W3C//DTD SVG 1.1//EN"
  "http://www.w3.org/Graphics/SVG/1.1/DTD/svg11.dtd">
<svg xmlns:xlink="http://www.w3.org/1999/xlink" width="656.28284pt" height="344.723077pt" viewBox="0 0 656.28284 344.723077" xmlns="http://www.w3.org/2000/svg" version="1.1">
 <metadata>
  <rdf:RDF xmlns:dc="http://purl.org/dc/elements/1.1/" xmlns:cc="http://creativecommons.org/ns#" xmlns:rdf="http://www.w3.org/1999/02/22-rdf-syntax-ns#">
   <cc:Work>
    <dc:type rdf:resource="http://purl.org/dc/dcmitype/StillImage"/>
    <dc:date>2026-07-14T09:37:02.351377</dc:date>
    <dc:format>image/svg+xml</dc:format>
    <dc:creator>
     <cc:Agent>
      <dc:title>Matplotlib v3.10.0, https://matplotlib.org/</dc:title>
     </cc:Agent>
    </dc:creator>
   </cc:Work>
  </rdf:RDF>
 </metadata>
 <defs>
  <style type="text/css">*{stroke-linejoin: round; stroke-linecap: butt}</style>
 </defs>
 <g id="figure_1">
  <g id="patch_1">
   <path d="M 0 344.723077 
L 656.28284 344.723077 
L 656.28284 0 
L 0 0 
z
" style="fill: #ffffff"/>
  </g>
  <g id="axes_1">
   <g id="patch_2">
    <path d="M 57.859102 209.664671 
L 57.07916 210.903158 
L 56.401403 212.200389 
L 55.830229 213.547949 
L 55.36934 214.937101 
L 55.021725 216.358834 
L 54.78964 217.803928 
L 54.67459 219.263011 
L 54.677319 220.726621 
L 54.797812 222.185265 
L 55.035286 223.629483 
L 55.388201 225.049909 
L 55.854268 226.437332 
L 56.430466 227.782753 
L 57.113056 229.077446 
L 57.897613 230.313015 
L 58.779047 231.481448 
L 59.751643 232.575165 
L 60.809093 233.587074 
L 61.944539 234.510613 
L 63.150616 235.339791 
L 64.419504 236.069232 
L 65.742973 236.694204 
L 67.11244 237.210655 
L 68.519023 237.615235 
L 69.9536 237.90532 
L 71.406867 238.079029 
L 72.8694 238.135235 
L 74.331712 238.073573 
L 75.784321 237.894445 
L 77.217806 237.599011 
L 78.62287 237.189187 
L 79.990401 236.667632 
L 81.31153 236.037727 
L 82.577688 235.303558 
L 83.780664 234.469887 
L 84.912657 233.542119 
L 85.966325 232.526272 
L 86.934834 231.428935 
L 87.811904 230.257223 
L 183.010721 91.786217 
L 183.790663 90.547729 
L 184.468419 89.250499 
L 185.039594 87.902938 
L 185.500483 86.513787 
L 185.848097 85.092054 
L 186.080182 83.64696 
L 186.195233 82.187876 
L 186.192503 80.724267 
L 186.072011 79.265623 
L 185.834537 77.821405 
L 185.481622 76.400978 
L 185.015554 75.013556 
L 184.439357 73.668135 
L 183.756766 72.373441 
L 182.97221 71.137872 
L 182.090775 69.96944 
L 181.118179 68.875723 
L 180.06073 67.863813 
L 178.925284 66.940275 
L 177.719206 66.111096 
L 176.450318 65.381656 
L 175.126849 64.756683 
L 173.757383 64.240232 
L 172.3508 63.835653 
L 170.916223 63.545568 
L 169.462955 63.371859 
L 168.000423 63.315653 
L 166.53811 63.377314 
L 165.085501 63.556443 
L 163.652016 63.851877 
L 162.246952 64.2617 
L 160.879421 64.783256 
L 159.558293 65.413161 
L 158.292135 66.147329 
L 157.089158 66.981001 
L 155.957165 67.908769 
L 154.903498 68.924615 
L 153.934988 70.021953 
L 153.057918 71.193665 
z
" clip-path="url(#pe20f83ae14)" style="fill: #b8b8b8; stroke: #000000; stroke-width: 1.5; stroke-linejoin: miter"/>
   </g>
   <g id="patch_3">
    <path d="M 216.933025 46.899624 
L 215.524201 46.502916 
L 214.088025 46.220857 
L 212.633809 46.055278 
L 211.170985 46.007251 
L 209.70904 46.077088 
L 208.257455 46.264337 
L 206.825644 46.567782 
L 205.422894 46.985456 
L 204.058301 47.514651 
L 202.740716 48.151933 
L 201.478683 48.89317 
L 200.280387 49.733556 
L 199.1536 50.667639 
L 198.105629 51.689362 
L 197.143271 52.792098 
L 196.272767 53.968696 
L 195.499762 55.211525 
L 194.82927 56.512525 
L 194.26564 57.863259 
L 193.812526 59.254966 
L 193.472867 60.678621 
L 193.248867 62.12499 
L 193.141977 63.584694 
L 193.152891 65.048265 
L 193.281538 66.506212 
L 193.527084 67.94908 
L 193.887936 69.367511 
L 194.361755 70.752306 
L 194.945467 72.094483 
L 195.635286 73.38534 
L 196.426739 74.616502 
L 197.314694 75.779987 
L 198.29339 76.868249 
L 199.356482 77.874229 
L 200.497074 78.791404 
L 201.70777 79.613826 
L 202.980717 80.33616 
L 204.30766 80.953722 
L 205.679993 81.462506 
L 577.820822 202.624636 
L 579.229645 203.021345 
L 580.665822 203.303403 
L 582.120037 203.468983 
L 583.582861 203.517009 
L 585.044806 203.447172 
L 586.496391 203.259924 
L 587.928202 202.956478 
L 589.330952 202.538804 
L 590.695545 202.00961 
L 592.01313 201.372327 
L 593.275164 200.63109 
L 594.473459 199.790704 
L 595.600247 198.856621 
L 596.648217 197.834899 
L 597.610576 196.732162 
L 598.48108 195.555564 
L 599.254084 194.312735 
L 599.924576 193.011735 
L 600.488206 191.661001 
L 600.94132 190.269294 
L 601.280979 188.84564 
L 601.50498 187.399271 
L 601.61187 185.939567 
L 601.600956 184.475995 
L 601.472308 183.018048 
L 601.226762 181.57518 
L 600.86591 180.156749 
L 600.392091 178.771955 
L 599.808379 177.429777 
L 599.11856 176.138921 
L 598.327107 174.907758 
L 597.439152 173.744273 
L 596.460456 172.656011 
L 595.397364 171.650031 
L 594.256772 170.732856 
L 593.046076 169.910435 
L 591.773129 169.188101 
L 590.446186 168.570539 
L 589.073853 168.061754 
z
" clip-path="url(#pe20f83ae14)" style="fill: #8c8c8c; stroke: #000000; stroke-width: 1.5; stroke-linejoin: miter"/>
   </g>
   <g id="line2d_1">
    <path d="M 72.835503 230.346272 
L 72.835503 276.214793 
" clip-path="url(#pe20f83ae14)" style="fill: none; stroke-dasharray: 1,1.65; stroke-dashoffset: 0; stroke: #000000"/>
   </g>
   <g id="line2d_2">
    <path d="M 168.03432 91.875266 
L 193.997633 146.398225 
" clip-path="url(#pe20f83ae14)" style="fill: none; stroke-dasharray: 1,1.65; stroke-dashoffset: 0; stroke: #000000"/>
   </g>
   <g id="line2d_3">
    <path d="M 583.447337 195.728521 
L 583.447337 254.578698 
" clip-path="url(#pe20f83ae14)" style="fill: none; stroke-dasharray: 1,1.65; stroke-dashoffset: 0; stroke: #000000"/>
   </g>
   <g id="text_1">
    <!-- ① Crank -->
    <g transform="translate(39.462659 51.199408) scale(0.14 -0.14)">
     <defs>
      <path id="DejaVuSans-2460" d="M 5263 2331 
Q 5263 1334 4561 635 
Q 3859 -63 2866 -63 
Q 1878 -63 1176 635 
Q 475 1334 475 2331 
Q 475 2950 797 3528 
Q 1119 4106 1695 4415 
Q 2272 4725 2866 4725 
Q 3469 4725 4045 4415 
Q 4622 4106 4942 3531 
Q 5263 2956 5263 2331 
z
M 734 2331 
Q 734 1444 1357 819 
Q 1981 194 2869 194 
Q 3756 194 4379 819 
Q 5003 1444 5003 2331 
Q 5003 2891 4718 3402 
Q 4434 3913 3921 4189 
Q 3409 4466 2869 4466 
Q 2328 4466 1815 4189 
Q 1303 3913 1018 3402 
Q 734 2891 734 2331 
z
M 1922 1288 
L 2600 1288 
L 2600 3281 
L 1863 3147 
L 1863 3622 
L 2666 3769 
L 3169 3769 
L 3169 1288 
L 3850 1288 
L 3850 844 
L 1922 844 
L 1922 1288 
z
" transform="scale(0.015625)"/>
      <path id="DejaVuSans-20" transform="scale(0.015625)"/>
      <path id="DejaVuSans-43" d="M 4122 4306 
L 4122 3641 
Q 3803 3938 3442 4084 
Q 3081 4231 2675 4231 
Q 1875 4231 1450 3742 
Q 1025 3253 1025 2328 
Q 1025 1406 1450 917 
Q 1875 428 2675 428 
Q 3081 428 3442 575 
Q 3803 722 4122 1019 
L 4122 359 
Q 3791 134 3420 21 
Q 3050 -91 2638 -91 
Q 1578 -91 968 557 
Q 359 1206 359 2328 
Q 359 3453 968 4101 
Q 1578 4750 2638 4750 
Q 3056 4750 3426 4639 
Q 3797 4528 4122 4306 
z
" transform="scale(0.015625)"/>
      <path id="DejaVuSans-72" d="M 2631 2963 
Q 2534 3019 2420 3045 
Q 2306 3072 2169 3072 
Q 1681 3072 1420 2755 
Q 1159 2438 1159 1844 
L 1159 0 
L 581 0 
L 581 3500 
L 1159 3500 
L 1159 2956 
Q 1341 3275 1631 3429 
Q 1922 3584 2338 3584 
Q 2397 3584 2469 3576 
Q 2541 3569 2628 3553 
L 2631 2963 
z
" transform="scale(0.015625)"/>
      <path id="DejaVuSans-61" d="M 2194 1759 
Q 1497 1759 1228 1600 
Q 959 1441 959 1056 
Q 959 750 1161 570 
Q 1363 391 1709 391 
Q 2188 391 2477 730 
Q 2766 1069 2766 1631 
L 2766 1759 
L 2194 1759 
z
M 3341 1997 
L 3341 0 
L 2766 0 
L 2766 531 
Q 2569 213 2275 61 
Q 1981 -91 1556 -91 
Q 1019 -91 701 211 
Q 384 513 384 1019 
Q 384 1609 779 1909 
Q 1175 2209 1959 2209 
L 2766 2209 
L 2766 2266 
Q 2766 2663 2505 2880 
Q 2244 3097 1772 3097 
Q 1472 3097 1187 3025 
Q 903 2953 641 2809 
L 641 3341 
Q 956 3463 1253 3523 
Q 1550 3584 1831 3584 
Q 2591 3584 2966 3190 
Q 3341 2797 3341 1997 
z
" transform="scale(0.015625)"/>
      <path id="DejaVuSans-6e" d="M 3513 2113 
L 3513 0 
L 2938 0 
L 2938 2094 
Q 2938 2591 2744 2837 
Q 2550 3084 2163 3084 
Q 1697 3084 1428 2787 
Q 1159 2491 1159 1978 
L 1159 0 
L 581 0 
L 581 3500 
L 1159 3500 
L 1159 2956 
Q 1366 3272 1645 3428 
Q 1925 3584 2291 3584 
Q 2894 3584 3203 3211 
Q 3513 2838 3513 2113 
z
" transform="scale(0.015625)"/>
      <path id="DejaVuSans-6b" d="M 581 4863 
L 1159 4863 
L 1159 1991 
L 2875 3500 
L 3609 3500 
L 1753 1863 
L 3688 0 
L 2938 0 
L 1159 1709 
L 1159 0 
L 581 0 
L 581 4863 
z
" transform="scale(0.015625)"/>
     </defs>
     <use xlink:href="#DejaVuSans-2460"/>
     <use xlink:href="#DejaVuSans-20" transform="translate(89.648438 0)"/>
     <use xlink:href="#DejaVuSans-43" transform="translate(121.435547 0)"/>
     <use xlink:href="#DejaVuSans-72" transform="translate(191.259766 0)"/>
     <use xlink:href="#DejaVuSans-61" transform="translate(232.373047 0)"/>
     <use xlink:href="#DejaVuSans-6e" transform="translate(293.652344 0)"/>
     <use xlink:href="#DejaVuSans-6b" transform="translate(357.03125 0)"/>
    </g>
   </g>
   <g id="text_2">
    <!-- ② Connecting rod -->
    <g transform="translate(365.726206 33.890533) scale(0.14 -0.14)">
     <defs>
      <path id="DejaVuSans-2461" d="M 5263 2331 
Q 5263 1334 4561 635 
Q 3859 -63 2866 -63 
Q 1878 -63 1176 635 
Q 475 1334 475 2331 
Q 475 2950 797 3528 
Q 1119 4106 1695 4415 
Q 2272 4725 2866 4725 
Q 3469 4725 4045 4415 
Q 4622 4106 4942 3531 
Q 5263 2956 5263 2331 
z
M 734 2331 
Q 734 1444 1357 819 
Q 1981 194 2869 194 
Q 3756 194 4379 819 
Q 5003 1444 5003 2331 
Q 5003 2891 4718 3402 
Q 4434 3913 3921 4189 
Q 3409 4466 2869 4466 
Q 2328 4466 1815 4189 
Q 1303 3913 1018 3402 
Q 734 2891 734 2331 
z
M 2581 1288 
L 3944 1288 
L 3944 844 
L 1831 844 
L 1831 1247 
Q 2088 1488 2497 1864 
Q 2906 2241 3009 2347 
Q 3203 2544 3276 2676 
Q 3350 2809 3350 2934 
Q 3350 3131 3201 3253 
Q 3053 3375 2809 3375 
Q 2625 3375 2419 3315 
Q 2213 3256 1853 3075 
L 1853 3609 
Q 2156 3722 2382 3770 
Q 2609 3819 2800 3819 
Q 3309 3819 3617 3583 
Q 3925 3347 3925 2956 
Q 3925 2775 3850 2611 
Q 3775 2447 3581 2228 
Q 3528 2172 3250 1911 
Q 2972 1650 2581 1288 
z
" transform="scale(0.015625)"/>
      <path id="DejaVuSans-6f" d="M 1959 3097 
Q 1497 3097 1228 2736 
Q 959 2375 959 1747 
Q 959 1119 1226 758 
Q 1494 397 1959 397 
Q 2419 397 2687 759 
Q 2956 1122 2956 1747 
Q 2956 2369 2687 2733 
Q 2419 3097 1959 3097 
z
M 1959 3584 
Q 2709 3584 3137 3096 
Q 3566 2609 3566 1747 
Q 3566 888 3137 398 
Q 2709 -91 1959 -91 
Q 1206 -91 779 398 
Q 353 888 353 1747 
Q 353 2609 779 3096 
Q 1206 3584 1959 3584 
z
" transform="scale(0.015625)"/>
      <path id="DejaVuSans-65" d="M 3597 1894 
L 3597 1613 
L 953 1613 
Q 991 1019 1311 708 
Q 1631 397 2203 397 
Q 2534 397 2845 478 
Q 3156 559 3463 722 
L 3463 178 
Q 3153 47 2828 -22 
Q 2503 -91 2169 -91 
Q 1331 -91 842 396 
Q 353 884 353 1716 
Q 353 2575 817 3079 
Q 1281 3584 2069 3584 
Q 2775 3584 3186 3129 
Q 3597 2675 3597 1894 
z
M 3022 2063 
Q 3016 2534 2758 2815 
Q 2500 3097 2075 3097 
Q 1594 3097 1305 2825 
Q 1016 2553 972 2059 
L 3022 2063 
z
" transform="scale(0.015625)"/>
      <path id="DejaVuSans-63" d="M 3122 3366 
L 3122 2828 
Q 2878 2963 2633 3030 
Q 2388 3097 2138 3097 
Q 1578 3097 1268 2742 
Q 959 2388 959 1747 
Q 959 1106 1268 751 
Q 1578 397 2138 397 
Q 2388 397 2633 464 
Q 2878 531 3122 666 
L 3122 134 
Q 2881 22 2623 -34 
Q 2366 -91 2075 -91 
Q 1284 -91 818 406 
Q 353 903 353 1747 
Q 353 2603 823 3093 
Q 1294 3584 2113 3584 
Q 2378 3584 2631 3529 
Q 2884 3475 3122 3366 
z
" transform="scale(0.015625)"/>
      <path id="DejaVuSans-74" d="M 1172 4494 
L 1172 3500 
L 2356 3500 
L 2356 3053 
L 1172 3053 
L 1172 1153 
Q 1172 725 1289 603 
Q 1406 481 1766 481 
L 2356 481 
L 2356 0 
L 1766 0 
Q 1100 0 847 248 
Q 594 497 594 1153 
L 594 3053 
L 172 3053 
L 172 3500 
L 594 3500 
L 594 4494 
L 1172 4494 
z
" transform="scale(0.015625)"/>
      <path id="DejaVuSans-69" d="M 603 3500 
L 1178 3500 
L 1178 0 
L 603 0 
L 603 3500 
z
M 603 4863 
L 1178 4863 
L 1178 4134 
L 603 4134 
L 603 4863 
z
" transform="scale(0.015625)"/>
      <path id="DejaVuSans-67" d="M 2906 1791 
Q 2906 2416 2648 2759 
Q 2391 3103 1925 3103 
Q 1463 3103 1205 2759 
Q 947 2416 947 1791 
Q 947 1169 1205 825 
Q 1463 481 1925 481 
Q 2391 481 2648 825 
Q 2906 1169 2906 1791 
z
M 3481 434 
Q 3481 -459 3084 -895 
Q 2688 -1331 1869 -1331 
Q 1566 -1331 1297 -1286 
Q 1028 -1241 775 -1147 
L 775 -588 
Q 1028 -725 1275 -790 
Q 1522 -856 1778 -856 
Q 2344 -856 2625 -561 
Q 2906 -266 2906 331 
L 2906 616 
Q 2728 306 2450 153 
Q 2172 0 1784 0 
Q 1141 0 747 490 
Q 353 981 353 1791 
Q 353 2603 747 3093 
Q 1141 3584 1784 3584 
Q 2172 3584 2450 3431 
Q 2728 3278 2906 2969 
L 2906 3500 
L 3481 3500 
L 3481 434 
z
" transform="scale(0.015625)"/>
      <path id="DejaVuSans-64" d="M 2906 2969 
L 2906 4863 
L 3481 4863 
L 3481 0 
L 2906 0 
L 2906 525 
Q 2725 213 2448 61 
Q 2172 -91 1784 -91 
Q 1150 -91 751 415 
Q 353 922 353 1747 
Q 353 2572 751 3078 
Q 1150 3584 1784 3584 
Q 2172 3584 2448 3432 
Q 2725 3281 2906 2969 
z
M 947 1747 
Q 947 1113 1208 752 
Q 1469 391 1925 391 
Q 2381 391 2643 752 
Q 2906 1113 2906 1747 
Q 2906 2381 2643 2742 
Q 2381 3103 1925 3103 
Q 1469 3103 1208 2742 
Q 947 2381 947 1747 
z
" transform="scale(0.015625)"/>
     </defs>
     <use xlink:href="#DejaVuSans-2461"/>
     <use xlink:href="#DejaVuSans-20" transform="translate(89.648438 0)"/>
     <use xlink:href="#DejaVuSans-43" transform="translate(121.435547 0)"/>
     <use xlink:href="#DejaVuSans-6f" transform="translate(191.259766 0)"/>
     <use xlink:href="#DejaVuSans-6e" transform="translate(252.441406 0)"/>
     <use xlink:href="#DejaVuSans-6e" transform="translate(315.820312 0)"/>
     <use xlink:href="#DejaVuSans-65" transform="translate(379.199219 0)"/>
     <use xlink:href="#DejaVuSans-63" transform="translate(440.722656 0)"/>
     <use xlink:href="#DejaVuSans-74" transform="translate(495.703125 0)"/>
     <use xlink:href="#DejaVuSans-69" transform="translate(534.912109 0)"/>
     <use xlink:href="#DejaVuSans-6e" transform="translate(562.695312 0)"/>
     <use xlink:href="#DejaVuSans-67" transform="translate(626.074219 0)"/>
     <use xlink:href="#DejaVuSans-20" transform="translate(689.550781 0)"/>
     <use xlink:href="#DejaVuSans-72" transform="translate(721.337891 0)"/>
     <use xlink:href="#DejaVuSans-6f" transform="translate(760.201172 0)"/>
     <use xlink:href="#DejaVuSans-64" transform="translate(821.382812 0)"/>
    </g>
   </g>
   <g id="text_3">
    <!-- ③ Fixed pin -->
    <g transform="translate(38.81644 335.528658) scale(0.12 -0.12)">
     <defs>
      <path id="DejaVuSans-2462" d="M 5263 2331 
Q 5263 1334 4561 635 
Q 3859 -63 2866 -63 
Q 1878 -63 1176 635 
Q 475 1334 475 2331 
Q 475 2950 797 3528 
Q 1119 4106 1695 4415 
Q 2272 4725 2866 4725 
Q 3469 4725 4045 4415 
Q 4622 4106 4942 3531 
Q 5263 2956 5263 2331 
z
M 734 2331 
Q 734 1444 1357 819 
Q 1981 194 2869 194 
Q 3756 194 4379 819 
Q 5003 1444 5003 2331 
Q 5003 2891 4718 3402 
Q 4434 3913 3921 4189 
Q 3409 4466 2869 4466 
Q 2328 4466 1815 4189 
Q 1303 3913 1018 3402 
Q 734 2891 734 2331 
z
M 3713 2422 
Q 3753 2413 3937 2211 
Q 4122 2009 4122 1719 
Q 4122 1278 3784 1034 
Q 3447 791 2838 791 
Q 2638 791 2425 827 
Q 2213 863 1938 947 
L 1938 1472 
Q 2222 1322 2417 1278 
Q 2613 1234 2825 1234 
Q 3191 1234 3370 1357 
Q 3550 1481 3550 1719 
Q 3550 1941 3383 2062 
Q 3216 2184 2906 2184 
L 2469 2184 
L 2469 2622 
L 2922 2622 
Q 3203 2622 3340 2715 
Q 3478 2809 3478 2991 
Q 3478 3178 3334 3276 
Q 3191 3375 2906 3375 
Q 2744 3375 2555 3342 
Q 2366 3309 2031 3209 
L 2031 3681 
Q 2328 3756 2540 3787 
Q 2753 3819 2944 3819 
Q 3447 3819 3748 3605 
Q 4050 3391 4050 3031 
Q 4050 2778 3887 2600 
Q 3725 2422 3713 2422 
z
" transform="scale(0.015625)"/>
      <path id="DejaVuSans-46" d="M 628 4666 
L 3309 4666 
L 3309 4134 
L 1259 4134 
L 1259 2759 
L 3109 2759 
L 3109 2228 
L 1259 2228 
L 1259 0 
L 628 0 
L 628 4666 
z
" transform="scale(0.015625)"/>
      <path id="DejaVuSans-78" d="M 3513 3500 
L 2247 1797 
L 3578 0 
L 2900 0 
L 1881 1375 
L 863 0 
L 184 0 
L 1544 1831 
L 300 3500 
L 978 3500 
L 1906 2253 
L 2834 3500 
L 3513 3500 
z
" transform="scale(0.015625)"/>
      <path id="DejaVuSans-70" d="M 1159 525 
L 1159 -1331 
L 581 -1331 
L 581 3500 
L 1159 3500 
L 1159 2969 
Q 1341 3281 1617 3432 
Q 1894 3584 2278 3584 
Q 2916 3584 3314 3078 
Q 3713 2572 3713 1747 
Q 3713 922 3314 415 
Q 2916 -91 2278 -91 
Q 1894 -91 1617 61 
Q 1341 213 1159 525 
z
M 3116 1747 
Q 3116 2381 2855 2742 
Q 2594 3103 2138 3103 
Q 1681 3103 1420 2742 
Q 1159 2381 1159 1747 
Q 1159 1113 1420 752 
Q 1681 391 2138 391 
Q 2594 391 2855 752 
Q 3116 1113 3116 1747 
z
" transform="scale(0.015625)"/>
     </defs>
     <use xlink:href="#DejaVuSans-2462"/>
     <use xlink:href="#DejaVuSans-20" transform="translate(89.648438 0)"/>
     <use xlink:href="#DejaVuSans-46" transform="translate(121.435547 0)"/>
     <use xlink:href="#DejaVuSans-69" transform="translate(171.705078 0)"/>
     <use xlink:href="#DejaVuSans-78" transform="translate(199.488281 0)"/>
     <use xlink:href="#DejaVuSans-65" transform="translate(255.542969 0)"/>
     <use xlink:href="#DejaVuSans-64" transform="translate(317.066406 0)"/>
     <use xlink:href="#DejaVuSans-20" transform="translate(380.542969 0)"/>
     <use xlink:href="#DejaVuSans-70" transform="translate(412.330078 0)"/>
     <use xlink:href="#DejaVuSans-69" transform="translate(475.806641 0)"/>
     <use xlink:href="#DejaVuSans-6e" transform="translate(503.589844 0)"/>
    </g>
   </g>
   <g id="text_4">
    <!-- ④ Crank pin -->
    <g transform="translate(157.916071 205.712089) scale(0.12 -0.12)">
     <defs>
      <path id="DejaVuSans-2463" d="M 5263 2331 
Q 5263 1334 4561 635 
Q 3859 -63 2866 -63 
Q 1878 -63 1176 635 
Q 475 1334 475 2331 
Q 475 2950 797 3528 
Q 1119 4106 1695 4415 
Q 2272 4725 2866 4725 
Q 3469 4725 4045 4415 
Q 4622 4106 4942 3531 
Q 5263 2956 5263 2331 
z
M 734 2331 
Q 734 1444 1357 819 
Q 1981 194 2869 194 
Q 3756 194 4379 819 
Q 5003 1444 5003 2331 
Q 5003 2891 4718 3402 
Q 4434 3913 3921 4189 
Q 3409 4466 2869 4466 
Q 2328 4466 1815 4189 
Q 1303 3913 1018 3402 
Q 734 2891 734 2331 
z
M 2931 3138 
L 2091 1944 
L 2931 1944 
L 2931 3138 
z
M 2856 3769 
L 3500 3769 
L 3500 1944 
L 3941 1944 
L 3941 1503 
L 3500 1503 
L 3500 844 
L 2931 844 
L 2931 1503 
L 1541 1503 
L 1541 1947 
L 2856 3769 
z
" transform="scale(0.015625)"/>
     </defs>
     <use xlink:href="#DejaVuSans-2463"/>
     <use xlink:href="#DejaVuSans-20" transform="translate(89.648438 0)"/>
     <use xlink:href="#DejaVuSans-43" transform="translate(121.435547 0)"/>
     <use xlink:href="#DejaVuSans-72" transform="translate(191.259766 0)"/>
     <use xlink:href="#DejaVuSans-61" transform="translate(232.373047 0)"/>
     <use xlink:href="#DejaVuSans-6e" transform="translate(293.652344 0)"/>
     <use xlink:href="#DejaVuSans-6b" transform="translate(357.03125 0)"/>
     <use xlink:href="#DejaVuSans-20" transform="translate(414.941406 0)"/>
     <use xlink:href="#DejaVuSans-70" transform="translate(446.728516 0)"/>
     <use xlink:href="#DejaVuSans-69" transform="translate(510.205078 0)"/>
     <use xlink:href="#DejaVuSans-6e" transform="translate(537.988281 0)"/>
    </g>
   </g>
   <g id="text_5">
    <!-- ⑤ Slider pin -->
    <g transform="translate(547.865462 313.892563) scale(0.12 -0.12)">
     <defs>
      <path id="DejaVuSans-2464" d="M 5263 2331 
Q 5263 1334 4561 635 
Q 3859 -63 2866 -63 
Q 1878 -63 1176 635 
Q 475 1334 475 2331 
Q 475 2950 797 3528 
Q 1119 4106 1695 4415 
Q 2272 4725 2866 4725 
Q 3469 4725 4045 4415 
Q 4622 4106 4942 3531 
Q 5263 2956 5263 2331 
z
M 734 2331 
Q 734 1444 1357 819 
Q 1981 194 2869 194 
Q 3756 194 4379 819 
Q 5003 1444 5003 2331 
Q 5003 2891 4718 3402 
Q 4434 3913 3921 4189 
Q 3409 4466 2869 4466 
Q 2328 4466 1815 4189 
Q 1303 3913 1018 3402 
Q 734 2891 734 2331 
z
M 2009 3769 
L 3800 3769 
L 3800 3325 
L 2547 3325 
L 2547 2791 
Q 2538 2788 2636 2803 
Q 2734 2819 2831 2819 
Q 3381 2819 3704 2544 
Q 4028 2269 4028 1803 
Q 4028 1328 3695 1059 
Q 3363 791 2769 791 
Q 2569 791 2361 822 
Q 2153 853 1878 928 
L 1878 1466 
Q 2175 1319 2361 1276 
Q 2547 1234 2759 1234 
Q 3084 1234 3268 1386 
Q 3453 1538 3453 1803 
Q 3453 2072 3268 2223 
Q 3084 2375 2759 2375 
Q 2603 2375 2445 2344 
Q 2288 2313 2009 2197 
L 2009 3769 
z
" transform="scale(0.015625)"/>
      <path id="DejaVuSans-53" d="M 3425 4513 
L 3425 3897 
Q 3066 4069 2747 4153 
Q 2428 4238 2131 4238 
Q 1616 4238 1336 4038 
Q 1056 3838 1056 3469 
Q 1056 3159 1242 3001 
Q 1428 2844 1947 2747 
L 2328 2669 
Q 3034 2534 3370 2195 
Q 3706 1856 3706 1288 
Q 3706 609 3251 259 
Q 2797 -91 1919 -91 
Q 1588 -91 1214 -16 
Q 841 59 441 206 
L 441 856 
Q 825 641 1194 531 
Q 1563 422 1919 422 
Q 2459 422 2753 634 
Q 3047 847 3047 1241 
Q 3047 1584 2836 1778 
Q 2625 1972 2144 2069 
L 1759 2144 
Q 1053 2284 737 2584 
Q 422 2884 422 3419 
Q 422 4038 858 4394 
Q 1294 4750 2059 4750 
Q 2388 4750 2728 4690 
Q 3069 4631 3425 4513 
z
" transform="scale(0.015625)"/>
      <path id="DejaVuSans-6c" d="M 603 4863 
L 1178 4863 
L 1178 0 
L 603 0 
L 603 4863 
z
" transform="scale(0.015625)"/>
     </defs>
     <use xlink:href="#DejaVuSans-2464"/>
     <use xlink:href="#DejaVuSans-20" transform="translate(89.648438 0)"/>
     <use xlink:href="#DejaVuSans-53" transform="translate(121.435547 0)"/>
     <use xlink:href="#DejaVuSans-6c" transform="translate(184.912109 0)"/>
     <use xlink:href="#DejaVuSans-69" transform="translate(212.695312 0)"/>
     <use xlink:href="#DejaVuSans-64" transform="translate(240.478516 0)"/>
     <use xlink:href="#DejaVuSans-65" transform="translate(303.955078 0)"/>
     <use xlink:href="#DejaVuSans-72" transform="translate(365.478516 0)"/>
     <use xlink:href="#DejaVuSans-20" transform="translate(406.591797 0)"/>
     <use xlink:href="#DejaVuSans-70" transform="translate(438.378906 0)"/>
     <use xlink:href="#DejaVuSans-69" transform="translate(501.855469 0)"/>
     <use xlink:href="#DejaVuSans-6e" transform="translate(529.638672 0)"/>
    </g>
   </g>
   <g id="patch_4">
    <path d="M 72.835503 227.317219 
C 74.786409 227.317219 76.657674 226.542116 78.037173 225.162617 
C 79.416672 223.783118 80.191775 221.911853 80.191775 219.960947 
C 80.191775 218.010041 79.416672 216.138776 78.037173 214.759277 
C 76.657674 213.379778 74.786409 212.604675 72.835503 212.604675 
C 70.884597 212.604675 69.013332 213.379778 67.633833 214.759277 
C 66.254334 216.138776 65.479231 218.010041 65.479231 219.960947 
C 65.479231 221.911853 66.254334 223.783118 67.633833 225.162617 
C 69.013332 226.542116 70.884597 227.317219 72.835503 227.317219 
z
" clip-path="url(#pe20f83ae14)" style="fill: #ffffff; stroke: #000000; stroke-width: 1.3; stroke-linejoin: miter"/>
   </g>
   <g id="patch_5">
    <path d="M 168.03432 88.846213 
C 169.985226 88.846213 171.85649 88.07111 173.235989 86.691611 
C 174.615488 85.312112 175.390592 83.440847 175.390592 81.489941 
C 175.390592 79.539035 174.615488 77.66777 173.235989 76.288271 
C 171.85649 74.908772 169.985226 74.133669 168.03432 74.133669 
C 166.083413 74.133669 164.212149 74.908772 162.83265 76.288271 
C 161.453151 77.66777 160.678047 79.539035 160.678047 81.489941 
C 160.678047 83.440847 161.453151 85.312112 162.83265 86.691611 
C 164.212149 88.07111 166.083413 88.846213 168.03432 88.846213 
z
" clip-path="url(#pe20f83ae14)" style="fill: #ffffff; stroke: #000000; stroke-width: 1.3; stroke-linejoin: miter"/>
   </g>
   <g id="patch_6">
    <path d="M 211.306509 71.537337 
C 213.257415 71.537337 215.12868 70.762234 216.508179 69.382735 
C 217.887678 68.003236 218.662781 66.131971 218.662781 64.181065 
C 218.662781 62.230159 217.887678 60.358894 216.508179 58.979395 
C 215.12868 57.599896 213.257415 56.824793 211.306509 56.824793 
C 209.355603 56.824793 207.484338 57.599896 206.104839 58.979395 
C 204.72534 60.358894 203.950237 62.230159 203.950237 64.181065 
C 203.950237 66.131971 204.72534 68.003236 206.104839 69.382735 
C 207.484338 70.762234 209.355603 71.537337 211.306509 71.537337 
z
" clip-path="url(#pe20f83ae14)" style="fill: #ffffff; stroke: #000000; stroke-width: 1.3; stroke-linejoin: miter"/>
   </g>
   <g id="patch_7">
    <path d="M 583.447337 192.699467 
C 585.398243 192.699467 587.269508 191.924364 588.649007 190.544865 
C 590.028506 189.165366 590.803609 187.294101 590.803609 185.343195 
C 590.803609 183.392289 590.028506 181.521024 588.649007 180.141525 
C 587.269508 178.762026 585.398243 177.986923 583.447337 177.986923 
C 581.496431 177.986923 579.625166 178.762026 578.245667 180.141525 
C 576.866168 181.521024 576.091065 183.392289 576.091065 185.343195 
C 576.091065 187.294101 576.866168 189.165366 578.245667 190.544865 
C 579.625166 191.924364 581.496431 192.699467 583.447337 192.699467 
z
" clip-path="url(#pe20f83ae14)" style="fill: #ffffff; stroke: #000000; stroke-width: 1.3; stroke-linejoin: miter"/>
   </g>
   <g id="patch_8">
    <path d="M 72.835503 309.101657 
C 76.966834 309.101657 80.929512 307.460262 83.850804 304.53897 
C 86.772096 301.617678 88.413491 297.654999 88.413491 293.523669 
C 88.413491 289.392338 86.772096 285.42966 83.850804 282.508368 
C 80.929512 279.587076 76.966834 277.94568 72.835503 277.94568 
C 68.704172 277.94568 64.741494 279.587076 61.820202 282.508368 
C 58.89891 285.42966 57.257515 289.392338 57.257515 293.523669 
C 57.257515 297.654999 58.89891 301.617678 61.820202 304.53897 
C 64.741494 307.460262 68.704172 309.101657 72.835503 309.101657 
z
" clip-path="url(#pe20f83ae14)" style="fill: #d9d9d9; stroke: #000000; stroke-width: 1.5; stroke-linejoin: miter"/>
   </g>
   <g id="patch_9">
    <path d="M 193.997633 179.285089 
C 198.128964 179.285089 202.091642 177.643694 205.012934 174.722402 
C 207.934226 171.80111 209.575621 167.838431 209.575621 163.707101 
C 209.575621 159.57577 207.934226 155.613092 205.012934 152.6918 
C 202.091642 149.770508 198.128964 148.129112 193.997633 148.129112 
C 189.866302 148.129112 185.903624 149.770508 182.982332 152.6918 
C 180.06104 155.613092 178.419645 159.57577 178.419645 163.707101 
C 178.419645 167.838431 180.06104 171.80111 182.982332 174.722402 
C 185.903624 177.643694 189.866302 179.285089 193.997633 179.285089 
z
" clip-path="url(#pe20f83ae14)" style="fill: #d9d9d9; stroke: #000000; stroke-width: 1.5; stroke-linejoin: miter"/>
   </g>
   <g id="patch_10">
    <path d="M 583.447337 287.465562 
C 587.578668 287.465562 591.541346 285.824167 594.462638 282.902875 
C 597.38393 279.981583 599.025325 276.018905 599.025325 271.887574 
C 599.025325 267.756243 597.38393 263.793565 594.462638 260.872273 
C 591.541346 257.950981 587.578668 256.309586 583.447337 256.309586 
C 579.316007 256.309586 575.353328 257.950981 572.432036 260.872273 
C 569.510744 263.793565 567.869349 267.756243 567.869349 271.887574 
C 567.869349 276.018905 569.510744 279.981583 572.432036 282.902875 
C 575.353328 285.824167 579.316007 287.465562 583.447337 287.465562 
z
" clip-path="url(#pe20f83ae14)" style="fill: #d9d9d9; stroke: #000000; stroke-width: 1.5; stroke-linejoin: miter"/>
   </g>
   <g id="patch_11">
    <path d="M 72.835503 300.879941 
C 74.786409 300.879941 76.657674 300.104838 78.037173 298.725339 
C 79.416672 297.34584 80.191775 295.474575 80.191775 293.523669 
C 80.191775 291.572762 79.416672 289.701498 78.037173 288.321999 
C 76.657674 286.9425 74.786409 286.167396 72.835503 286.167396 
C 70.884597 286.167396 69.013332 286.9425 67.633833 288.321999 
C 66.254334 289.701498 65.479231 291.572762 65.479231 293.523669 
C 65.479231 295.474575 66.254334 297.34584 67.633833 298.725339 
C 69.013332 300.104838 70.884597 300.879941 72.835503 300.879941 
z
" clip-path="url(#pe20f83ae14)" style="fill: #ffffff; stroke: #000000; stroke-width: 1.2; stroke-linejoin: miter"/>
   </g>
   <g id="patch_12">
    <path d="M 193.997633 171.063373 
C 195.948539 171.063373 197.819804 170.28827 199.199303 168.908771 
C 200.578802 167.529272 201.353905 165.658007 201.353905 163.707101 
C 201.353905 161.756194 200.578802 159.88493 199.199303 158.505431 
C 197.819804 157.125932 195.948539 156.350828 193.997633 156.350828 
C 192.046727 156.350828 190.175462 157.125932 188.795963 158.505431 
C 187.416464 159.88493 186.641361 161.756194 186.641361 163.707101 
C 186.641361 165.658007 187.416464 167.529272 188.795963 168.908771 
C 190.175462 170.28827 192.046727 171.063373 193.997633 171.063373 
z
" clip-path="url(#pe20f83ae14)" style="fill: #ffffff; stroke: #000000; stroke-width: 1.2; stroke-linejoin: miter"/>
   </g>
   <g id="patch_13">
    <path d="M 583.447337 279.243846 
C 585.398243 279.243846 587.269508 278.468743 588.649007 277.089244 
C 590.028506 275.709745 590.803609 273.83848 590.803609 271.887574 
C 590.803609 269.936668 590.028506 268.065403 588.649007 266.685904 
C 587.269508 265.306405 585.398243 264.531302 583.447337 264.531302 
C 581.496431 264.531302 579.625166 265.306405 578.245667 266.685904 
C 576.866168 268.065403 576.091065 269.936668 576.091065 271.887574 
C 576.091065 273.83848 576.866168 275.709745 578.245667 277.089244 
C 579.625166 278.468743 581.496431 279.243846 583.447337 279.243846 
z
" clip-path="url(#pe20f83ae14)" style="fill: #ffffff; stroke: #000000; stroke-width: 1.2; stroke-linejoin: miter"/>
   </g>
  </g>
 </g>
 <defs>
  <clipPath id="pe20f83ae14">
   <rect x="3.6" y="3.6" width="649.08284" height="337.523077"/>
  </clipPath>
 </defs>
</svg>
