<?xml version="1.0" encoding="utf-8" standalone="no"?>
<!DOCTYPE svg PUBLIC "-//W3C//DTD SVG 1.1//EN"
  "http://www.w3.org/Graphics/SVG/1.1/DTD/svg11.dtd">
<svg xmlns:xlink="http://www.w3.org/1999/xlink" width="702.93425pt" height="342.587187pt" viewBox="0 0 702.93425 342.587187" xmlns="http://www.w3.org/2000/svg" version="1.1">
 <metadata>
  <rdf:RDF xmlns:dc="http://purl.org/dc/elements/1.1/" xmlns:cc="http://creativecommons.org/ns#" xmlns:rdf="http://www.w3.org/1999/02/22-rdf-syntax-ns#">
   <cc:Work>
    <dc:type rdf:resource="http://purl.org/dc/dcmitype/StillImage"/>
    <dc:date>2026-07-14T03:48:33.457932</dc:date>
    <dc:format>image/svg+xml</dc:format>
    <dc:creator>
     <cc:Agent>
      <dc:title>Matplotlib v3.10.0, https://matplotlib.org/</dc:title>
     </cc:Agent>
    </dc:creator>
   </cc:Work>
  </rdf:RDF>
 </metadata>
 <defs>
  <style type="text/css">*{stroke-linejoin: round; stroke-linecap: butt}</style>
 </defs>
 <g id="figure_1">
  <g id="patch_1">
   <path d="M 0 342.587187 
L 702.93425 342.587187 
L 702.93425 0 
L 0 0 
z
" style="fill: #ffffff"/>
  </g>
  <g id="axes_1">
   <g id="patch_2">
    <path d="M 67.392188 306.695312 
L 691.382687 306.695312 
L 691.382687 20.237812 
L 67.392188 20.237812 
z
" style="fill: #ffffff"/>
   </g>
   <g id="matplotlib.axis_1">
    <g id="xtick_1">
     <g id="line2d_1">
      <path d="M 67.392188 306.695312 
L 67.392188 20.237812 
" clip-path="url(#p32ebed1c27)" style="fill: none; stroke: #b0b0b0; stroke-width: 0.8; stroke-linecap: square"/>
     </g>
     <g id="line2d_2">
      <defs>
       <path id="m0448c58ca5" d="M 0 0 
L 0 3.5 
" style="stroke: #000000; stroke-width: 0.8"/>
      </defs>
      <g>
       <use xlink:href="#m0448c58ca5" x="67.392188" y="306.695312" style="stroke: #000000; stroke-width: 0.8"/>
      </g>
     </g>
     <g id="text_1">
      <!-- 0.0 -->
      <g transform="translate(59.440625 321.29375) scale(0.1 -0.1)">
       <defs>
        <path id="DejaVuSans-30" d="M 2034 4250 
Q 1547 4250 1301 3770 
Q 1056 3291 1056 2328 
Q 1056 1369 1301 889 
Q 1547 409 2034 409 
Q 2525 409 2770 889 
Q 3016 1369 3016 2328 
Q 3016 3291 2770 3770 
Q 2525 4250 2034 4250 
z
M 2034 4750 
Q 2819 4750 3233 4129 
Q 3647 3509 3647 2328 
Q 3647 1150 3233 529 
Q 2819 -91 2034 -91 
Q 1250 -91 836 529 
Q 422 1150 422 2328 
Q 422 3509 836 4129 
Q 1250 4750 2034 4750 
z
" transform="scale(0.015625)"/>
        <path id="DejaVuSans-2e" d="M 684 794 
L 1344 794 
L 1344 0 
L 684 0 
L 684 794 
z
" transform="scale(0.015625)"/>
       </defs>
       <use xlink:href="#DejaVuSans-30"/>
       <use xlink:href="#DejaVuSans-2e" transform="translate(63.623047 0)"/>
       <use xlink:href="#DejaVuSans-30" transform="translate(95.410156 0)"/>
      </g>
     </g>
    </g>
    <g id="xtick_2">
     <g id="line2d_3">
      <path d="M 129.791238 306.695312 
L 129.791238 20.237812 
" clip-path="url(#p32ebed1c27)" style="fill: none; stroke: #b0b0b0; stroke-width: 0.8; stroke-linecap: square"/>
     </g>
     <g id="line2d_4">
      <g>
       <use xlink:href="#m0448c58ca5" x="129.791238" y="306.695312" style="stroke: #000000; stroke-width: 0.8"/>
      </g>
     </g>
     <g id="text_2">
      <!-- 0.5 -->
      <g transform="translate(121.839675 321.29375) scale(0.1 -0.1)">
       <defs>
        <path id="DejaVuSans-35" d="M 691 4666 
L 3169 4666 
L 3169 4134 
L 1269 4134 
L 1269 2991 
Q 1406 3038 1543 3061 
Q 1681 3084 1819 3084 
Q 2600 3084 3056 2656 
Q 3513 2228 3513 1497 
Q 3513 744 3044 326 
Q 2575 -91 1722 -91 
Q 1428 -91 1123 -41 
Q 819 9 494 109 
L 494 744 
Q 775 591 1075 516 
Q 1375 441 1709 441 
Q 2250 441 2565 725 
Q 2881 1009 2881 1497 
Q 2881 1984 2565 2268 
Q 2250 2553 1709 2553 
Q 1456 2553 1204 2497 
Q 953 2441 691 2322 
L 691 4666 
z
" transform="scale(0.015625)"/>
       </defs>
       <use xlink:href="#DejaVuSans-30"/>
       <use xlink:href="#DejaVuSans-2e" transform="translate(63.623047 0)"/>
       <use xlink:href="#DejaVuSans-35" transform="translate(95.410156 0)"/>
      </g>
     </g>
    </g>
    <g id="xtick_3">
     <g id="line2d_5">
      <path d="M 192.190288 306.695312 
L 192.190288 20.237812 
" clip-path="url(#p32ebed1c27)" style="fill: none; stroke: #b0b0b0; stroke-width: 0.8; stroke-linecap: square"/>
     </g>
     <g id="line2d_6">
      <g>
       <use xlink:href="#m0448c58ca5" x="192.190288" y="306.695312" style="stroke: #000000; stroke-width: 0.8"/>
      </g>
     </g>
     <g id="text_3">
      <!-- 1.0 -->
      <g transform="translate(184.238725 321.29375) scale(0.1 -0.1)">
       <defs>
        <path id="DejaVuSans-31" d="M 794 531 
L 1825 531 
L 1825 4091 
L 703 3866 
L 703 4441 
L 1819 4666 
L 2450 4666 
L 2450 531 
L 3481 531 
L 3481 0 
L 794 0 
L 794 531 
z
" transform="scale(0.015625)"/>
       </defs>
       <use xlink:href="#DejaVuSans-31"/>
       <use xlink:href="#DejaVuSans-2e" transform="translate(63.623047 0)"/>
       <use xlink:href="#DejaVuSans-30" transform="translate(95.410156 0)"/>
      </g>
     </g>
    </g>
    <g id="xtick_4">
     <g id="line2d_7">
      <path d="M 254.589338 306.695312 
L 254.589338 20.237812 
" clip-path="url(#p32ebed1c27)" style="fill: none; stroke: #b0b0b0; stroke-width: 0.8; stroke-linecap: square"/>
     </g>
     <g id="line2d_8">
      <g>
       <use xlink:href="#m0448c58ca5" x="254.589338" y="306.695312" style="stroke: #000000; stroke-width: 0.8"/>
      </g>
     </g>
     <g id="text_4">
      <!-- 1.5 -->
      <g transform="translate(246.637775 321.29375) scale(0.1 -0.1)">
       <use xlink:href="#DejaVuSans-31"/>
       <use xlink:href="#DejaVuSans-2e" transform="translate(63.623047 0)"/>
       <use xlink:href="#DejaVuSans-35" transform="translate(95.410156 0)"/>
      </g>
     </g>
    </g>
    <g id="xtick_5">
     <g id="line2d_9">
      <path d="M 316.988388 306.695312 
L 316.988388 20.237812 
" clip-path="url(#p32ebed1c27)" style="fill: none; stroke: #b0b0b0; stroke-width: 0.8; stroke-linecap: square"/>
     </g>
     <g id="line2d_10">
      <g>
       <use xlink:href="#m0448c58ca5" x="316.988388" y="306.695312" style="stroke: #000000; stroke-width: 0.8"/>
      </g>
     </g>
     <g id="text_5">
      <!-- 2.0 -->
      <g transform="translate(309.036825 321.29375) scale(0.1 -0.1)">
       <defs>
        <path id="DejaVuSans-32" d="M 1228 531 
L 3431 531 
L 3431 0 
L 469 0 
L 469 531 
Q 828 903 1448 1529 
Q 2069 2156 2228 2338 
Q 2531 2678 2651 2914 
Q 2772 3150 2772 3378 
Q 2772 3750 2511 3984 
Q 2250 4219 1831 4219 
Q 1534 4219 1204 4116 
Q 875 4013 500 3803 
L 500 4441 
Q 881 4594 1212 4672 
Q 1544 4750 1819 4750 
Q 2544 4750 2975 4387 
Q 3406 4025 3406 3419 
Q 3406 3131 3298 2873 
Q 3191 2616 2906 2266 
Q 2828 2175 2409 1742 
Q 1991 1309 1228 531 
z
" transform="scale(0.015625)"/>
       </defs>
       <use xlink:href="#DejaVuSans-32"/>
       <use xlink:href="#DejaVuSans-2e" transform="translate(63.623047 0)"/>
       <use xlink:href="#DejaVuSans-30" transform="translate(95.410156 0)"/>
      </g>
     </g>
    </g>
    <g id="xtick_6">
     <g id="line2d_11">
      <path d="M 379.387438 306.695312 
L 379.387438 20.237812 
" clip-path="url(#p32ebed1c27)" style="fill: none; stroke: #b0b0b0; stroke-width: 0.8; stroke-linecap: square"/>
     </g>
     <g id="line2d_12">
      <g>
       <use xlink:href="#m0448c58ca5" x="379.387438" y="306.695312" style="stroke: #000000; stroke-width: 0.8"/>
      </g>
     </g>
     <g id="text_6">
      <!-- 2.5 -->
      <g transform="translate(371.435875 321.29375) scale(0.1 -0.1)">
       <use xlink:href="#DejaVuSans-32"/>
       <use xlink:href="#DejaVuSans-2e" transform="translate(63.623047 0)"/>
       <use xlink:href="#DejaVuSans-35" transform="translate(95.410156 0)"/>
      </g>
     </g>
    </g>
    <g id="xtick_7">
     <g id="line2d_13">
      <path d="M 441.786488 306.695312 
L 441.786488 20.237812 
" clip-path="url(#p32ebed1c27)" style="fill: none; stroke: #b0b0b0; stroke-width: 0.8; stroke-linecap: square"/>
     </g>
     <g id="line2d_14">
      <g>
       <use xlink:href="#m0448c58ca5" x="441.786488" y="306.695312" style="stroke: #000000; stroke-width: 0.8"/>
      </g>
     </g>
     <g id="text_7">
      <!-- 3.0 -->
      <g transform="translate(433.834925 321.29375) scale(0.1 -0.1)">
       <defs>
        <path id="DejaVuSans-33" d="M 2597 2516 
Q 3050 2419 3304 2112 
Q 3559 1806 3559 1356 
Q 3559 666 3084 287 
Q 2609 -91 1734 -91 
Q 1441 -91 1130 -33 
Q 819 25 488 141 
L 488 750 
Q 750 597 1062 519 
Q 1375 441 1716 441 
Q 2309 441 2620 675 
Q 2931 909 2931 1356 
Q 2931 1769 2642 2001 
Q 2353 2234 1838 2234 
L 1294 2234 
L 1294 2753 
L 1863 2753 
Q 2328 2753 2575 2939 
Q 2822 3125 2822 3475 
Q 2822 3834 2567 4026 
Q 2313 4219 1838 4219 
Q 1578 4219 1281 4162 
Q 984 4106 628 3988 
L 628 4550 
Q 988 4650 1302 4700 
Q 1616 4750 1894 4750 
Q 2613 4750 3031 4423 
Q 3450 4097 3450 3541 
Q 3450 3153 3228 2886 
Q 3006 2619 2597 2516 
z
" transform="scale(0.015625)"/>
       </defs>
       <use xlink:href="#DejaVuSans-33"/>
       <use xlink:href="#DejaVuSans-2e" transform="translate(63.623047 0)"/>
       <use xlink:href="#DejaVuSans-30" transform="translate(95.410156 0)"/>
      </g>
     </g>
    </g>
    <g id="xtick_8">
     <g id="line2d_15">
      <path d="M 504.185538 306.695312 
L 504.185538 20.237812 
" clip-path="url(#p32ebed1c27)" style="fill: none; stroke: #b0b0b0; stroke-width: 0.8; stroke-linecap: square"/>
     </g>
     <g id="line2d_16">
      <g>
       <use xlink:href="#m0448c58ca5" x="504.185538" y="306.695312" style="stroke: #000000; stroke-width: 0.8"/>
      </g>
     </g>
     <g id="text_8">
      <!-- 3.5 -->
      <g transform="translate(496.233975 321.29375) scale(0.1 -0.1)">
       <use xlink:href="#DejaVuSans-33"/>
       <use xlink:href="#DejaVuSans-2e" transform="translate(63.623047 0)"/>
       <use xlink:href="#DejaVuSans-35" transform="translate(95.410156 0)"/>
      </g>
     </g>
    </g>
    <g id="xtick_9">
     <g id="line2d_17">
      <path d="M 566.584587 306.695312 
L 566.584587 20.237812 
" clip-path="url(#p32ebed1c27)" style="fill: none; stroke: #b0b0b0; stroke-width: 0.8; stroke-linecap: square"/>
     </g>
     <g id="line2d_18">
      <g>
       <use xlink:href="#m0448c58ca5" x="566.584587" y="306.695312" style="stroke: #000000; stroke-width: 0.8"/>
      </g>
     </g>
     <g id="text_9">
      <!-- 4.0 -->
      <g transform="translate(558.633025 321.29375) scale(0.1 -0.1)">
       <defs>
        <path id="DejaVuSans-34" d="M 2419 4116 
L 825 1625 
L 2419 1625 
L 2419 4116 
z
M 2253 4666 
L 3047 4666 
L 3047 1625 
L 3713 1625 
L 3713 1100 
L 3047 1100 
L 3047 0 
L 2419 0 
L 2419 1100 
L 313 1100 
L 313 1709 
L 2253 4666 
z
" transform="scale(0.015625)"/>
       </defs>
       <use xlink:href="#DejaVuSans-34"/>
       <use xlink:href="#DejaVuSans-2e" transform="translate(63.623047 0)"/>
       <use xlink:href="#DejaVuSans-30" transform="translate(95.410156 0)"/>
      </g>
     </g>
    </g>
    <g id="xtick_10">
     <g id="line2d_19">
      <path d="M 628.983637 306.695312 
L 628.983637 20.237812 
" clip-path="url(#p32ebed1c27)" style="fill: none; stroke: #b0b0b0; stroke-width: 0.8; stroke-linecap: square"/>
     </g>
     <g id="line2d_20">
      <g>
       <use xlink:href="#m0448c58ca5" x="628.983637" y="306.695312" style="stroke: #000000; stroke-width: 0.8"/>
      </g>
     </g>
     <g id="text_10">
      <!-- 4.5 -->
      <g transform="translate(621.032075 321.29375) scale(0.1 -0.1)">
       <use xlink:href="#DejaVuSans-34"/>
       <use xlink:href="#DejaVuSans-2e" transform="translate(63.623047 0)"/>
       <use xlink:href="#DejaVuSans-35" transform="translate(95.410156 0)"/>
      </g>
     </g>
    </g>
    <g id="xtick_11">
     <g id="line2d_21">
      <path d="M 691.382687 306.695312 
L 691.382687 20.237812 
" clip-path="url(#p32ebed1c27)" style="fill: none; stroke: #b0b0b0; stroke-width: 0.8; stroke-linecap: square"/>
     </g>
     <g id="line2d_22">
      <g>
       <use xlink:href="#m0448c58ca5" x="691.382687" y="306.695312" style="stroke: #000000; stroke-width: 0.8"/>
      </g>
     </g>
     <g id="text_11">
      <!-- 5.0 -->
      <g transform="translate(683.431125 321.29375) scale(0.1 -0.1)">
       <use xlink:href="#DejaVuSans-35"/>
       <use xlink:href="#DejaVuSans-2e" transform="translate(63.623047 0)"/>
       <use xlink:href="#DejaVuSans-30" transform="translate(95.410156 0)"/>
      </g>
     </g>
    </g>
    <g id="text_12">
     <!-- Time $t$ [s] -->
     <g transform="translate(350.527438 336.491562) scale(0.12 -0.12)">
      <defs>
       <path id="DejaVuSans-54" d="M -19 4666 
L 3928 4666 
L 3928 4134 
L 2272 4134 
L 2272 0 
L 1638 0 
L 1638 4134 
L -19 4134 
L -19 4666 
z
" transform="scale(0.015625)"/>
       <path id="DejaVuSans-69" d="M 603 3500 
L 1178 3500 
L 1178 0 
L 603 0 
L 603 3500 
z
M 603 4863 
L 1178 4863 
L 1178 4134 
L 603 4134 
L 603 4863 
z
" transform="scale(0.015625)"/>
       <path id="DejaVuSans-6d" d="M 3328 2828 
Q 3544 3216 3844 3400 
Q 4144 3584 4550 3584 
Q 5097 3584 5394 3201 
Q 5691 2819 5691 2113 
L 5691 0 
L 5113 0 
L 5113 2094 
Q 5113 2597 4934 2840 
Q 4756 3084 4391 3084 
Q 3944 3084 3684 2787 
Q 3425 2491 3425 1978 
L 3425 0 
L 2847 0 
L 2847 2094 
Q 2847 2600 2669 2842 
Q 2491 3084 2119 3084 
Q 1678 3084 1418 2786 
Q 1159 2488 1159 1978 
L 1159 0 
L 581 0 
L 581 3500 
L 1159 3500 
L 1159 2956 
Q 1356 3278 1631 3431 
Q 1906 3584 2284 3584 
Q 2666 3584 2933 3390 
Q 3200 3197 3328 2828 
z
" transform="scale(0.015625)"/>
       <path id="DejaVuSans-65" d="M 3597 1894 
L 3597 1613 
L 953 1613 
Q 991 1019 1311 708 
Q 1631 397 2203 397 
Q 2534 397 2845 478 
Q 3156 559 3463 722 
L 3463 178 
Q 3153 47 2828 -22 
Q 2503 -91 2169 -91 
Q 1331 -91 842 396 
Q 353 884 353 1716 
Q 353 2575 817 3079 
Q 1281 3584 2069 3584 
Q 2775 3584 3186 3129 
Q 3597 2675 3597 1894 
z
M 3022 2063 
Q 3016 2534 2758 2815 
Q 2500 3097 2075 3097 
Q 1594 3097 1305 2825 
Q 1016 2553 972 2059 
L 3022 2063 
z
" transform="scale(0.015625)"/>
       <path id="DejaVuSans-20" transform="scale(0.015625)"/>
       <path id="DejaVuSans-Oblique-74" d="M 2706 3500 
L 2619 3053 
L 1472 3053 
L 1100 1153 
Q 1081 1047 1072 975 
Q 1063 903 1063 863 
Q 1063 663 1183 572 
Q 1303 481 1569 481 
L 2150 481 
L 2053 0 
L 1503 0 
Q 991 0 739 200 
Q 488 400 488 806 
Q 488 878 497 964 
Q 506 1050 525 1153 
L 897 3053 
L 409 3053 
L 500 3500 
L 978 3500 
L 1172 4494 
L 1747 4494 
L 1556 3500 
L 2706 3500 
z
" transform="scale(0.015625)"/>
       <path id="DejaVuSans-5b" d="M 550 4863 
L 1875 4863 
L 1875 4416 
L 1125 4416 
L 1125 -397 
L 1875 -397 
L 1875 -844 
L 550 -844 
L 550 4863 
z
" transform="scale(0.015625)"/>
       <path id="DejaVuSans-73" d="M 2834 3397 
L 2834 2853 
Q 2591 2978 2328 3040 
Q 2066 3103 1784 3103 
Q 1356 3103 1142 2972 
Q 928 2841 928 2578 
Q 928 2378 1081 2264 
Q 1234 2150 1697 2047 
L 1894 2003 
Q 2506 1872 2764 1633 
Q 3022 1394 3022 966 
Q 3022 478 2636 193 
Q 2250 -91 1575 -91 
Q 1294 -91 989 -36 
Q 684 19 347 128 
L 347 722 
Q 666 556 975 473 
Q 1284 391 1588 391 
Q 1994 391 2212 530 
Q 2431 669 2431 922 
Q 2431 1156 2273 1281 
Q 2116 1406 1581 1522 
L 1381 1569 
Q 847 1681 609 1914 
Q 372 2147 372 2553 
Q 372 3047 722 3315 
Q 1072 3584 1716 3584 
Q 2034 3584 2315 3537 
Q 2597 3491 2834 3397 
z
" transform="scale(0.015625)"/>
       <path id="DejaVuSans-5d" d="M 1947 4863 
L 1947 -844 
L 622 -844 
L 622 -397 
L 1369 -397 
L 1369 4416 
L 622 4416 
L 622 4863 
L 1947 4863 
z
" transform="scale(0.015625)"/>
      </defs>
      <use xlink:href="#DejaVuSans-54" transform="translate(0 0.015625)"/>
      <use xlink:href="#DejaVuSans-69" transform="translate(61.083984 0.015625)"/>
      <use xlink:href="#DejaVuSans-6d" transform="translate(88.867188 0.015625)"/>
      <use xlink:href="#DejaVuSans-65" transform="translate(186.279297 0.015625)"/>
      <use xlink:href="#DejaVuSans-20" transform="translate(247.802734 0.015625)"/>
      <use xlink:href="#DejaVuSans-Oblique-74" transform="translate(279.589844 0.015625)"/>
      <use xlink:href="#DejaVuSans-20" transform="translate(318.798828 0.015625)"/>
      <use xlink:href="#DejaVuSans-5b" transform="translate(350.585938 0.015625)"/>
      <use xlink:href="#DejaVuSans-73" transform="translate(389.599609 0.015625)"/>
      <use xlink:href="#DejaVuSans-5d" transform="translate(441.699219 0.015625)"/>
     </g>
    </g>
   </g>
   <g id="matplotlib.axis_2">
    <g id="ytick_1">
     <g id="line2d_23">
      <path d="M 67.392188 298.075352 
L 691.382687 298.075352 
" clip-path="url(#p32ebed1c27)" style="fill: none; stroke: #b0b0b0; stroke-width: 0.8; stroke-linecap: square"/>
     </g>
     <g id="line2d_24">
      <defs>
       <path id="md41957ad7c" d="M 0 0 
L -3.5 0 
" style="stroke: #000000; stroke-width: 0.8"/>
      </defs>
      <g>
       <use xlink:href="#md41957ad7c" x="67.392188" y="298.075352" style="stroke: #000000; stroke-width: 0.8"/>
      </g>
     </g>
     <g id="text_13">
      <!-- −15000 -->
      <g transform="translate(20.2 301.874571) scale(0.1 -0.1)">
       <defs>
        <path id="DejaVuSans-2212" d="M 678 2272 
L 4684 2272 
L 4684 1741 
L 678 1741 
L 678 2272 
z
" transform="scale(0.015625)"/>
       </defs>
       <use xlink:href="#DejaVuSans-2212"/>
       <use xlink:href="#DejaVuSans-31" transform="translate(83.789062 0)"/>
       <use xlink:href="#DejaVuSans-35" transform="translate(147.412109 0)"/>
       <use xlink:href="#DejaVuSans-30" transform="translate(211.035156 0)"/>
       <use xlink:href="#DejaVuSans-30" transform="translate(274.658203 0)"/>
       <use xlink:href="#DejaVuSans-30" transform="translate(338.28125 0)"/>
      </g>
     </g>
    </g>
    <g id="ytick_2">
     <g id="line2d_25">
      <path d="M 67.392188 239.919229 
L 691.382687 239.919229 
" clip-path="url(#p32ebed1c27)" style="fill: none; stroke: #b0b0b0; stroke-width: 0.8; stroke-linecap: square"/>
     </g>
     <g id="line2d_26">
      <g>
       <use xlink:href="#md41957ad7c" x="67.392188" y="239.919229" style="stroke: #000000; stroke-width: 0.8"/>
      </g>
     </g>
     <g id="text_14">
      <!-- −10000 -->
      <g transform="translate(20.2 243.718448) scale(0.1 -0.1)">
       <use xlink:href="#DejaVuSans-2212"/>
       <use xlink:href="#DejaVuSans-31" transform="translate(83.789062 0)"/>
       <use xlink:href="#DejaVuSans-30" transform="translate(147.412109 0)"/>
       <use xlink:href="#DejaVuSans-30" transform="translate(211.035156 0)"/>
       <use xlink:href="#DejaVuSans-30" transform="translate(274.658203 0)"/>
       <use xlink:href="#DejaVuSans-30" transform="translate(338.28125 0)"/>
      </g>
     </g>
    </g>
    <g id="ytick_3">
     <g id="line2d_27">
      <path d="M 67.392188 181.763107 
L 691.382687 181.763107 
" clip-path="url(#p32ebed1c27)" style="fill: none; stroke: #b0b0b0; stroke-width: 0.8; stroke-linecap: square"/>
     </g>
     <g id="line2d_28">
      <g>
       <use xlink:href="#md41957ad7c" x="67.392188" y="181.763107" style="stroke: #000000; stroke-width: 0.8"/>
      </g>
     </g>
     <g id="text_15">
      <!-- −5000 -->
      <g transform="translate(26.5625 185.562325) scale(0.1 -0.1)">
       <use xlink:href="#DejaVuSans-2212"/>
       <use xlink:href="#DejaVuSans-35" transform="translate(83.789062 0)"/>
       <use xlink:href="#DejaVuSans-30" transform="translate(147.412109 0)"/>
       <use xlink:href="#DejaVuSans-30" transform="translate(211.035156 0)"/>
       <use xlink:href="#DejaVuSans-30" transform="translate(274.658203 0)"/>
      </g>
     </g>
    </g>
    <g id="ytick_4">
     <g id="line2d_29">
      <path d="M 67.392188 123.606984 
L 691.382687 123.606984 
" clip-path="url(#p32ebed1c27)" style="fill: none; stroke: #b0b0b0; stroke-width: 0.8; stroke-linecap: square"/>
     </g>
     <g id="line2d_30">
      <g>
       <use xlink:href="#md41957ad7c" x="67.392188" y="123.606984" style="stroke: #000000; stroke-width: 0.8"/>
      </g>
     </g>
     <g id="text_16">
      <!-- 0 -->
      <g transform="translate(54.029688 127.406203) scale(0.1 -0.1)">
       <use xlink:href="#DejaVuSans-30"/>
      </g>
     </g>
    </g>
    <g id="ytick_5">
     <g id="line2d_31">
      <path d="M 67.392188 65.450861 
L 691.382687 65.450861 
" clip-path="url(#p32ebed1c27)" style="fill: none; stroke: #b0b0b0; stroke-width: 0.8; stroke-linecap: square"/>
     </g>
     <g id="line2d_32">
      <g>
       <use xlink:href="#md41957ad7c" x="67.392188" y="65.450861" style="stroke: #000000; stroke-width: 0.8"/>
      </g>
     </g>
     <g id="text_17">
      <!-- 5000 -->
      <g transform="translate(34.942188 69.25008) scale(0.1 -0.1)">
       <use xlink:href="#DejaVuSans-35"/>
       <use xlink:href="#DejaVuSans-30" transform="translate(63.623047 0)"/>
       <use xlink:href="#DejaVuSans-30" transform="translate(127.246094 0)"/>
       <use xlink:href="#DejaVuSans-30" transform="translate(190.869141 0)"/>
      </g>
     </g>
    </g>
    <g id="text_18">
     <!-- Slider acceleration $a$ [mm/s$^2$] -->
     <g transform="translate(13.704375 251.366562) rotate(-90) scale(0.12 -0.12)">
      <defs>
       <path id="DejaVuSans-53" d="M 3425 4513 
L 3425 3897 
Q 3066 4069 2747 4153 
Q 2428 4238 2131 4238 
Q 1616 4238 1336 4038 
Q 1056 3838 1056 3469 
Q 1056 3159 1242 3001 
Q 1428 2844 1947 2747 
L 2328 2669 
Q 3034 2534 3370 2195 
Q 3706 1856 3706 1288 
Q 3706 609 3251 259 
Q 2797 -91 1919 -91 
Q 1588 -91 1214 -16 
Q 841 59 441 206 
L 441 856 
Q 825 641 1194 531 
Q 1563 422 1919 422 
Q 2459 422 2753 634 
Q 3047 847 3047 1241 
Q 3047 1584 2836 1778 
Q 2625 1972 2144 2069 
L 1759 2144 
Q 1053 2284 737 2584 
Q 422 2884 422 3419 
Q 422 4038 858 4394 
Q 1294 4750 2059 4750 
Q 2388 4750 2728 4690 
Q 3069 4631 3425 4513 
z
" transform="scale(0.015625)"/>
       <path id="DejaVuSans-6c" d="M 603 4863 
L 1178 4863 
L 1178 0 
L 603 0 
L 603 4863 
z
" transform="scale(0.015625)"/>
       <path id="DejaVuSans-64" d="M 2906 2969 
L 2906 4863 
L 3481 4863 
L 3481 0 
L 2906 0 
L 2906 525 
Q 2725 213 2448 61 
Q 2172 -91 1784 -91 
Q 1150 -91 751 415 
Q 353 922 353 1747 
Q 353 2572 751 3078 
Q 1150 3584 1784 3584 
Q 2172 3584 2448 3432 
Q 2725 3281 2906 2969 
z
M 947 1747 
Q 947 1113 1208 752 
Q 1469 391 1925 391 
Q 2381 391 2643 752 
Q 2906 1113 2906 1747 
Q 2906 2381 2643 2742 
Q 2381 3103 1925 3103 
Q 1469 3103 1208 2742 
Q 947 2381 947 1747 
z
" transform="scale(0.015625)"/>
       <path id="DejaVuSans-72" d="M 2631 2963 
Q 2534 3019 2420 3045 
Q 2306 3072 2169 3072 
Q 1681 3072 1420 2755 
Q 1159 2438 1159 1844 
L 1159 0 
L 581 0 
L 581 3500 
L 1159 3500 
L 1159 2956 
Q 1341 3275 1631 3429 
Q 1922 3584 2338 3584 
Q 2397 3584 2469 3576 
Q 2541 3569 2628 3553 
L 2631 2963 
z
" transform="scale(0.015625)"/>
       <path id="DejaVuSans-61" d="M 2194 1759 
Q 1497 1759 1228 1600 
Q 959 1441 959 1056 
Q 959 750 1161 570 
Q 1363 391 1709 391 
Q 2188 391 2477 730 
Q 2766 1069 2766 1631 
L 2766 1759 
L 2194 1759 
z
M 3341 1997 
L 3341 0 
L 2766 0 
L 2766 531 
Q 2569 213 2275 61 
Q 1981 -91 1556 -91 
Q 1019 -91 701 211 
Q 384 513 384 1019 
Q 384 1609 779 1909 
Q 1175 2209 1959 2209 
L 2766 2209 
L 2766 2266 
Q 2766 2663 2505 2880 
Q 2244 3097 1772 3097 
Q 1472 3097 1187 3025 
Q 903 2953 641 2809 
L 641 3341 
Q 956 3463 1253 3523 
Q 1550 3584 1831 3584 
Q 2591 3584 2966 3190 
Q 3341 2797 3341 1997 
z
" transform="scale(0.015625)"/>
       <path id="DejaVuSans-63" d="M 3122 3366 
L 3122 2828 
Q 2878 2963 2633 3030 
Q 2388 3097 2138 3097 
Q 1578 3097 1268 2742 
Q 959 2388 959 1747 
Q 959 1106 1268 751 
Q 1578 397 2138 397 
Q 2388 397 2633 464 
Q 2878 531 3122 666 
L 3122 134 
Q 2881 22 2623 -34 
Q 2366 -91 2075 -91 
Q 1284 -91 818 406 
Q 353 903 353 1747 
Q 353 2603 823 3093 
Q 1294 3584 2113 3584 
Q 2378 3584 2631 3529 
Q 2884 3475 3122 3366 
z
" transform="scale(0.015625)"/>
       <path id="DejaVuSans-74" d="M 1172 4494 
L 1172 3500 
L 2356 3500 
L 2356 3053 
L 1172 3053 
L 1172 1153 
Q 1172 725 1289 603 
Q 1406 481 1766 481 
L 2356 481 
L 2356 0 
L 1766 0 
Q 1100 0 847 248 
Q 594 497 594 1153 
L 594 3053 
L 172 3053 
L 172 3500 
L 594 3500 
L 594 4494 
L 1172 4494 
z
" transform="scale(0.015625)"/>
       <path id="DejaVuSans-6f" d="M 1959 3097 
Q 1497 3097 1228 2736 
Q 959 2375 959 1747 
Q 959 1119 1226 758 
Q 1494 397 1959 397 
Q 2419 397 2687 759 
Q 2956 1122 2956 1747 
Q 2956 2369 2687 2733 
Q 2419 3097 1959 3097 
z
M 1959 3584 
Q 2709 3584 3137 3096 
Q 3566 2609 3566 1747 
Q 3566 888 3137 398 
Q 2709 -91 1959 -91 
Q 1206 -91 779 398 
Q 353 888 353 1747 
Q 353 2609 779 3096 
Q 1206 3584 1959 3584 
z
" transform="scale(0.015625)"/>
       <path id="DejaVuSans-6e" d="M 3513 2113 
L 3513 0 
L 2938 0 
L 2938 2094 
Q 2938 2591 2744 2837 
Q 2550 3084 2163 3084 
Q 1697 3084 1428 2787 
Q 1159 2491 1159 1978 
L 1159 0 
L 581 0 
L 581 3500 
L 1159 3500 
L 1159 2956 
Q 1366 3272 1645 3428 
Q 1925 3584 2291 3584 
Q 2894 3584 3203 3211 
Q 3513 2838 3513 2113 
z
" transform="scale(0.015625)"/>
       <path id="DejaVuSans-Oblique-61" d="M 3438 1997 
L 3047 0 
L 2472 0 
L 2578 531 
Q 2325 219 2001 64 
Q 1678 -91 1281 -91 
Q 834 -91 548 182 
Q 263 456 263 884 
Q 263 1497 752 1853 
Q 1241 2209 2100 2209 
L 2900 2209 
L 2931 2363 
Q 2938 2388 2941 2417 
Q 2944 2447 2944 2509 
Q 2944 2788 2717 2942 
Q 2491 3097 2081 3097 
Q 1800 3097 1504 3025 
Q 1209 2953 897 2809 
L 997 3341 
Q 1322 3463 1633 3523 
Q 1944 3584 2234 3584 
Q 2853 3584 3176 3315 
Q 3500 3047 3500 2534 
Q 3500 2431 3484 2292 
Q 3469 2153 3438 1997 
z
M 2816 1759 
L 2241 1759 
Q 1534 1759 1195 1570 
Q 856 1381 856 984 
Q 856 709 1029 553 
Q 1203 397 1509 397 
Q 1978 397 2328 733 
Q 2678 1069 2791 1631 
L 2816 1759 
z
" transform="scale(0.015625)"/>
       <path id="DejaVuSans-2f" d="M 1625 4666 
L 2156 4666 
L 531 -594 
L 0 -594 
L 1625 4666 
z
" transform="scale(0.015625)"/>
      </defs>
      <use xlink:href="#DejaVuSans-53" transform="translate(0 0.765625)"/>
      <use xlink:href="#DejaVuSans-6c" transform="translate(63.476562 0.765625)"/>
      <use xlink:href="#DejaVuSans-69" transform="translate(91.259766 0.765625)"/>
      <use xlink:href="#DejaVuSans-64" transform="translate(119.042969 0.765625)"/>
      <use xlink:href="#DejaVuSans-65" transform="translate(182.519531 0.765625)"/>
      <use xlink:href="#DejaVuSans-72" transform="translate(244.042969 0.765625)"/>
      <use xlink:href="#DejaVuSans-20" transform="translate(285.15625 0.765625)"/>
      <use xlink:href="#DejaVuSans-61" transform="translate(316.943359 0.765625)"/>
      <use xlink:href="#DejaVuSans-63" transform="translate(378.222656 0.765625)"/>
      <use xlink:href="#DejaVuSans-63" transform="translate(433.203125 0.765625)"/>
      <use xlink:href="#DejaVuSans-65" transform="translate(488.183594 0.765625)"/>
      <use xlink:href="#DejaVuSans-6c" transform="translate(549.707031 0.765625)"/>
      <use xlink:href="#DejaVuSans-65" transform="translate(577.490234 0.765625)"/>
      <use xlink:href="#DejaVuSans-72" transform="translate(639.013672 0.765625)"/>
      <use xlink:href="#DejaVuSans-61" transform="translate(680.126953 0.765625)"/>
      <use xlink:href="#DejaVuSans-74" transform="translate(741.40625 0.765625)"/>
      <use xlink:href="#DejaVuSans-69" transform="translate(780.615234 0.765625)"/>
      <use xlink:href="#DejaVuSans-6f" transform="translate(808.398438 0.765625)"/>
      <use xlink:href="#DejaVuSans-6e" transform="translate(869.580078 0.765625)"/>
      <use xlink:href="#DejaVuSans-20" transform="translate(932.958984 0.765625)"/>
      <use xlink:href="#DejaVuSans-Oblique-61" transform="translate(964.746094 0.765625)"/>
      <use xlink:href="#DejaVuSans-20" transform="translate(1026.025391 0.765625)"/>
      <use xlink:href="#DejaVuSans-5b" transform="translate(1057.8125 0.765625)"/>
      <use xlink:href="#DejaVuSans-6d" transform="translate(1096.826172 0.765625)"/>
      <use xlink:href="#DejaVuSans-6d" transform="translate(1194.238281 0.765625)"/>
      <use xlink:href="#DejaVuSans-2f" transform="translate(1291.650391 0.765625)"/>
      <use xlink:href="#DejaVuSans-73" transform="translate(1325.341797 0.765625)"/>
      <use xlink:href="#DejaVuSans-32" transform="translate(1378.398438 39.046875) scale(0.7)"/>
      <use xlink:href="#DejaVuSans-5d" transform="translate(1425.668945 0.765625)"/>
     </g>
    </g>
   </g>
   <g id="line2d_33">
    <path d="M 67.392188 293.674517 
L 67.766582 293.527681 
L 68.140976 293.087567 
L 68.640169 292.046685 
L 69.264159 290.023233 
L 69.88815 287.211452 
L 70.636938 282.826418 
L 71.510525 276.376759 
L 72.50891 267.362048 
L 73.756891 253.877854 
L 75.254468 234.965288 
L 77.126439 208.251755 
L 84.364729 101.537728 
L 85.987104 82.435108 
L 87.359884 68.686523 
L 88.607865 58.246607 
L 89.731047 50.551431 
L 90.729432 45.035994 
L 91.727817 40.709404 
L 92.601404 37.834399 
L 93.47499 35.736909 
L 94.223779 34.497002 
L 94.972568 33.713293 
L 95.596558 33.365936 
L 96.220549 33.258608 
L 96.844539 33.355141 
L 97.593328 33.689066 
L 98.591712 34.403322 
L 100.338886 36.006863 
L 102.086059 37.509235 
L 103.209242 38.187123 
L 104.207627 38.515109 
L 105.081214 38.563897 
L 105.9548 38.386201 
L 106.953185 37.922503 
L 108.076368 37.122395 
L 109.823542 35.533015 
L 111.570715 34.015217 
L 112.5691 33.442708 
L 113.317888 33.262768 
L 113.941879 33.32642 
L 114.565869 33.622898 
L 115.18986 34.187949 
L 115.81385 35.056341 
L 116.562639 36.545577 
L 117.311428 38.573217 
L 118.185014 41.683707 
L 119.058601 45.658984 
L 120.056986 51.327575 
L 121.180169 59.200914 
L 122.303352 68.686523 
L 123.551333 81.090101 
L 125.04891 98.412182 
L 126.796083 121.540459 
L 129.042449 154.61482 
L 134.408767 234.965288 
L 136.031143 255.327529 
L 137.403922 269.771992 
L 138.527105 279.311742 
L 139.525489 285.870478 
L 140.274278 289.523359 
L 140.898268 291.705866 
L 141.522259 293.087567 
L 141.896653 293.527681 
L 142.271048 293.674517 
L 142.645442 293.527681 
L 143.019836 293.087567 
L 143.519028 292.046685 
L 144.143019 290.023233 
L 144.76701 287.211452 
L 145.515798 282.826418 
L 146.389385 276.376759 
L 147.38777 267.362048 
L 148.635751 253.877854 
L 150.133328 234.965288 
L 152.005299 208.251755 
L 159.243589 101.537728 
L 160.865964 82.435108 
L 162.238743 68.686523 
L 163.486725 58.246607 
L 164.609907 50.551431 
L 165.608292 45.035994 
L 166.606677 40.709404 
L 167.480264 37.834399 
L 168.35385 35.736909 
L 169.102639 34.497002 
L 169.851428 33.713293 
L 170.475418 33.365936 
L 171.099409 33.258608 
L 171.723399 33.355141 
L 172.472188 33.689066 
L 173.470573 34.403322 
L 175.217746 36.006863 
L 176.964919 37.509235 
L 178.088102 38.187123 
L 179.086487 38.515109 
L 179.960074 38.563897 
L 180.83366 38.386201 
L 181.832045 37.922503 
L 182.955228 37.122395 
L 184.702402 35.533015 
L 186.449575 34.015217 
L 187.44796 33.442708 
L 188.196748 33.262768 
L 188.820739 33.32642 
L 189.444729 33.622898 
L 190.06872 34.187949 
L 190.69271 35.056341 
L 191.441499 36.545577 
L 192.190288 38.573217 
L 193.063874 41.683707 
L 193.937461 45.658984 
L 194.935846 51.327575 
L 196.059029 59.200914 
L 197.182212 68.686523 
L 198.430193 81.090101 
L 199.92777 98.412182 
L 201.674943 121.540459 
L 203.921309 154.61482 
L 209.287627 234.965288 
L 210.910003 255.327529 
L 212.282782 269.771992 
L 213.405965 279.311742 
L 214.404349 285.870478 
L 215.153138 289.523359 
L 215.777128 291.705866 
L 216.401119 293.087567 
L 216.775513 293.527681 
L 217.149908 293.674517 
L 217.524302 293.527681 
L 217.898696 293.087567 
L 218.397888 292.046685 
L 219.021879 290.023233 
L 219.64587 287.211452 
L 220.394658 282.826418 
L 221.268245 276.376759 
L 222.26663 267.362048 
L 223.514611 253.877854 
L 225.012188 234.965288 
L 226.884159 208.251755 
L 234.122449 101.537728 
L 235.744824 82.435108 
L 237.117604 68.686523 
L 238.365585 58.246607 
L 239.488767 50.551431 
L 240.487152 45.035994 
L 241.485537 40.709404 
L 242.359124 37.834399 
L 243.23271 35.736909 
L 243.981499 34.497002 
L 244.730288 33.713293 
L 245.354278 33.365936 
L 245.978269 33.258608 
L 246.602259 33.355141 
L 247.351048 33.689066 
L 248.349433 34.403322 
L 250.096606 36.006863 
L 251.843779 37.509235 
L 252.966962 38.187123 
L 253.965347 38.515109 
L 254.838934 38.563897 
L 255.71252 38.386201 
L 256.710905 37.922503 
L 257.834088 37.122395 
L 259.581261 35.533015 
L 261.328435 34.015217 
L 262.32682 33.442708 
L 263.075608 33.262768 
L 263.699599 33.32642 
L 264.323589 33.622898 
L 264.94758 34.187949 
L 265.57157 35.056341 
L 266.320359 36.545577 
L 267.069147 38.573217 
L 267.942734 41.683707 
L 268.816321 45.658984 
L 269.814706 51.327575 
L 270.937889 59.200914 
L 272.061072 68.686523 
L 273.309053 81.090101 
L 274.80663 98.412182 
L 276.553803 121.540459 
L 278.800169 154.61482 
L 284.166487 234.965288 
L 285.788863 255.327529 
L 287.161642 269.771992 
L 288.284825 279.311742 
L 289.283209 285.870478 
L 290.031998 289.523359 
L 290.655988 291.705866 
L 291.279979 293.087567 
L 291.654373 293.527681 
L 292.028768 293.674517 
L 292.403162 293.527681 
L 292.777556 293.087567 
L 293.276749 292.046685 
L 293.900739 290.023233 
L 294.52473 287.211452 
L 295.273518 282.826418 
L 296.147105 276.376759 
L 297.14549 267.362048 
L 298.393471 253.877854 
L 299.891048 234.965288 
L 301.763019 208.251755 
L 309.001309 101.537728 
L 310.623684 82.435108 
L 311.996464 68.686523 
L 313.244444 58.246607 
L 314.367627 50.551431 
L 315.366012 45.035994 
L 316.364397 40.709404 
L 317.237984 37.834399 
L 318.11157 35.736909 
L 318.860359 34.497002 
L 319.609148 33.713293 
L 320.233138 33.365936 
L 320.857129 33.258608 
L 321.481119 33.355141 
L 322.229908 33.689066 
L 323.228292 34.403322 
L 324.975466 36.006863 
L 326.722639 37.509235 
L 327.845822 38.187123 
L 328.844207 38.515109 
L 329.717794 38.563897 
L 330.59138 38.386201 
L 331.589765 37.922503 
L 332.712948 37.122395 
L 334.460122 35.533015 
L 336.207295 34.015217 
L 337.20568 33.442708 
L 337.954468 33.262768 
L 338.578459 33.32642 
L 339.202449 33.622898 
L 339.82644 34.187949 
L 340.45043 35.056341 
L 341.199219 36.545577 
L 341.948008 38.573217 
L 342.821594 41.683707 
L 343.695181 45.658984 
L 344.693566 51.327575 
L 345.816749 59.200914 
L 346.939932 68.686523 
L 348.187913 81.090101 
L 349.68549 98.412182 
L 351.432663 121.540459 
L 353.679029 154.61482 
L 359.045347 234.965288 
L 360.667723 255.327529 
L 362.040502 269.771992 
L 363.163685 279.311742 
L 364.162069 285.870478 
L 364.910858 289.523359 
L 365.534848 291.705866 
L 366.158839 293.087567 
L 366.533233 293.527681 
L 366.907627 293.674517 
L 367.282022 293.527681 
L 367.656416 293.087567 
L 368.155609 292.046685 
L 368.779599 290.023233 
L 369.403589 287.211452 
L 370.152378 282.826418 
L 371.025965 276.376759 
L 372.02435 267.362048 
L 373.272331 253.877854 
L 374.769908 234.965288 
L 376.641879 208.251755 
L 383.880169 101.537728 
L 385.502544 82.435108 
L 386.875324 68.686523 
L 388.123305 58.246607 
L 389.246487 50.551431 
L 390.244872 45.035994 
L 391.243257 40.709404 
L 392.116844 37.834399 
L 392.99043 35.736909 
L 393.739219 34.497002 
L 394.488008 33.713293 
L 395.111998 33.365936 
L 395.735989 33.258608 
L 396.359979 33.355141 
L 397.108768 33.689066 
L 398.107152 34.403322 
L 399.854326 36.006863 
L 401.601499 37.509235 
L 402.724682 38.187123 
L 403.723067 38.515109 
L 404.596654 38.563897 
L 405.47024 38.386201 
L 406.468625 37.922503 
L 407.591808 37.122395 
L 409.338982 35.533015 
L 411.086155 34.015217 
L 412.08454 33.442708 
L 412.833328 33.262768 
L 413.457319 33.32642 
L 414.081309 33.622898 
L 414.7053 34.187949 
L 415.32929 35.056341 
L 416.078079 36.545577 
L 416.826868 38.573217 
L 417.700454 41.683707 
L 418.574041 45.658984 
L 419.572426 51.327575 
L 420.695609 59.200914 
L 421.818791 68.686523 
L 423.066773 81.090101 
L 424.56435 98.412182 
L 426.311523 121.540459 
L 428.557889 154.61482 
L 433.924207 234.965288 
L 435.546582 255.327529 
L 436.919362 269.771992 
L 438.042545 279.311742 
L 439.040929 285.870478 
L 439.789718 289.523359 
L 440.413708 291.705866 
L 441.037699 293.087567 
L 441.412093 293.527681 
L 441.786488 293.674517 
L 442.160882 293.527681 
L 442.535276 293.087567 
L 443.034469 292.046685 
L 443.658459 290.023233 
L 444.282449 287.211452 
L 445.031238 282.826418 
L 445.904825 276.376759 
L 446.90321 267.362048 
L 448.151191 253.877854 
L 449.648768 234.965288 
L 451.520739 208.251755 
L 458.759029 101.537728 
L 460.381404 82.435108 
L 461.754184 68.686523 
L 463.002165 58.246607 
L 464.125347 50.551431 
L 465.123732 45.035994 
L 466.122117 40.709404 
L 466.995704 37.834399 
L 467.86929 35.736909 
L 468.618079 34.497002 
L 469.366868 33.713293 
L 469.990858 33.365936 
L 470.614849 33.258608 
L 471.238839 33.355141 
L 471.987628 33.689066 
L 472.986013 34.403322 
L 474.733186 36.006863 
L 476.480359 37.509235 
L 477.603542 38.187123 
L 478.601927 38.515109 
L 479.475514 38.563897 
L 480.3491 38.386201 
L 481.347485 37.922503 
L 482.470668 37.122395 
L 484.217841 35.533015 
L 485.965015 34.015217 
L 486.9634 33.442708 
L 487.712188 33.262768 
L 488.336179 33.32642 
L 488.960169 33.622898 
L 489.58416 34.187949 
L 490.20815 35.056341 
L 490.956939 36.545577 
L 491.705727 38.573217 
L 492.579314 41.683707 
L 493.452901 45.658984 
L 494.451286 51.327575 
L 495.574469 59.200914 
L 496.697652 68.686523 
L 497.945633 81.090101 
L 499.44321 98.412182 
L 501.190383 121.540459 
L 503.436749 154.61482 
L 508.803067 234.965288 
L 510.425443 255.327529 
L 511.798222 269.771992 
L 512.921405 279.311742 
L 513.919789 285.870478 
L 514.668578 289.523359 
L 515.292568 291.705866 
L 515.916559 293.087567 
L 516.290953 293.527681 
L 516.665348 293.674517 
L 517.039742 293.527681 
L 517.414136 293.087567 
L 517.913329 292.046685 
L 518.537319 290.023233 
L 519.16131 287.211452 
L 519.910098 282.826418 
L 520.783685 276.376759 
L 521.78207 267.362048 
L 523.030051 253.877854 
L 524.527628 234.965288 
L 526.399599 208.251755 
L 533.637889 101.537728 
L 535.260264 82.435108 
L 536.633044 68.686523 
L 537.881025 58.246607 
L 539.004207 50.551431 
L 540.002592 45.035994 
L 541.000977 40.709404 
L 541.874564 37.834399 
L 542.74815 35.736909 
L 543.496939 34.497002 
L 544.245728 33.713293 
L 544.869718 33.365936 
L 545.493709 33.258608 
L 546.117699 33.355141 
L 546.866488 33.689066 
L 547.864873 34.403322 
L 549.612046 36.006863 
L 551.359219 37.509235 
L 552.482402 38.187123 
L 553.480787 38.515109 
L 554.354374 38.563897 
L 555.22796 38.386201 
L 556.226345 37.922503 
L 557.349528 37.122395 
L 559.096701 35.533015 
L 560.843875 34.015217 
L 561.84226 33.442708 
L 562.591048 33.262768 
L 563.215039 33.32642 
L 563.839029 33.622898 
L 564.46302 34.187949 
L 565.08701 35.056341 
L 565.835799 36.545577 
L 566.584587 38.573217 
L 567.458174 41.683707 
L 568.331761 45.658984 
L 569.330146 51.327575 
L 570.453329 59.200914 
L 571.576512 68.686523 
L 572.824493 81.090101 
L 574.32207 98.412182 
L 576.069243 121.540459 
L 578.315609 154.61482 
L 583.681927 234.965288 
L 585.304303 255.327529 
L 586.677082 269.771992 
L 587.800265 279.311742 
L 588.798649 285.870478 
L 589.547438 289.523359 
L 590.171428 291.705866 
L 590.795419 293.087567 
L 591.169813 293.527681 
L 591.544207 293.674517 
L 591.918602 293.527681 
L 592.292996 293.087567 
L 592.792188 292.046685 
L 593.416179 290.023233 
L 594.040169 287.211452 
L 594.788958 282.826418 
L 595.662545 276.376759 
L 596.66093 267.362048 
L 597.908911 253.877854 
L 599.406488 234.965288 
L 601.278459 208.251755 
L 608.516749 101.537728 
L 610.139124 82.435108 
L 611.511904 68.686523 
L 612.759884 58.246607 
L 613.883067 50.551431 
L 614.881452 45.035994 
L 615.879837 40.709404 
L 616.753424 37.834399 
L 617.62701 35.736909 
L 618.375799 34.497002 
L 619.124588 33.713293 
L 619.748578 33.365936 
L 620.372569 33.258608 
L 620.996559 33.355141 
L 621.745348 33.689066 
L 622.743733 34.403322 
L 624.490906 36.006863 
L 626.238079 37.509235 
L 627.361262 38.187123 
L 628.359647 38.515109 
L 629.233234 38.563897 
L 630.10682 38.386201 
L 631.105205 37.922503 
L 632.228388 37.122395 
L 633.975562 35.533015 
L 635.722735 34.015217 
L 636.72112 33.442708 
L 637.469908 33.262768 
L 638.093899 33.32642 
L 638.717889 33.622898 
L 639.34188 34.187949 
L 639.96587 35.056341 
L 640.714659 36.545577 
L 641.463448 38.573217 
L 642.337034 41.683707 
L 643.210621 45.658984 
L 644.209006 51.327575 
L 645.332189 59.200914 
L 646.455371 68.686523 
L 647.703353 81.090101 
L 649.20093 98.412182 
L 650.948103 121.540459 
L 653.194469 154.61482 
L 658.560787 234.965288 
L 660.183162 255.327529 
L 661.555942 269.771992 
L 662.679125 279.311742 
L 663.677509 285.870478 
L 664.426298 289.523359 
L 665.050288 291.705866 
L 665.674279 293.087567 
L 666.048673 293.527681 
L 666.423068 293.674517 
L 666.797462 293.527681 
L 667.171856 293.087567 
L 667.671049 292.046685 
L 668.295039 290.023233 
L 668.91903 287.211452 
L 669.667818 282.826418 
L 670.541405 276.376759 
L 671.53979 267.362048 
L 672.787771 253.877854 
L 674.285348 234.965288 
L 676.157319 208.251755 
L 683.395609 101.537728 
L 685.017984 82.435108 
L 686.390764 68.686523 
L 687.638744 58.246607 
L 688.761927 50.551431 
L 689.760312 45.035994 
L 690.758697 40.709404 
L 691.382687 38.573217 
L 691.382687 38.573217 
" clip-path="url(#p32ebed1c27)" style="fill: none; stroke: #1f77b4; stroke-width: 2; stroke-linecap: square"/>
   </g>
   <g id="line2d_34">
    <path d="M 67.392188 123.606984 
L 691.382687 123.606984 
" clip-path="url(#p32ebed1c27)" style="fill: none; stroke: #1f77b4; stroke-linecap: square"/>
   </g>
   <g id="patch_3">
    <path d="M 67.392188 306.695312 
L 67.392188 20.237812 
" style="fill: none; stroke: #000000; stroke-width: 0.8; stroke-linejoin: miter; stroke-linecap: square"/>
   </g>
   <g id="patch_4">
    <path d="M 691.382687 306.695312 
L 691.382687 20.237812 
" style="fill: none; stroke: #000000; stroke-width: 0.8; stroke-linejoin: miter; stroke-linecap: square"/>
   </g>
   <g id="patch_5">
    <path d="M 67.392188 306.695312 
L 691.382687 306.695312 
" style="fill: none; stroke: #000000; stroke-width: 0.8; stroke-linejoin: miter; stroke-linecap: square"/>
   </g>
   <g id="patch_6">
    <path d="M 67.392188 20.237812 
L 691.382687 20.237812 
" style="fill: none; stroke: #000000; stroke-width: 0.8; stroke-linejoin: miter; stroke-linecap: square"/>
   </g>
   <g id="text_19">
    <!-- Slider acceleration at 100 rpm -->
    <g transform="translate(272.869313 14.237812) scale(0.14 -0.14)">
     <defs>
      <path id="DejaVuSans-70" d="M 1159 525 
L 1159 -1331 
L 581 -1331 
L 581 3500 
L 1159 3500 
L 1159 2969 
Q 1341 3281 1617 3432 
Q 1894 3584 2278 3584 
Q 2916 3584 3314 3078 
Q 3713 2572 3713 1747 
Q 3713 922 3314 415 
Q 2916 -91 2278 -91 
Q 1894 -91 1617 61 
Q 1341 213 1159 525 
z
M 3116 1747 
Q 3116 2381 2855 2742 
Q 2594 3103 2138 3103 
Q 1681 3103 1420 2742 
Q 1159 2381 1159 1747 
Q 1159 1113 1420 752 
Q 1681 391 2138 391 
Q 2594 391 2855 752 
Q 3116 1113 3116 1747 
z
" transform="scale(0.015625)"/>
     </defs>
     <use xlink:href="#DejaVuSans-53"/>
     <use xlink:href="#DejaVuSans-6c" transform="translate(63.476562 0)"/>
     <use xlink:href="#DejaVuSans-69" transform="translate(91.259766 0)"/>
     <use xlink:href="#DejaVuSans-64" transform="translate(119.042969 0)"/>
     <use xlink:href="#DejaVuSans-65" transform="translate(182.519531 0)"/>
     <use xlink:href="#DejaVuSans-72" transform="translate(244.042969 0)"/>
     <use xlink:href="#DejaVuSans-20" transform="translate(285.15625 0)"/>
     <use xlink:href="#DejaVuSans-61" transform="translate(316.943359 0)"/>
     <use xlink:href="#DejaVuSans-63" transform="translate(378.222656 0)"/>
     <use xlink:href="#DejaVuSans-63" transform="translate(433.203125 0)"/>
     <use xlink:href="#DejaVuSans-65" transform="translate(488.183594 0)"/>
     <use xlink:href="#DejaVuSans-6c" transform="translate(549.707031 0)"/>
     <use xlink:href="#DejaVuSans-65" transform="translate(577.490234 0)"/>
     <use xlink:href="#DejaVuSans-72" transform="translate(639.013672 0)"/>
     <use xlink:href="#DejaVuSans-61" transform="translate(680.126953 0)"/>
     <use xlink:href="#DejaVuSans-74" transform="translate(741.40625 0)"/>
     <use xlink:href="#DejaVuSans-69" transform="translate(780.615234 0)"/>
     <use xlink:href="#DejaVuSans-6f" transform="translate(808.398438 0)"/>
     <use xlink:href="#DejaVuSans-6e" transform="translate(869.580078 0)"/>
     <use xlink:href="#DejaVuSans-20" transform="translate(932.958984 0)"/>
     <use xlink:href="#DejaVuSans-61" transform="translate(964.746094 0)"/>
     <use xlink:href="#DejaVuSans-74" transform="translate(1026.025391 0)"/>
     <use xlink:href="#DejaVuSans-20" transform="translate(1065.234375 0)"/>
     <use xlink:href="#DejaVuSans-31" transform="translate(1097.021484 0)"/>
     <use xlink:href="#DejaVuSans-30" transform="translate(1160.644531 0)"/>
     <use xlink:href="#DejaVuSans-30" transform="translate(1224.267578 0)"/>
     <use xlink:href="#DejaVuSans-20" transform="translate(1287.890625 0)"/>
     <use xlink:href="#DejaVuSans-72" transform="translate(1319.677734 0)"/>
     <use xlink:href="#DejaVuSans-70" transform="translate(1360.791016 0)"/>
     <use xlink:href="#DejaVuSans-6d" transform="translate(1424.267578 0)"/>
    </g>
   </g>
  </g>
 </g>
 <defs>
  <clipPath id="p32ebed1c27">
   <rect x="67.392188" y="20.237812" width="623.9905" height="286.4575"/>
  </clipPath>
 </defs>
</svg>
