<?xml version="1.0" encoding="UTF-8" standalone="no"?>
<!DOCTYPE svg PUBLIC "-//W3C//DTD SVG 1.1//EN"
 "http://www.w3.org/Graphics/SVG/1.1/DTD/svg11.dtd">
<!-- Generated by graphviz version 2.43.0 (0)
 -->
<!-- Title: solidworks_motion_result_tree_bw Pages: 1 -->
<svg width="841pt" height="4308pt"
 viewBox="0.00 0.00 840.60 4307.60" xmlns="http://www.w3.org/2000/svg" xmlns:xlink="http://www.w3.org/1999/xlink">
<g id="graph0" class="graph" transform="scale(1 1) rotate(0) translate(10.8 4296.8)">
<title>solidworks_motion_result_tree_bw</title>
<polygon fill="white" stroke="transparent" points="-10.8,10.8 -10.8,-4296.8 829.8,-4296.8 829.8,10.8 -10.8,10.8"/>
<!-- root -->
<g id="node1" class="node">
<title>root</title>
<path fill="white" stroke="black" stroke-width="1.8" d="M60,-1761C60,-1761 12,-1761 12,-1761 6,-1761 0,-1755 0,-1749 0,-1749 0,-1737 0,-1737 0,-1731 6,-1725 12,-1725 12,-1725 60,-1725 60,-1725 66,-1725 72,-1731 72,-1737 72,-1737 72,-1749 72,-1749 72,-1755 66,-1761 60,-1761"/>
<text text-anchor="middle" x="36" y="-1739.3" font-family="Noto Sans CJK JP" font-size="14.00">解析結果</text>
</g>
<!-- main_1 -->
<g id="node2" class="node">
<title>main_1</title>
<path fill="white" stroke="black" stroke-width="1.5" d="M261.5,-3411C261.5,-3411 156.5,-3411 156.5,-3411 150.5,-3411 144.5,-3405 144.5,-3399 144.5,-3399 144.5,-3387 144.5,-3387 144.5,-3381 150.5,-3375 156.5,-3375 156.5,-3375 261.5,-3375 261.5,-3375 267.5,-3375 273.5,-3381 273.5,-3387 273.5,-3387 273.5,-3399 273.5,-3399 273.5,-3405 267.5,-3411 261.5,-3411"/>
<text text-anchor="middle" x="209" y="-3389.9" font-family="Noto Sans CJK JP" font-size="12.00">変位・速度・加速度</text>
</g>
<!-- root&#45;&gt;main_1 -->
<g id="edge1" class="edge">
<title>root&#45;&gt;main_1</title>
<path fill="none" stroke="black" stroke-width="0.9" d="M72.34,-1757.33C110.18,-1757.33 164,-1757.33 164,-1757.33 164,-1757.33 164,-3196.43 164,-3374.91"/>
</g>
<!-- main_40 -->
<g id="node41" class="node">
<title>main_40</title>
<path fill="white" stroke="black" stroke-width="1.5" d="M224,-2036C224,-2036 194,-2036 194,-2036 188,-2036 182,-2030 182,-2024 182,-2024 182,-2012 182,-2012 182,-2006 188,-2000 194,-2000 194,-2000 224,-2000 224,-2000 230,-2000 236,-2006 236,-2012 236,-2012 236,-2024 236,-2024 236,-2030 230,-2036 224,-2036"/>
<text text-anchor="middle" x="209" y="-2014.9" font-family="Noto Sans CJK JP" font-size="12.00">力</text>
</g>
<!-- root&#45;&gt;main_40 -->
<g id="edge40" class="edge">
<title>root&#45;&gt;main_40</title>
<path fill="none" stroke="black" stroke-width="0.9" d="M72.4,-1753.67C120.71,-1753.67 200,-1753.67 200,-1753.67 200,-1753.67 200,-1940.11 200,-1999.83"/>
</g>
<!-- main_83 -->
<g id="node84" class="node">
<title>main_83</title>
<path fill="white" stroke="black" stroke-width="1.5" d="M287,-1311C287,-1311 131,-1311 131,-1311 125,-1311 119,-1305 119,-1299 119,-1299 119,-1287 119,-1287 119,-1281 125,-1275 131,-1275 131,-1275 287,-1275 287,-1275 293,-1275 299,-1281 299,-1287 299,-1287 299,-1299 299,-1299 299,-1305 293,-1311 287,-1311"/>
<text text-anchor="middle" x="209" y="-1289.9" font-family="Noto Sans CJK JP" font-size="12.00">運動量・エネルギー・パワー</text>
</g>
<!-- root&#45;&gt;main_83 -->
<g id="edge83" class="edge">
<title>root&#45;&gt;main_83</title>
<path fill="none" stroke="black" stroke-width="0.9" d="M72.02,-1728.67C99.26,-1728.67 132,-1728.67 132,-1728.67 132,-1728.67 132,-1393.62 132,-1311.17"/>
</g>
<!-- main_106 -->
<g id="node107" class="node">
<title>main_106</title>
<path fill="white" stroke="black" stroke-width="1.5" d="M224,-486C224,-486 194,-486 194,-486 188,-486 182,-480 182,-474 182,-474 182,-462 182,-462 182,-456 188,-450 194,-450 194,-450 224,-450 224,-450 230,-450 236,-456 236,-462 236,-462 236,-474 236,-474 236,-480 230,-486 224,-486"/>
<text text-anchor="middle" x="209" y="-464.9" font-family="Noto Sans CJK JP" font-size="12.00">他の量</text>
</g>
<!-- root&#45;&gt;main_106 -->
<g id="edge106" class="edge">
<title>root&#45;&gt;main_106</title>
<path fill="none" stroke="black" stroke-width="0.9" d="M36,-1724.98C36,-1570.01 36,-468 36,-468 36,-468 133.31,-468 181.97,-468"/>
</g>
<!-- sub_2 -->
<g id="node3" class="node">
<title>sub_2</title>
<path fill="white" stroke="black" stroke-width="1.2" d="M444.5,-4011C444.5,-4011 402.5,-4011 402.5,-4011 396.5,-4011 390.5,-4005 390.5,-3999 390.5,-3999 390.5,-3987 390.5,-3987 390.5,-3981 396.5,-3975 402.5,-3975 402.5,-3975 444.5,-3975 444.5,-3975 450.5,-3975 456.5,-3981 456.5,-3987 456.5,-3987 456.5,-3999 456.5,-3999 456.5,-4005 450.5,-4011 444.5,-4011"/>
<text text-anchor="middle" x="423.5" y="-3990.5" font-family="Noto Sans CJK JP" font-size="10.00">（変位）</text>
</g>
<!-- main_1&#45;&gt;sub_2 -->
<g id="edge2" class="edge">
<title>main_1&#45;&gt;sub_2</title>
<path fill="none" stroke="black" stroke-width="0.9" d="M209,-3411.28C209,-3511.84 209,-3993 209,-3993 209,-3993 330.29,-3993 390.45,-3993"/>
</g>
<!-- sub_16 -->
<g id="node17" class="node">
<title>sub_16</title>
<path fill="white" stroke="black" stroke-width="1.2" d="M444.5,-3511C444.5,-3511 402.5,-3511 402.5,-3511 396.5,-3511 390.5,-3505 390.5,-3499 390.5,-3499 390.5,-3487 390.5,-3487 390.5,-3481 396.5,-3475 402.5,-3475 402.5,-3475 444.5,-3475 444.5,-3475 450.5,-3475 456.5,-3481 456.5,-3487 456.5,-3487 456.5,-3499 456.5,-3499 456.5,-3505 450.5,-3511 444.5,-3511"/>
<text text-anchor="middle" x="423.5" y="-3490.5" font-family="Noto Sans CJK JP" font-size="10.00">（速度）</text>
</g>
<!-- main_1&#45;&gt;sub_16 -->
<g id="edge16" class="edge">
<title>main_1&#45;&gt;sub_16</title>
<path fill="none" stroke="black" stroke-width="0.9" d="M273.51,-3405.5C336.84,-3405.5 424,-3405.5 424,-3405.5 424,-3405.5 424,-3449.24 424,-3474.87"/>
</g>
<!-- sub_28 -->
<g id="node29" class="node">
<title>sub_28</title>
<path fill="white" stroke="black" stroke-width="1.2" d="M450.5,-3286C450.5,-3286 396.5,-3286 396.5,-3286 390.5,-3286 384.5,-3280 384.5,-3274 384.5,-3274 384.5,-3262 384.5,-3262 384.5,-3256 390.5,-3250 396.5,-3250 396.5,-3250 450.5,-3250 450.5,-3250 456.5,-3250 462.5,-3256 462.5,-3262 462.5,-3262 462.5,-3274 462.5,-3274 462.5,-3280 456.5,-3286 450.5,-3286"/>
<text text-anchor="middle" x="423.5" y="-3265.5" font-family="Noto Sans CJK JP" font-size="10.00">（加速度）</text>
</g>
<!-- main_1&#45;&gt;sub_28 -->
<g id="edge28" class="edge">
<title>main_1&#45;&gt;sub_28</title>
<path fill="none" stroke="black" stroke-width="0.9" d="M255,-3374.82C255,-3340.16 255,-3268 255,-3268 255,-3268 334.64,-3268 384.42,-3268"/>
</g>
<!-- item_3 -->
<g id="node4" class="node">
<title>item_3</title>
<path fill="white" stroke="black" d="M634,-4248C634,-4248 604,-4248 604,-4248 598,-4248 592,-4242 592,-4236 592,-4236 592,-4224 592,-4224 592,-4218 598,-4212 604,-4212 604,-4212 634,-4212 634,-4212 640,-4212 646,-4218 646,-4224 646,-4224 646,-4236 646,-4236 646,-4242 640,-4248 634,-4248"/>
<text text-anchor="middle" x="619" y="-4227.5" font-family="Noto Sans CJK JP" font-size="10.00">軌跡</text>
</g>
<!-- sub_2&#45;&gt;item_3 -->
<g id="edge3" class="edge">
<title>sub_2&#45;&gt;item_3</title>
<path fill="none" stroke="black" stroke-width="0.9" d="M413,-4011.2C413,-4066.7 413,-4230 413,-4230 413,-4230 535.61,-4230 591.64,-4230"/>
</g>
<!-- item_5 -->
<g id="node6" class="node">
<title>item_5</title>
<path fill="white" stroke="black" d="M640,-4161C640,-4161 598,-4161 598,-4161 592,-4161 586,-4155 586,-4149 586,-4149 586,-4137 586,-4137 586,-4131 592,-4125 598,-4125 598,-4125 640,-4125 640,-4125 646,-4125 652,-4131 652,-4137 652,-4137 652,-4149 652,-4149 652,-4155 646,-4161 640,-4161"/>
<text text-anchor="middle" x="619" y="-4140.5" font-family="Noto Sans CJK JP" font-size="10.00">重心位置</text>
</g>
<!-- sub_2&#45;&gt;item_5 -->
<g id="edge5" class="edge">
<title>sub_2&#45;&gt;item_5</title>
<path fill="none" stroke="black" stroke-width="0.9" d="M435,-4011.09C435,-4050.99 435,-4143 435,-4143 435,-4143 532.66,-4143 585.68,-4143"/>
</g>
<!-- item_9 -->
<g id="node10" class="node">
<title>item_9</title>
<path fill="white" stroke="black" d="M640,-4011C640,-4011 598,-4011 598,-4011 592,-4011 586,-4005 586,-3999 586,-3999 586,-3987 586,-3987 586,-3981 592,-3975 598,-3975 598,-3975 640,-3975 640,-3975 646,-3975 652,-3981 652,-3987 652,-3987 652,-3999 652,-3999 652,-4005 646,-4011 640,-4011"/>
<text text-anchor="middle" x="619" y="-3990.5" font-family="Noto Sans CJK JP" font-size="10.00">線形変位</text>
</g>
<!-- sub_2&#45;&gt;item_9 -->
<g id="edge9" class="edge">
<title>sub_2&#45;&gt;item_9</title>
<path fill="none" stroke="black" stroke-width="0.9" d="M456.66,-3993C492.61,-3993 549.66,-3993 585.67,-3993"/>
</g>
<!-- item_14 -->
<g id="node15" class="node">
<title>item_14</title>
<path fill="white" stroke="black" d="M640,-3936C640,-3936 598,-3936 598,-3936 592,-3936 586,-3930 586,-3924 586,-3924 586,-3912 586,-3912 586,-3906 592,-3900 598,-3900 598,-3900 640,-3900 640,-3900 646,-3900 652,-3906 652,-3912 652,-3912 652,-3924 652,-3924 652,-3930 646,-3936 640,-3936"/>
<text text-anchor="middle" x="619" y="-3915.5" font-family="Noto Sans CJK JP" font-size="10.00">角度変位</text>
</g>
<!-- sub_2&#45;&gt;item_14 -->
<g id="edge14" class="edge">
<title>sub_2&#45;&gt;item_14</title>
<path fill="none" stroke="black" stroke-width="0.9" d="M435,-3974.84C435,-3952.65 435,-3918 435,-3918 435,-3918 532.66,-3918 585.68,-3918"/>
</g>
<!-- component_4 -->
<g id="node5" class="node">
<title>component_4</title>
<path fill="white" stroke="black" stroke-width="0.8" d="M793,-4286C793,-4286 763,-4286 763,-4286 757,-4286 751,-4280 751,-4274 751,-4274 751,-4262 751,-4262 751,-4256 757,-4250 763,-4250 763,-4250 793,-4250 793,-4250 799,-4250 805,-4256 805,-4262 805,-4262 805,-4274 805,-4274 805,-4280 799,-4286 793,-4286"/>
<text text-anchor="middle" x="778" y="-4265.8" font-family="Noto Sans CJK JP" font-size="9.00">&#45;</text>
</g>
<!-- item_3&#45;&gt;component_4 -->
<g id="edge4" class="edge">
<title>item_3&#45;&gt;component_4</title>
<path fill="none" stroke="black" stroke-width="0.9" d="M646.33,-4242C691.79,-4242 778,-4242 778,-4242 778,-4242 778,-4245.51 778,-4249.94"/>
</g>
<!-- component_6 -->
<g id="node7" class="node">
<title>component_6</title>
<path fill="white" stroke="black" stroke-width="0.8" d="M793,-4236C793,-4236 763,-4236 763,-4236 757,-4236 751,-4230 751,-4224 751,-4224 751,-4212 751,-4212 751,-4206 757,-4200 763,-4200 763,-4200 793,-4200 793,-4200 799,-4200 805,-4206 805,-4212 805,-4212 805,-4224 805,-4224 805,-4230 799,-4236 793,-4236"/>
<text text-anchor="middle" x="778" y="-4215.8" font-family="Noto Sans CJK JP" font-size="9.00">X成分</text>
</g>
<!-- item_5&#45;&gt;component_6 -->
<g id="edge6" class="edge">
<title>item_5&#45;&gt;component_6</title>
<path fill="none" stroke="black" stroke-width="0.9" d="M619,-4161.22C619,-4179.83 619,-4206 619,-4206 619,-4206 705.21,-4206 750.67,-4206"/>
</g>
<!-- component_7 -->
<g id="node8" class="node">
<title>component_7</title>
<path fill="white" stroke="black" stroke-width="0.8" d="M793,-4186C793,-4186 763,-4186 763,-4186 757,-4186 751,-4180 751,-4174 751,-4174 751,-4162 751,-4162 751,-4156 757,-4150 763,-4150 763,-4150 793,-4150 793,-4150 799,-4150 805,-4156 805,-4162 805,-4162 805,-4174 805,-4174 805,-4180 799,-4186 793,-4186"/>
<text text-anchor="middle" x="778" y="-4165.8" font-family="Noto Sans CJK JP" font-size="9.00">Y成分</text>
</g>
<!-- item_5&#45;&gt;component_7 -->
<g id="edge7" class="edge">
<title>item_5&#45;&gt;component_7</title>
<path fill="none" stroke="black" stroke-width="0.9" d="M652.33,-4155.5C681.56,-4155.5 723.54,-4155.5 750.79,-4155.5"/>
</g>
<!-- component_8 -->
<g id="node9" class="node">
<title>component_8</title>
<path fill="white" stroke="black" stroke-width="0.8" d="M793,-4136C793,-4136 763,-4136 763,-4136 757,-4136 751,-4130 751,-4124 751,-4124 751,-4112 751,-4112 751,-4106 757,-4100 763,-4100 763,-4100 793,-4100 793,-4100 799,-4100 805,-4106 805,-4112 805,-4112 805,-4124 805,-4124 805,-4130 799,-4136 793,-4136"/>
<text text-anchor="middle" x="778" y="-4115.8" font-family="Noto Sans CJK JP" font-size="9.00">Z成分</text>
</g>
<!-- item_5&#45;&gt;component_8 -->
<g id="edge8" class="edge">
<title>item_5&#45;&gt;component_8</title>
<path fill="none" stroke="black" stroke-width="0.9" d="M652.33,-4130.5C681.56,-4130.5 723.54,-4130.5 750.79,-4130.5"/>
</g>
<!-- component_10 -->
<g id="node11" class="node">
<title>component_10</title>
<path fill="white" stroke="black" stroke-width="0.8" d="M793,-4086C793,-4086 763,-4086 763,-4086 757,-4086 751,-4080 751,-4074 751,-4074 751,-4062 751,-4062 751,-4056 757,-4050 763,-4050 763,-4050 793,-4050 793,-4050 799,-4050 805,-4056 805,-4062 805,-4062 805,-4074 805,-4074 805,-4080 799,-4086 793,-4086"/>
<text text-anchor="middle" x="778" y="-4065.8" font-family="Noto Sans CJK JP" font-size="9.00">X成分</text>
</g>
<!-- item_9&#45;&gt;component_10 -->
<g id="edge10" class="edge">
<title>item_9&#45;&gt;component_10</title>
<path fill="none" stroke="black" stroke-width="0.9" d="M619,-4011.16C619,-4033.35 619,-4068 619,-4068 619,-4068 705.21,-4068 750.67,-4068"/>
</g>
<!-- component_11 -->
<g id="node12" class="node">
<title>component_11</title>
<path fill="white" stroke="black" stroke-width="0.8" d="M793,-4036C793,-4036 763,-4036 763,-4036 757,-4036 751,-4030 751,-4024 751,-4024 751,-4012 751,-4012 751,-4006 757,-4000 763,-4000 763,-4000 793,-4000 793,-4000 799,-4000 805,-4006 805,-4012 805,-4012 805,-4024 805,-4024 805,-4030 799,-4036 793,-4036"/>
<text text-anchor="middle" x="778" y="-4015.8" font-family="Noto Sans CJK JP" font-size="9.00">Y成分</text>
</g>
<!-- item_9&#45;&gt;component_11 -->
<g id="edge11" class="edge">
<title>item_9&#45;&gt;component_11</title>
<path fill="none" stroke="black" stroke-width="0.9" d="M652.33,-4005.5C681.56,-4005.5 723.54,-4005.5 750.79,-4005.5"/>
</g>
<!-- component_12 -->
<g id="node13" class="node">
<title>component_12</title>
<path fill="white" stroke="black" stroke-width="0.8" d="M793,-3986C793,-3986 763,-3986 763,-3986 757,-3986 751,-3980 751,-3974 751,-3974 751,-3962 751,-3962 751,-3956 757,-3950 763,-3950 763,-3950 793,-3950 793,-3950 799,-3950 805,-3956 805,-3962 805,-3962 805,-3974 805,-3974 805,-3980 799,-3986 793,-3986"/>
<text text-anchor="middle" x="778" y="-3965.8" font-family="Noto Sans CJK JP" font-size="9.00">Z成分</text>
</g>
<!-- item_9&#45;&gt;component_12 -->
<g id="edge12" class="edge">
<title>item_9&#45;&gt;component_12</title>
<path fill="none" stroke="black" stroke-width="0.9" d="M652.33,-3982.33C681.56,-3982.33 723.54,-3982.33 750.79,-3982.33"/>
</g>
<!-- component_13 -->
<g id="node14" class="node">
<title>component_13</title>
<path fill="white" stroke="black" stroke-width="0.8" d="M793,-3936C793,-3936 763,-3936 763,-3936 757,-3936 751,-3930 751,-3924 751,-3924 751,-3912 751,-3912 751,-3906 757,-3900 763,-3900 763,-3900 793,-3900 793,-3900 799,-3900 805,-3906 805,-3912 805,-3912 805,-3924 805,-3924 805,-3930 799,-3936 793,-3936"/>
<text text-anchor="middle" x="778" y="-3915.8" font-family="Noto Sans CJK JP" font-size="9.00">大きさ</text>
</g>
<!-- item_9&#45;&gt;component_13 -->
<g id="edge13" class="edge">
<title>item_9&#45;&gt;component_13</title>
<path fill="none" stroke="black" stroke-width="0.9" d="M652.29,-3978.67C665.68,-3978.67 678,-3978.67 678,-3978.67 678,-3978.67 678,-3918 678,-3918 678,-3918 721.32,-3918 750.94,-3918"/>
</g>
<!-- component_15 -->
<g id="node16" class="node">
<title>component_15</title>
<path fill="white" stroke="black" stroke-width="0.8" d="M793,-3886C793,-3886 763,-3886 763,-3886 757,-3886 751,-3880 751,-3874 751,-3874 751,-3862 751,-3862 751,-3856 757,-3850 763,-3850 763,-3850 793,-3850 793,-3850 799,-3850 805,-3856 805,-3862 805,-3862 805,-3874 805,-3874 805,-3880 799,-3886 793,-3886"/>
<text text-anchor="middle" x="778" y="-3865.8" font-family="Noto Sans CJK JP" font-size="9.00">大きさ</text>
</g>
<!-- item_14&#45;&gt;component_15 -->
<g id="edge15" class="edge">
<title>item_14&#45;&gt;component_15</title>
<path fill="none" stroke="black" stroke-width="0.9" d="M636,-3899.95C636,-3885.63 636,-3868 636,-3868 636,-3868 709.76,-3868 750.96,-3868"/>
</g>
<!-- item_17 -->
<g id="node18" class="node">
<title>item_17</title>
<path fill="white" stroke="black" d="M640,-3711C640,-3711 598,-3711 598,-3711 592,-3711 586,-3705 586,-3699 586,-3699 586,-3687 586,-3687 586,-3681 592,-3675 598,-3675 598,-3675 640,-3675 640,-3675 646,-3675 652,-3681 652,-3687 652,-3687 652,-3699 652,-3699 652,-3705 646,-3711 640,-3711"/>
<text text-anchor="middle" x="619" y="-3690.5" font-family="Noto Sans CJK JP" font-size="10.00">並進速度</text>
</g>
<!-- sub_16&#45;&gt;item_17 -->
<g id="edge17" class="edge">
<title>sub_16&#45;&gt;item_17</title>
<path fill="none" stroke="black" stroke-width="0.9" d="M413,-3511.1C413,-3560.33 413,-3693 413,-3693 413,-3693 527.67,-3693 585.9,-3693"/>
</g>
<!-- item_23 -->
<g id="node24" class="node">
<title>item_23</title>
<path fill="white" stroke="black" d="M634,-3511C634,-3511 604,-3511 604,-3511 598,-3511 592,-3505 592,-3499 592,-3499 592,-3487 592,-3487 592,-3481 598,-3475 604,-3475 604,-3475 634,-3475 634,-3475 640,-3475 646,-3481 646,-3487 646,-3487 646,-3499 646,-3499 646,-3505 640,-3511 634,-3511"/>
<text text-anchor="middle" x="619" y="-3490.5" font-family="Noto Sans CJK JP" font-size="10.00">角速度</text>
</g>
<!-- sub_16&#45;&gt;item_23 -->
<g id="edge23" class="edge">
<title>sub_16&#45;&gt;item_23</title>
<path fill="none" stroke="black" stroke-width="0.9" d="M456.66,-3493C494.79,-3493 556.65,-3493 591.98,-3493"/>
</g>
<!-- component_18 -->
<g id="node19" class="node">
<title>component_18</title>
<path fill="white" stroke="black" stroke-width="0.8" d="M793,-3836C793,-3836 763,-3836 763,-3836 757,-3836 751,-3830 751,-3824 751,-3824 751,-3812 751,-3812 751,-3806 757,-3800 763,-3800 763,-3800 793,-3800 793,-3800 799,-3800 805,-3806 805,-3812 805,-3812 805,-3824 805,-3824 805,-3830 799,-3836 793,-3836"/>
<text text-anchor="middle" x="778" y="-3815.8" font-family="Noto Sans CJK JP" font-size="9.00">X成分</text>
</g>
<!-- item_17&#45;&gt;component_18 -->
<g id="edge18" class="edge">
<title>item_17&#45;&gt;component_18</title>
<path fill="none" stroke="black" stroke-width="0.9" d="M603,-3711.18C603,-3745.84 603,-3818 603,-3818 603,-3818 701.44,-3818 750.66,-3818"/>
</g>
<!-- component_19 -->
<g id="node20" class="node">
<title>component_19</title>
<path fill="white" stroke="black" stroke-width="0.8" d="M793,-3786C793,-3786 763,-3786 763,-3786 757,-3786 751,-3780 751,-3774 751,-3774 751,-3762 751,-3762 751,-3756 757,-3750 763,-3750 763,-3750 793,-3750 793,-3750 799,-3750 805,-3756 805,-3762 805,-3762 805,-3774 805,-3774 805,-3780 799,-3786 793,-3786"/>
<text text-anchor="middle" x="778" y="-3765.8" font-family="Noto Sans CJK JP" font-size="9.00">Y成分</text>
</g>
<!-- item_17&#45;&gt;component_19 -->
<g id="edge19" class="edge">
<title>item_17&#45;&gt;component_19</title>
<path fill="none" stroke="black" stroke-width="0.9" d="M619,-3711.16C619,-3733.35 619,-3768 619,-3768 619,-3768 705.21,-3768 750.67,-3768"/>
</g>
<!-- component_20 -->
<g id="node21" class="node">
<title>component_20</title>
<path fill="white" stroke="black" stroke-width="0.8" d="M793,-3736C793,-3736 763,-3736 763,-3736 757,-3736 751,-3730 751,-3724 751,-3724 751,-3712 751,-3712 751,-3706 757,-3700 763,-3700 763,-3700 793,-3700 793,-3700 799,-3700 805,-3706 805,-3712 805,-3712 805,-3724 805,-3724 805,-3730 799,-3736 793,-3736"/>
<text text-anchor="middle" x="778" y="-3715.8" font-family="Noto Sans CJK JP" font-size="9.00">Z成分</text>
</g>
<!-- item_17&#45;&gt;component_20 -->
<g id="edge20" class="edge">
<title>item_17&#45;&gt;component_20</title>
<path fill="none" stroke="black" stroke-width="0.9" d="M652.33,-3705.5C681.56,-3705.5 723.54,-3705.5 750.79,-3705.5"/>
</g>
<!-- component_21 -->
<g id="node22" class="node">
<title>component_21</title>
<path fill="white" stroke="black" stroke-width="0.8" d="M793,-3686C793,-3686 763,-3686 763,-3686 757,-3686 751,-3680 751,-3674 751,-3674 751,-3662 751,-3662 751,-3656 757,-3650 763,-3650 763,-3650 793,-3650 793,-3650 799,-3650 805,-3656 805,-3662 805,-3662 805,-3674 805,-3674 805,-3680 799,-3686 793,-3686"/>
<text text-anchor="middle" x="778" y="-3665.8" font-family="Noto Sans CJK JP" font-size="9.00">大きさ</text>
</g>
<!-- item_17&#45;&gt;component_21 -->
<g id="edge21" class="edge">
<title>item_17&#45;&gt;component_21</title>
<path fill="none" stroke="black" stroke-width="0.9" d="M652.33,-3682.33C681.56,-3682.33 723.54,-3682.33 750.79,-3682.33"/>
</g>
<!-- component_22 -->
<g id="node23" class="node">
<title>component_22</title>
<path fill="white" stroke="black" stroke-width="0.8" d="M807,-3636C807,-3636 749,-3636 749,-3636 743,-3636 737,-3630 737,-3624 737,-3624 737,-3612 737,-3612 737,-3606 743,-3600 749,-3600 749,-3600 807,-3600 807,-3600 813,-3600 819,-3606 819,-3612 819,-3612 819,-3624 819,-3624 819,-3630 813,-3636 807,-3636"/>
<text text-anchor="middle" x="778" y="-3615.8" font-family="Noto Sans CJK JP" font-size="9.00">ラジアル成分</text>
</g>
<!-- item_17&#45;&gt;component_22 -->
<g id="edge22" class="edge">
<title>item_17&#45;&gt;component_22</title>
<path fill="none" stroke="black" stroke-width="0.9" d="M652.17,-3678.67C689.2,-3678.67 744,-3678.67 744,-3678.67 744,-3678.67 744,-3654.07 744,-3636.2"/>
</g>
<!-- component_24 -->
<g id="node25" class="node">
<title>component_24</title>
<path fill="white" stroke="black" stroke-width="0.8" d="M793,-3586C793,-3586 763,-3586 763,-3586 757,-3586 751,-3580 751,-3574 751,-3574 751,-3562 751,-3562 751,-3556 757,-3550 763,-3550 763,-3550 793,-3550 793,-3550 799,-3550 805,-3556 805,-3562 805,-3562 805,-3574 805,-3574 805,-3580 799,-3586 793,-3586"/>
<text text-anchor="middle" x="778" y="-3565.8" font-family="Noto Sans CJK JP" font-size="9.00">X成分</text>
</g>
<!-- item_23&#45;&gt;component_24 -->
<g id="edge24" class="edge">
<title>item_23&#45;&gt;component_24</title>
<path fill="none" stroke="black" stroke-width="0.9" d="M619,-3511.16C619,-3533.35 619,-3568 619,-3568 619,-3568 705.21,-3568 750.67,-3568"/>
</g>
<!-- component_25 -->
<g id="node26" class="node">
<title>component_25</title>
<path fill="white" stroke="black" stroke-width="0.8" d="M793,-3536C793,-3536 763,-3536 763,-3536 757,-3536 751,-3530 751,-3524 751,-3524 751,-3512 751,-3512 751,-3506 757,-3500 763,-3500 763,-3500 793,-3500 793,-3500 799,-3500 805,-3506 805,-3512 805,-3512 805,-3524 805,-3524 805,-3530 799,-3536 793,-3536"/>
<text text-anchor="middle" x="778" y="-3515.8" font-family="Noto Sans CJK JP" font-size="9.00">Y成分</text>
</g>
<!-- item_23&#45;&gt;component_25 -->
<g id="edge25" class="edge">
<title>item_23&#45;&gt;component_25</title>
<path fill="none" stroke="black" stroke-width="0.9" d="M646.33,-3505.5C675.54,-3505.5 721.58,-3505.5 750.76,-3505.5"/>
</g>
<!-- component_26 -->
<g id="node27" class="node">
<title>component_26</title>
<path fill="white" stroke="black" stroke-width="0.8" d="M793,-3486C793,-3486 763,-3486 763,-3486 757,-3486 751,-3480 751,-3474 751,-3474 751,-3462 751,-3462 751,-3456 757,-3450 763,-3450 763,-3450 793,-3450 793,-3450 799,-3450 805,-3456 805,-3462 805,-3462 805,-3474 805,-3474 805,-3480 799,-3486 793,-3486"/>
<text text-anchor="middle" x="778" y="-3465.8" font-family="Noto Sans CJK JP" font-size="9.00">Z成分</text>
</g>
<!-- item_23&#45;&gt;component_26 -->
<g id="edge26" class="edge">
<title>item_23&#45;&gt;component_26</title>
<path fill="none" stroke="black" stroke-width="0.9" d="M646.33,-3480.5C675.54,-3480.5 721.58,-3480.5 750.76,-3480.5"/>
</g>
<!-- component_27 -->
<g id="node28" class="node">
<title>component_27</title>
<path fill="white" stroke="black" stroke-width="0.8" d="M793,-3436C793,-3436 763,-3436 763,-3436 757,-3436 751,-3430 751,-3424 751,-3424 751,-3412 751,-3412 751,-3406 757,-3400 763,-3400 763,-3400 793,-3400 793,-3400 799,-3400 805,-3406 805,-3412 805,-3412 805,-3424 805,-3424 805,-3430 799,-3436 793,-3436"/>
<text text-anchor="middle" x="778" y="-3415.8" font-family="Noto Sans CJK JP" font-size="9.00">大きさ</text>
</g>
<!-- item_23&#45;&gt;component_27 -->
<g id="edge27" class="edge">
<title>item_23&#45;&gt;component_27</title>
<path fill="none" stroke="black" stroke-width="0.9" d="M619,-3474.74C619,-3454.15 619,-3423.5 619,-3423.5 619,-3423.5 705.21,-3423.5 750.67,-3423.5"/>
</g>
<!-- item_29 -->
<g id="node30" class="node">
<title>item_29</title>
<path fill="white" stroke="black" d="M646,-3286C646,-3286 592,-3286 592,-3286 586,-3286 580,-3280 580,-3274 580,-3274 580,-3262 580,-3262 580,-3256 586,-3250 592,-3250 592,-3250 646,-3250 646,-3250 652,-3250 658,-3256 658,-3262 658,-3262 658,-3274 658,-3274 658,-3280 652,-3286 646,-3286"/>
<text text-anchor="middle" x="619" y="-3265.5" font-family="Noto Sans CJK JP" font-size="10.00">並進加速度</text>
</g>
<!-- sub_28&#45;&gt;item_29 -->
<g id="edge29" class="edge">
<title>sub_28&#45;&gt;item_29</title>
<path fill="none" stroke="black" stroke-width="0.9" d="M462.59,-3268C496.69,-3268 545.9,-3268 579.98,-3268"/>
</g>
<!-- item_35 -->
<g id="node36" class="node">
<title>item_35</title>
<path fill="white" stroke="black" d="M640,-3086C640,-3086 598,-3086 598,-3086 592,-3086 586,-3080 586,-3074 586,-3074 586,-3062 586,-3062 586,-3056 592,-3050 598,-3050 598,-3050 640,-3050 640,-3050 646,-3050 652,-3056 652,-3062 652,-3062 652,-3074 652,-3074 652,-3080 646,-3086 640,-3086"/>
<text text-anchor="middle" x="619" y="-3065.5" font-family="Noto Sans CJK JP" font-size="10.00">角加速度</text>
</g>
<!-- sub_28&#45;&gt;item_35 -->
<g id="edge35" class="edge">
<title>sub_28&#45;&gt;item_35</title>
<path fill="none" stroke="black" stroke-width="0.9" d="M411,-3249.9C411,-3200.67 411,-3068 411,-3068 411,-3068 526.78,-3068 585.58,-3068"/>
</g>
<!-- component_30 -->
<g id="node31" class="node">
<title>component_30</title>
<path fill="white" stroke="black" stroke-width="0.8" d="M793,-3386C793,-3386 763,-3386 763,-3386 757,-3386 751,-3380 751,-3374 751,-3374 751,-3362 751,-3362 751,-3356 757,-3350 763,-3350 763,-3350 793,-3350 793,-3350 799,-3350 805,-3356 805,-3362 805,-3362 805,-3374 805,-3374 805,-3380 799,-3386 793,-3386"/>
<text text-anchor="middle" x="778" y="-3365.8" font-family="Noto Sans CJK JP" font-size="9.00">X成分</text>
</g>
<!-- item_29&#45;&gt;component_30 -->
<g id="edge30" class="edge">
<title>item_29&#45;&gt;component_30</title>
<path fill="none" stroke="black" stroke-width="0.9" d="M606,-3286.22C606,-3313.68 606,-3362.5 606,-3362.5 606,-3362.5 702.25,-3362.5 750.75,-3362.5"/>
</g>
<!-- component_31 -->
<g id="node32" class="node">
<title>component_31</title>
<path fill="white" stroke="black" stroke-width="0.8" d="M793,-3336C793,-3336 763,-3336 763,-3336 757,-3336 751,-3330 751,-3324 751,-3324 751,-3312 751,-3312 751,-3306 757,-3300 763,-3300 763,-3300 793,-3300 793,-3300 799,-3300 805,-3306 805,-3312 805,-3312 805,-3324 805,-3324 805,-3330 799,-3336 793,-3336"/>
<text text-anchor="middle" x="778" y="-3315.8" font-family="Noto Sans CJK JP" font-size="9.00">Y成分</text>
</g>
<!-- item_29&#45;&gt;component_31 -->
<g id="edge31" class="edge">
<title>item_29&#45;&gt;component_31</title>
<path fill="none" stroke="black" stroke-width="0.9" d="M633,-3286.05C633,-3300.37 633,-3318 633,-3318 633,-3318 708.72,-3318 750.73,-3318"/>
</g>
<!-- component_32 -->
<g id="node33" class="node">
<title>component_32</title>
<path fill="white" stroke="black" stroke-width="0.8" d="M793,-3286C793,-3286 763,-3286 763,-3286 757,-3286 751,-3280 751,-3274 751,-3274 751,-3262 751,-3262 751,-3256 757,-3250 763,-3250 763,-3250 793,-3250 793,-3250 799,-3250 805,-3256 805,-3262 805,-3262 805,-3274 805,-3274 805,-3280 799,-3286 793,-3286"/>
<text text-anchor="middle" x="778" y="-3265.8" font-family="Noto Sans CJK JP" font-size="9.00">Z成分</text>
</g>
<!-- item_29&#45;&gt;component_32 -->
<g id="edge32" class="edge">
<title>item_29&#45;&gt;component_32</title>
<path fill="none" stroke="black" stroke-width="0.9" d="M658.3,-3274C687,-3274 725.17,-3274 750.61,-3274"/>
</g>
<!-- component_33 -->
<g id="node34" class="node">
<title>component_33</title>
<path fill="white" stroke="black" stroke-width="0.8" d="M793,-3236C793,-3236 763,-3236 763,-3236 757,-3236 751,-3230 751,-3224 751,-3224 751,-3212 751,-3212 751,-3206 757,-3200 763,-3200 763,-3200 793,-3200 793,-3200 799,-3200 805,-3206 805,-3212 805,-3212 805,-3224 805,-3224 805,-3230 799,-3236 793,-3236"/>
<text text-anchor="middle" x="778" y="-3215.8" font-family="Noto Sans CJK JP" font-size="9.00">大きさ</text>
</g>
<!-- item_29&#45;&gt;component_33 -->
<g id="edge33" class="edge">
<title>item_29&#45;&gt;component_33</title>
<path fill="none" stroke="black" stroke-width="0.9" d="M630,-3249.95C630,-3235.63 630,-3218 630,-3218 630,-3218 708.13,-3218 750.85,-3218"/>
</g>
<!-- component_34 -->
<g id="node35" class="node">
<title>component_34</title>
<path fill="white" stroke="black" stroke-width="0.8" d="M807,-3186C807,-3186 749,-3186 749,-3186 743,-3186 737,-3180 737,-3174 737,-3174 737,-3162 737,-3162 737,-3156 743,-3150 749,-3150 749,-3150 807,-3150 807,-3150 813,-3150 819,-3156 819,-3162 819,-3162 819,-3174 819,-3174 819,-3180 813,-3186 807,-3186"/>
<text text-anchor="middle" x="778" y="-3165.8" font-family="Noto Sans CJK JP" font-size="9.00">ラジアル成分</text>
</g>
<!-- item_29&#45;&gt;component_34 -->
<g id="edge34" class="edge">
<title>item_29&#45;&gt;component_34</title>
<path fill="none" stroke="black" stroke-width="0.9" d="M658.21,-3262C694.87,-3262 744,-3262 744,-3262 744,-3262 744,-3213.44 744,-3186.12"/>
</g>
<!-- component_36 -->
<g id="node37" class="node">
<title>component_36</title>
<path fill="white" stroke="black" stroke-width="0.8" d="M793,-3136C793,-3136 763,-3136 763,-3136 757,-3136 751,-3130 751,-3124 751,-3124 751,-3112 751,-3112 751,-3106 757,-3100 763,-3100 763,-3100 793,-3100 793,-3100 799,-3100 805,-3106 805,-3112 805,-3112 805,-3124 805,-3124 805,-3130 799,-3136 793,-3136"/>
<text text-anchor="middle" x="778" y="-3115.8" font-family="Noto Sans CJK JP" font-size="9.00">X成分</text>
</g>
<!-- item_35&#45;&gt;component_36 -->
<g id="edge36" class="edge">
<title>item_35&#45;&gt;component_36</title>
<path fill="none" stroke="black" stroke-width="0.9" d="M608,-3086.05C608,-3100.37 608,-3118 608,-3118 608,-3118 702.63,-3118 750.69,-3118"/>
</g>
<!-- component_37 -->
<g id="node38" class="node">
<title>component_37</title>
<path fill="white" stroke="black" stroke-width="0.8" d="M793,-3086C793,-3086 763,-3086 763,-3086 757,-3086 751,-3080 751,-3074 751,-3074 751,-3062 751,-3062 751,-3056 757,-3050 763,-3050 763,-3050 793,-3050 793,-3050 799,-3050 805,-3056 805,-3062 805,-3062 805,-3074 805,-3074 805,-3080 799,-3086 793,-3086"/>
<text text-anchor="middle" x="778" y="-3065.8" font-family="Noto Sans CJK JP" font-size="9.00">Y成分</text>
</g>
<!-- item_35&#45;&gt;component_37 -->
<g id="edge37" class="edge">
<title>item_35&#45;&gt;component_37</title>
<path fill="none" stroke="black" stroke-width="0.9" d="M652.33,-3068C681.56,-3068 723.54,-3068 750.79,-3068"/>
</g>
<!-- component_38 -->
<g id="node39" class="node">
<title>component_38</title>
<path fill="white" stroke="black" stroke-width="0.8" d="M793,-3036C793,-3036 763,-3036 763,-3036 757,-3036 751,-3030 751,-3024 751,-3024 751,-3012 751,-3012 751,-3006 757,-3000 763,-3000 763,-3000 793,-3000 793,-3000 799,-3000 805,-3006 805,-3012 805,-3012 805,-3024 805,-3024 805,-3030 799,-3036 793,-3036"/>
<text text-anchor="middle" x="778" y="-3015.8" font-family="Noto Sans CJK JP" font-size="9.00">Z成分</text>
</g>
<!-- item_35&#45;&gt;component_38 -->
<g id="edge38" class="edge">
<title>item_35&#45;&gt;component_38</title>
<path fill="none" stroke="black" stroke-width="0.9" d="M639,-3049.95C639,-3035.63 639,-3018 639,-3018 639,-3018 710.42,-3018 750.87,-3018"/>
</g>
<!-- component_39 -->
<g id="node40" class="node">
<title>component_39</title>
<path fill="white" stroke="black" stroke-width="0.8" d="M793,-2986C793,-2986 763,-2986 763,-2986 757,-2986 751,-2980 751,-2974 751,-2974 751,-2962 751,-2962 751,-2956 757,-2950 763,-2950 763,-2950 793,-2950 793,-2950 799,-2950 805,-2956 805,-2962 805,-2962 805,-2974 805,-2974 805,-2980 799,-2986 793,-2986"/>
<text text-anchor="middle" x="778" y="-2965.8" font-family="Noto Sans CJK JP" font-size="9.00">大きさ</text>
</g>
<!-- item_35&#45;&gt;component_39 -->
<g id="edge39" class="edge">
<title>item_35&#45;&gt;component_39</title>
<path fill="none" stroke="black" stroke-width="0.9" d="M613,-3049.66C613,-3020.79 613,-2968 613,-2968 613,-2968 703.89,-2968 750.75,-2968"/>
</g>
<!-- sub_41 -->
<g id="node42" class="node">
<title>sub_41</title>
<path fill="white" stroke="black" stroke-width="1.2" d="M450.5,-2661C450.5,-2661 396.5,-2661 396.5,-2661 390.5,-2661 384.5,-2655 384.5,-2649 384.5,-2649 384.5,-2637 384.5,-2637 384.5,-2631 390.5,-2625 396.5,-2625 396.5,-2625 450.5,-2625 450.5,-2625 456.5,-2625 462.5,-2631 462.5,-2637 462.5,-2637 462.5,-2649 462.5,-2649 462.5,-2655 456.5,-2661 450.5,-2661"/>
<text text-anchor="middle" x="423.5" y="-2640.5" font-family="Noto Sans CJK JP" font-size="10.00">（モータ）</text>
</g>
<!-- main_40&#45;&gt;sub_41 -->
<g id="edge41" class="edge">
<title>main_40&#45;&gt;sub_41</title>
<path fill="none" stroke="black" stroke-width="0.9" d="M196,-2036.03C196,-2138.51 196,-2643 196,-2643 196,-2643 319.35,-2643 384.39,-2643"/>
</g>
<!-- sub_52 -->
<g id="node53" class="node">
<title>sub_52</title>
<path fill="white" stroke="black" stroke-width="1.2" d="M444.5,-2261C444.5,-2261 402.5,-2261 402.5,-2261 396.5,-2261 390.5,-2255 390.5,-2249 390.5,-2249 390.5,-2237 390.5,-2237 390.5,-2231 396.5,-2225 402.5,-2225 402.5,-2225 444.5,-2225 444.5,-2225 450.5,-2225 456.5,-2231 456.5,-2237 456.5,-2237 456.5,-2249 456.5,-2249 456.5,-2255 450.5,-2261 444.5,-2261"/>
<text text-anchor="middle" x="423.5" y="-2240.5" font-family="Noto Sans CJK JP" font-size="10.00">（拘束）</text>
</g>
<!-- main_40&#45;&gt;sub_52 -->
<g id="edge52" class="edge">
<title>main_40&#45;&gt;sub_52</title>
<path fill="none" stroke="black" stroke-width="0.9" d="M209,-2036.03C209,-2089.42 209,-2243 209,-2243 209,-2243 330.29,-2243 390.45,-2243"/>
</g>
<!-- sub_63 -->
<g id="node64" class="node">
<title>sub_63</title>
<path fill="white" stroke="black" stroke-width="1.2" d="M444.5,-2086C444.5,-2086 402.5,-2086 402.5,-2086 396.5,-2086 390.5,-2080 390.5,-2074 390.5,-2074 390.5,-2062 390.5,-2062 390.5,-2056 396.5,-2050 402.5,-2050 402.5,-2050 444.5,-2050 444.5,-2050 450.5,-2050 456.5,-2056 456.5,-2062 456.5,-2062 456.5,-2074 456.5,-2074 456.5,-2080 450.5,-2086 444.5,-2086"/>
<text text-anchor="middle" x="423.5" y="-2065.5" font-family="Noto Sans CJK JP" font-size="10.00">（ばね）</text>
</g>
<!-- main_40&#45;&gt;sub_63 -->
<g id="edge63" class="edge">
<title>main_40&#45;&gt;sub_63</title>
<path fill="none" stroke="black" stroke-width="0.9" d="M223,-2036.05C223,-2050.37 223,-2068 223,-2068 223,-2068 333.44,-2068 390.39,-2068"/>
</g>
<!-- sub_66 -->
<g id="node67" class="node">
<title>sub_66</title>
<path fill="white" stroke="black" stroke-width="1.2" d="M444.5,-2011C444.5,-2011 402.5,-2011 402.5,-2011 396.5,-2011 390.5,-2005 390.5,-1999 390.5,-1999 390.5,-1987 390.5,-1987 390.5,-1981 396.5,-1975 402.5,-1975 402.5,-1975 444.5,-1975 444.5,-1975 450.5,-1975 456.5,-1981 456.5,-1987 456.5,-1987 456.5,-1999 456.5,-1999 456.5,-2005 450.5,-2011 444.5,-2011"/>
<text text-anchor="middle" x="423.5" y="-1990.5" font-family="Noto Sans CJK JP" font-size="10.00">（摩擦）</text>
</g>
<!-- main_40&#45;&gt;sub_66 -->
<g id="edge66" class="edge">
<title>main_40&#45;&gt;sub_66</title>
<path fill="none" stroke="black" stroke-width="0.9" d="M236.17,-2005.5C275.4,-2005.5 347.84,-2005.5 390.23,-2005.5"/>
</g>
<!-- sub_77 -->
<g id="node78" class="node">
<title>sub_77</title>
<path fill="white" stroke="black" stroke-width="1.2" d="M444.5,-1811C444.5,-1811 402.5,-1811 402.5,-1811 396.5,-1811 390.5,-1805 390.5,-1799 390.5,-1799 390.5,-1787 390.5,-1787 390.5,-1781 396.5,-1775 402.5,-1775 402.5,-1775 444.5,-1775 444.5,-1775 450.5,-1775 456.5,-1781 456.5,-1787 456.5,-1787 456.5,-1799 456.5,-1799 456.5,-1805 450.5,-1811 444.5,-1811"/>
<text text-anchor="middle" x="423.5" y="-1790.5" font-family="Noto Sans CJK JP" font-size="10.00">（接触）</text>
</g>
<!-- main_40&#45;&gt;sub_77 -->
<g id="edge77" class="edge">
<title>main_40&#45;&gt;sub_77</title>
<path fill="none" stroke="black" stroke-width="0.9" d="M218,-1999.97C218,-1946.58 218,-1793 218,-1793 218,-1793 332.39,-1793 390.48,-1793"/>
</g>
<!-- item_42 -->
<g id="node43" class="node">
<title>item_42</title>
<path fill="white" stroke="black" d="M640,-2836C640,-2836 598,-2836 598,-2836 592,-2836 586,-2830 586,-2824 586,-2824 586,-2812 586,-2812 586,-2806 592,-2800 598,-2800 598,-2800 640,-2800 640,-2800 646,-2800 652,-2806 652,-2812 652,-2812 652,-2824 652,-2824 652,-2830 646,-2836 640,-2836"/>
<text text-anchor="middle" x="619" y="-2815.5" font-family="Noto Sans CJK JP" font-size="10.00">モータ力</text>
</g>
<!-- sub_41&#45;&gt;item_42 -->
<g id="edge42" class="edge">
<title>sub_41&#45;&gt;item_42</title>
<path fill="none" stroke="black" stroke-width="0.9" d="M437,-2661.07C437,-2705.78 437,-2818 437,-2818 437,-2818 533.08,-2818 585.62,-2818"/>
</g>
<!-- item_47 -->
<g id="node48" class="node">
<title>item_47</title>
<path fill="white" stroke="black" d="M652.5,-2661C652.5,-2661 585.5,-2661 585.5,-2661 579.5,-2661 573.5,-2655 573.5,-2649 573.5,-2649 573.5,-2637 573.5,-2637 573.5,-2631 579.5,-2625 585.5,-2625 585.5,-2625 652.5,-2625 652.5,-2625 658.5,-2625 664.5,-2631 664.5,-2637 664.5,-2637 664.5,-2649 664.5,-2649 664.5,-2655 658.5,-2661 652.5,-2661"/>
<text text-anchor="middle" x="619" y="-2640.5" font-family="Noto Sans CJK JP" font-size="10.00">モータトルク</text>
</g>
<!-- sub_41&#45;&gt;item_47 -->
<g id="edge47" class="edge">
<title>sub_41&#45;&gt;item_47</title>
<path fill="none" stroke="black" stroke-width="0.9" d="M462.59,-2643C494.57,-2643 539.85,-2643 573.46,-2643"/>
</g>
<!-- component_43 -->
<g id="node44" class="node">
<title>component_43</title>
<path fill="white" stroke="black" stroke-width="0.8" d="M793,-2936C793,-2936 763,-2936 763,-2936 757,-2936 751,-2930 751,-2924 751,-2924 751,-2912 751,-2912 751,-2906 757,-2900 763,-2900 763,-2900 793,-2900 793,-2900 799,-2900 805,-2906 805,-2912 805,-2912 805,-2924 805,-2924 805,-2930 799,-2936 793,-2936"/>
<text text-anchor="middle" x="778" y="-2915.8" font-family="Noto Sans CJK JP" font-size="9.00">X成分</text>
</g>
<!-- item_42&#45;&gt;component_43 -->
<g id="edge43" class="edge">
<title>item_42&#45;&gt;component_43</title>
<path fill="none" stroke="black" stroke-width="0.9" d="M600,-2836.34C600,-2865.21 600,-2918 600,-2918 600,-2918 701.17,-2918 750.97,-2918"/>
</g>
<!-- component_44 -->
<g id="node45" class="node">
<title>component_44</title>
<path fill="white" stroke="black" stroke-width="0.8" d="M793,-2886C793,-2886 763,-2886 763,-2886 757,-2886 751,-2880 751,-2874 751,-2874 751,-2862 751,-2862 751,-2856 757,-2850 763,-2850 763,-2850 793,-2850 793,-2850 799,-2850 805,-2856 805,-2862 805,-2862 805,-2874 805,-2874 805,-2880 799,-2886 793,-2886"/>
<text text-anchor="middle" x="778" y="-2865.8" font-family="Noto Sans CJK JP" font-size="9.00">Y成分</text>
</g>
<!-- item_42&#45;&gt;component_44 -->
<g id="edge44" class="edge">
<title>item_42&#45;&gt;component_44</title>
<path fill="none" stroke="black" stroke-width="0.9" d="M626,-2836.05C626,-2850.37 626,-2868 626,-2868 626,-2868 707.1,-2868 750.83,-2868"/>
</g>
<!-- component_45 -->
<g id="node46" class="node">
<title>component_45</title>
<path fill="white" stroke="black" stroke-width="0.8" d="M793,-2836C793,-2836 763,-2836 763,-2836 757,-2836 751,-2830 751,-2824 751,-2824 751,-2812 751,-2812 751,-2806 757,-2800 763,-2800 763,-2800 793,-2800 793,-2800 799,-2800 805,-2806 805,-2812 805,-2812 805,-2824 805,-2824 805,-2830 799,-2836 793,-2836"/>
<text text-anchor="middle" x="778" y="-2815.8" font-family="Noto Sans CJK JP" font-size="9.00">Z成分</text>
</g>
<!-- item_42&#45;&gt;component_45 -->
<g id="edge45" class="edge">
<title>item_42&#45;&gt;component_45</title>
<path fill="none" stroke="black" stroke-width="0.9" d="M652.33,-2818C681.56,-2818 723.54,-2818 750.79,-2818"/>
</g>
<!-- component_46 -->
<g id="node47" class="node">
<title>component_46</title>
<path fill="white" stroke="black" stroke-width="0.8" d="M793,-2786C793,-2786 763,-2786 763,-2786 757,-2786 751,-2780 751,-2774 751,-2774 751,-2762 751,-2762 751,-2756 757,-2750 763,-2750 763,-2750 793,-2750 793,-2750 799,-2750 805,-2756 805,-2762 805,-2762 805,-2774 805,-2774 805,-2780 799,-2786 793,-2786"/>
<text text-anchor="middle" x="778" y="-2765.8" font-family="Noto Sans CJK JP" font-size="9.00">大きさ</text>
</g>
<!-- item_42&#45;&gt;component_46 -->
<g id="edge46" class="edge">
<title>item_42&#45;&gt;component_46</title>
<path fill="none" stroke="black" stroke-width="0.9" d="M630,-2799.95C630,-2785.63 630,-2768 630,-2768 630,-2768 708.13,-2768 750.85,-2768"/>
</g>
<!-- component_48 -->
<g id="node49" class="node">
<title>component_48</title>
<path fill="white" stroke="black" stroke-width="0.8" d="M793,-2736C793,-2736 763,-2736 763,-2736 757,-2736 751,-2730 751,-2724 751,-2724 751,-2712 751,-2712 751,-2706 757,-2700 763,-2700 763,-2700 793,-2700 793,-2700 799,-2700 805,-2706 805,-2712 805,-2712 805,-2724 805,-2724 805,-2730 799,-2736 793,-2736"/>
<text text-anchor="middle" x="778" y="-2715.8" font-family="Noto Sans CJK JP" font-size="9.00">X成分</text>
</g>
<!-- item_47&#45;&gt;component_48 -->
<g id="edge48" class="edge">
<title>item_47&#45;&gt;component_48</title>
<path fill="none" stroke="black" stroke-width="0.9" d="M608,-2661.16C608,-2683.35 608,-2718 608,-2718 608,-2718 702.63,-2718 750.69,-2718"/>
</g>
<!-- component_49 -->
<g id="node50" class="node">
<title>component_49</title>
<path fill="white" stroke="black" stroke-width="0.8" d="M793,-2686C793,-2686 763,-2686 763,-2686 757,-2686 751,-2680 751,-2674 751,-2674 751,-2662 751,-2662 751,-2656 757,-2650 763,-2650 763,-2650 793,-2650 793,-2650 799,-2650 805,-2656 805,-2662 805,-2662 805,-2674 805,-2674 805,-2680 799,-2686 793,-2686"/>
<text text-anchor="middle" x="778" y="-2665.8" font-family="Noto Sans CJK JP" font-size="9.00">Y成分</text>
</g>
<!-- item_47&#45;&gt;component_49 -->
<g id="edge49" class="edge">
<title>item_47&#45;&gt;component_49</title>
<path fill="none" stroke="black" stroke-width="0.9" d="M664.56,-2655.5C692.46,-2655.5 727.22,-2655.5 750.86,-2655.5"/>
</g>
<!-- component_50 -->
<g id="node51" class="node">
<title>component_50</title>
<path fill="white" stroke="black" stroke-width="0.8" d="M793,-2636C793,-2636 763,-2636 763,-2636 757,-2636 751,-2630 751,-2624 751,-2624 751,-2612 751,-2612 751,-2606 757,-2600 763,-2600 763,-2600 793,-2600 793,-2600 799,-2600 805,-2606 805,-2612 805,-2612 805,-2624 805,-2624 805,-2630 799,-2636 793,-2636"/>
<text text-anchor="middle" x="778" y="-2615.8" font-family="Noto Sans CJK JP" font-size="9.00">Z成分</text>
</g>
<!-- item_47&#45;&gt;component_50 -->
<g id="edge50" class="edge">
<title>item_47&#45;&gt;component_50</title>
<path fill="none" stroke="black" stroke-width="0.9" d="M664.56,-2630.5C692.46,-2630.5 727.22,-2630.5 750.86,-2630.5"/>
</g>
<!-- component_51 -->
<g id="node52" class="node">
<title>component_51</title>
<path fill="white" stroke="black" stroke-width="0.8" d="M793,-2586C793,-2586 763,-2586 763,-2586 757,-2586 751,-2580 751,-2574 751,-2574 751,-2562 751,-2562 751,-2556 757,-2550 763,-2550 763,-2550 793,-2550 793,-2550 799,-2550 805,-2556 805,-2562 805,-2562 805,-2574 805,-2574 805,-2580 799,-2586 793,-2586"/>
<text text-anchor="middle" x="778" y="-2565.8" font-family="Noto Sans CJK JP" font-size="9.00">大きさ</text>
</g>
<!-- item_47&#45;&gt;component_51 -->
<g id="edge51" class="edge">
<title>item_47&#45;&gt;component_51</title>
<path fill="none" stroke="black" stroke-width="0.9" d="M659,-2624.84C659,-2602.65 659,-2568 659,-2568 659,-2568 715.89,-2568 751,-2568"/>
</g>
<!-- item_53 -->
<g id="node54" class="node">
<title>item_53</title>
<path fill="white" stroke="black" d="M634,-2436C634,-2436 604,-2436 604,-2436 598,-2436 592,-2430 592,-2424 592,-2424 592,-2412 592,-2412 592,-2406 598,-2400 604,-2400 604,-2400 634,-2400 634,-2400 640,-2400 646,-2406 646,-2412 646,-2412 646,-2424 646,-2424 646,-2430 640,-2436 634,-2436"/>
<text text-anchor="middle" x="619" y="-2415.5" font-family="Noto Sans CJK JP" font-size="10.00">反力</text>
</g>
<!-- sub_52&#45;&gt;item_53 -->
<g id="edge53" class="edge">
<title>sub_52&#45;&gt;item_53</title>
<path fill="none" stroke="black" stroke-width="0.9" d="M424,-2261.07C424,-2305.78 424,-2418 424,-2418 424,-2418 538.31,-2418 591.89,-2418"/>
</g>
<!-- item_58 -->
<g id="node59" class="node">
<title>item_58</title>
<path fill="white" stroke="black" d="M652.5,-2261C652.5,-2261 585.5,-2261 585.5,-2261 579.5,-2261 573.5,-2255 573.5,-2249 573.5,-2249 573.5,-2237 573.5,-2237 573.5,-2231 579.5,-2225 585.5,-2225 585.5,-2225 652.5,-2225 652.5,-2225 658.5,-2225 664.5,-2231 664.5,-2237 664.5,-2237 664.5,-2249 664.5,-2249 664.5,-2255 658.5,-2261 652.5,-2261"/>
<text text-anchor="middle" x="619" y="-2240.5" font-family="Noto Sans CJK JP" font-size="10.00">反モーメント</text>
</g>
<!-- sub_52&#45;&gt;item_58 -->
<g id="edge58" class="edge">
<title>sub_52&#45;&gt;item_58</title>
<path fill="none" stroke="black" stroke-width="0.9" d="M456.66,-2243C488.69,-2243 537.46,-2243 573.19,-2243"/>
</g>
<!-- component_54 -->
<g id="node55" class="node">
<title>component_54</title>
<path fill="white" stroke="black" stroke-width="0.8" d="M793,-2536C793,-2536 763,-2536 763,-2536 757,-2536 751,-2530 751,-2524 751,-2524 751,-2512 751,-2512 751,-2506 757,-2500 763,-2500 763,-2500 793,-2500 793,-2500 799,-2500 805,-2506 805,-2512 805,-2512 805,-2524 805,-2524 805,-2530 799,-2536 793,-2536"/>
<text text-anchor="middle" x="778" y="-2515.8" font-family="Noto Sans CJK JP" font-size="9.00">X成分</text>
</g>
<!-- item_53&#45;&gt;component_54 -->
<g id="edge54" class="edge">
<title>item_53&#45;&gt;component_54</title>
<path fill="none" stroke="black" stroke-width="0.9" d="M610,-2436.34C610,-2465.21 610,-2518 610,-2518 610,-2518 703.03,-2518 750.63,-2518"/>
</g>
<!-- component_55 -->
<g id="node56" class="node">
<title>component_55</title>
<path fill="white" stroke="black" stroke-width="0.8" d="M793,-2486C793,-2486 763,-2486 763,-2486 757,-2486 751,-2480 751,-2474 751,-2474 751,-2462 751,-2462 751,-2456 757,-2450 763,-2450 763,-2450 793,-2450 793,-2450 799,-2450 805,-2456 805,-2462 805,-2462 805,-2474 805,-2474 805,-2480 799,-2486 793,-2486"/>
<text text-anchor="middle" x="778" y="-2465.8" font-family="Noto Sans CJK JP" font-size="9.00">Y成分</text>
</g>
<!-- item_53&#45;&gt;component_55 -->
<g id="edge55" class="edge">
<title>item_53&#45;&gt;component_55</title>
<path fill="none" stroke="black" stroke-width="0.9" d="M628,-2436.05C628,-2450.37 628,-2468 628,-2468 628,-2468 707.61,-2468 750.84,-2468"/>
</g>
<!-- component_56 -->
<g id="node57" class="node">
<title>component_56</title>
<path fill="white" stroke="black" stroke-width="0.8" d="M793,-2436C793,-2436 763,-2436 763,-2436 757,-2436 751,-2430 751,-2424 751,-2424 751,-2412 751,-2412 751,-2406 757,-2400 763,-2400 763,-2400 793,-2400 793,-2400 799,-2400 805,-2406 805,-2412 805,-2412 805,-2424 805,-2424 805,-2430 799,-2436 793,-2436"/>
<text text-anchor="middle" x="778" y="-2415.8" font-family="Noto Sans CJK JP" font-size="9.00">Z成分</text>
</g>
<!-- item_53&#45;&gt;component_56 -->
<g id="edge56" class="edge">
<title>item_53&#45;&gt;component_56</title>
<path fill="none" stroke="black" stroke-width="0.9" d="M646.33,-2418C675.54,-2418 721.58,-2418 750.76,-2418"/>
</g>
<!-- component_57 -->
<g id="node58" class="node">
<title>component_57</title>
<path fill="white" stroke="black" stroke-width="0.8" d="M793,-2386C793,-2386 763,-2386 763,-2386 757,-2386 751,-2380 751,-2374 751,-2374 751,-2362 751,-2362 751,-2356 757,-2350 763,-2350 763,-2350 793,-2350 793,-2350 799,-2350 805,-2356 805,-2362 805,-2362 805,-2374 805,-2374 805,-2380 799,-2386 793,-2386"/>
<text text-anchor="middle" x="778" y="-2365.8" font-family="Noto Sans CJK JP" font-size="9.00">大きさ</text>
</g>
<!-- item_53&#45;&gt;component_57 -->
<g id="edge57" class="edge">
<title>item_53&#45;&gt;component_57</title>
<path fill="none" stroke="black" stroke-width="0.9" d="M619,-2399.95C619,-2385.63 619,-2368 619,-2368 619,-2368 705.21,-2368 750.67,-2368"/>
</g>
<!-- component_59 -->
<g id="node60" class="node">
<title>component_59</title>
<path fill="white" stroke="black" stroke-width="0.8" d="M793,-2336C793,-2336 763,-2336 763,-2336 757,-2336 751,-2330 751,-2324 751,-2324 751,-2312 751,-2312 751,-2306 757,-2300 763,-2300 763,-2300 793,-2300 793,-2300 799,-2300 805,-2306 805,-2312 805,-2312 805,-2324 805,-2324 805,-2330 799,-2336 793,-2336"/>
<text text-anchor="middle" x="778" y="-2315.8" font-family="Noto Sans CJK JP" font-size="9.00">X成分</text>
</g>
<!-- item_58&#45;&gt;component_59 -->
<g id="edge59" class="edge">
<title>item_58&#45;&gt;component_59</title>
<path fill="none" stroke="black" stroke-width="0.9" d="M653,-2261.16C653,-2283.35 653,-2318 653,-2318 653,-2318 714.11,-2318 750.88,-2318"/>
</g>
<!-- component_60 -->
<g id="node61" class="node">
<title>component_60</title>
<path fill="white" stroke="black" stroke-width="0.8" d="M793,-2286C793,-2286 763,-2286 763,-2286 757,-2286 751,-2280 751,-2274 751,-2274 751,-2262 751,-2262 751,-2256 757,-2250 763,-2250 763,-2250 793,-2250 793,-2250 799,-2250 805,-2256 805,-2262 805,-2262 805,-2274 805,-2274 805,-2280 799,-2286 793,-2286"/>
<text text-anchor="middle" x="778" y="-2265.8" font-family="Noto Sans CJK JP" font-size="9.00">Y成分</text>
</g>
<!-- item_58&#45;&gt;component_60 -->
<g id="edge60" class="edge">
<title>item_58&#45;&gt;component_60</title>
<path fill="none" stroke="black" stroke-width="0.9" d="M664.56,-2255.5C692.46,-2255.5 727.22,-2255.5 750.86,-2255.5"/>
</g>
<!-- component_61 -->
<g id="node62" class="node">
<title>component_61</title>
<path fill="white" stroke="black" stroke-width="0.8" d="M793,-2236C793,-2236 763,-2236 763,-2236 757,-2236 751,-2230 751,-2224 751,-2224 751,-2212 751,-2212 751,-2206 757,-2200 763,-2200 763,-2200 793,-2200 793,-2200 799,-2200 805,-2206 805,-2212 805,-2212 805,-2224 805,-2224 805,-2230 799,-2236 793,-2236"/>
<text text-anchor="middle" x="778" y="-2215.8" font-family="Noto Sans CJK JP" font-size="9.00">Z成分</text>
</g>
<!-- item_58&#45;&gt;component_61 -->
<g id="edge61" class="edge">
<title>item_58&#45;&gt;component_61</title>
<path fill="none" stroke="black" stroke-width="0.9" d="M664.56,-2230.5C692.46,-2230.5 727.22,-2230.5 750.86,-2230.5"/>
</g>
<!-- component_62 -->
<g id="node63" class="node">
<title>component_62</title>
<path fill="white" stroke="black" stroke-width="0.8" d="M793,-2186C793,-2186 763,-2186 763,-2186 757,-2186 751,-2180 751,-2174 751,-2174 751,-2162 751,-2162 751,-2156 757,-2150 763,-2150 763,-2150 793,-2150 793,-2150 799,-2150 805,-2156 805,-2162 805,-2162 805,-2174 805,-2174 805,-2180 799,-2186 793,-2186"/>
<text text-anchor="middle" x="778" y="-2165.8" font-family="Noto Sans CJK JP" font-size="9.00">大きさ</text>
</g>
<!-- item_58&#45;&gt;component_62 -->
<g id="edge62" class="edge">
<title>item_58&#45;&gt;component_62</title>
<path fill="none" stroke="black" stroke-width="0.9" d="M653,-2224.84C653,-2202.65 653,-2168 653,-2168 653,-2168 714.11,-2168 750.88,-2168"/>
</g>
<!-- item_64 -->
<g id="node65" class="node">
<title>item_64</title>
<path fill="white" stroke="black" d="M634,-2111C634,-2111 604,-2111 604,-2111 598,-2111 592,-2105 592,-2099 592,-2099 592,-2087 592,-2087 592,-2081 598,-2075 604,-2075 604,-2075 634,-2075 634,-2075 640,-2075 646,-2081 646,-2087 646,-2087 646,-2099 646,-2099 646,-2105 640,-2111 634,-2111"/>
<text text-anchor="middle" x="619" y="-2090.5" font-family="Noto Sans CJK JP" font-size="10.00">ばね力</text>
</g>
<!-- sub_63&#45;&gt;item_64 -->
<g id="edge64" class="edge">
<title>sub_63&#45;&gt;item_64</title>
<path fill="none" stroke="black" stroke-width="0.9" d="M456.66,-2080.5C494.79,-2080.5 556.65,-2080.5 591.98,-2080.5"/>
</g>
<!-- component_65 -->
<g id="node66" class="node">
<title>component_65</title>
<path fill="white" stroke="black" stroke-width="0.8" d="M793,-2136C793,-2136 763,-2136 763,-2136 757,-2136 751,-2130 751,-2124 751,-2124 751,-2112 751,-2112 751,-2106 757,-2100 763,-2100 763,-2100 793,-2100 793,-2100 799,-2100 805,-2106 805,-2112 805,-2112 805,-2124 805,-2124 805,-2130 799,-2136 793,-2136"/>
<text text-anchor="middle" x="778" y="-2115.8" font-family="Noto Sans CJK JP" font-size="9.00">大きさ</text>
</g>
<!-- item_64&#45;&gt;component_65 -->
<g id="edge65" class="edge">
<title>item_64&#45;&gt;component_65</title>
<path fill="none" stroke="black" stroke-width="0.9" d="M646.33,-2105.5C675.54,-2105.5 721.58,-2105.5 750.76,-2105.5"/>
</g>
<!-- item_67 -->
<g id="node68" class="node">
<title>item_67</title>
<path fill="white" stroke="black" d="M634,-2011C634,-2011 604,-2011 604,-2011 598,-2011 592,-2005 592,-1999 592,-1999 592,-1987 592,-1987 592,-1981 598,-1975 604,-1975 604,-1975 634,-1975 634,-1975 640,-1975 646,-1981 646,-1987 646,-1987 646,-1999 646,-1999 646,-2005 640,-2011 634,-2011"/>
<text text-anchor="middle" x="619" y="-1990.5" font-family="Noto Sans CJK JP" font-size="10.00">摩擦力</text>
</g>
<!-- sub_66&#45;&gt;item_67 -->
<g id="edge67" class="edge">
<title>sub_66&#45;&gt;item_67</title>
<path fill="none" stroke="black" stroke-width="0.9" d="M456.66,-1999C494.79,-1999 556.65,-1999 591.98,-1999"/>
</g>
<!-- item_72 -->
<g id="node73" class="node">
<title>item_72</title>
<path fill="white" stroke="black" d="M659,-1836C659,-1836 579,-1836 579,-1836 573,-1836 567,-1830 567,-1824 567,-1824 567,-1812 567,-1812 567,-1806 573,-1800 579,-1800 579,-1800 659,-1800 659,-1800 665,-1800 671,-1806 671,-1812 671,-1812 671,-1824 671,-1824 671,-1830 665,-1836 659,-1836"/>
<text text-anchor="middle" x="619" y="-1815.5" font-family="Noto Sans CJK JP" font-size="10.00">摩擦モーメント</text>
</g>
<!-- sub_66&#45;&gt;item_72 -->
<g id="edge72" class="edge">
<title>sub_66&#45;&gt;item_72</title>
<path fill="none" stroke="black" stroke-width="0.9" d="M456.55,-1987C503.27,-1987 583,-1987 583,-1987 583,-1987 583,-1879.68 583,-1836.09"/>
</g>
<!-- component_68 -->
<g id="node69" class="node">
<title>component_68</title>
<path fill="white" stroke="black" stroke-width="0.8" d="M793,-2086C793,-2086 763,-2086 763,-2086 757,-2086 751,-2080 751,-2074 751,-2074 751,-2062 751,-2062 751,-2056 757,-2050 763,-2050 763,-2050 793,-2050 793,-2050 799,-2050 805,-2056 805,-2062 805,-2062 805,-2074 805,-2074 805,-2080 799,-2086 793,-2086"/>
<text text-anchor="middle" x="778" y="-2065.8" font-family="Noto Sans CJK JP" font-size="9.00">X成分</text>
</g>
<!-- item_67&#45;&gt;component_68 -->
<g id="edge68" class="edge">
<title>item_67&#45;&gt;component_68</title>
<path fill="none" stroke="black" stroke-width="0.9" d="M619,-2011.26C619,-2031.85 619,-2062.5 619,-2062.5 619,-2062.5 705.21,-2062.5 750.67,-2062.5"/>
</g>
<!-- component_69 -->
<g id="node70" class="node">
<title>component_69</title>
<path fill="white" stroke="black" stroke-width="0.8" d="M793,-2036C793,-2036 763,-2036 763,-2036 757,-2036 751,-2030 751,-2024 751,-2024 751,-2012 751,-2012 751,-2006 757,-2000 763,-2000 763,-2000 793,-2000 793,-2000 799,-2000 805,-2006 805,-2012 805,-2012 805,-2024 805,-2024 805,-2030 799,-2036 793,-2036"/>
<text text-anchor="middle" x="778" y="-2015.8" font-family="Noto Sans CJK JP" font-size="9.00">Y成分</text>
</g>
<!-- item_67&#45;&gt;component_69 -->
<g id="edge69" class="edge">
<title>item_67&#45;&gt;component_69</title>
<path fill="none" stroke="black" stroke-width="0.9" d="M646.33,-2005.5C675.54,-2005.5 721.58,-2005.5 750.76,-2005.5"/>
</g>
<!-- component_70 -->
<g id="node71" class="node">
<title>component_70</title>
<path fill="white" stroke="black" stroke-width="0.8" d="M793,-1986C793,-1986 763,-1986 763,-1986 757,-1986 751,-1980 751,-1974 751,-1974 751,-1962 751,-1962 751,-1956 757,-1950 763,-1950 763,-1950 793,-1950 793,-1950 799,-1950 805,-1956 805,-1962 805,-1962 805,-1974 805,-1974 805,-1980 799,-1986 793,-1986"/>
<text text-anchor="middle" x="778" y="-1965.8" font-family="Noto Sans CJK JP" font-size="9.00">Z成分</text>
</g>
<!-- item_67&#45;&gt;component_70 -->
<g id="edge70" class="edge">
<title>item_67&#45;&gt;component_70</title>
<path fill="none" stroke="black" stroke-width="0.9" d="M646.33,-1980.5C675.54,-1980.5 721.58,-1980.5 750.76,-1980.5"/>
</g>
<!-- component_71 -->
<g id="node72" class="node">
<title>component_71</title>
<path fill="white" stroke="black" stroke-width="0.8" d="M793,-1936C793,-1936 763,-1936 763,-1936 757,-1936 751,-1930 751,-1924 751,-1924 751,-1912 751,-1912 751,-1906 757,-1900 763,-1900 763,-1900 793,-1900 793,-1900 799,-1900 805,-1906 805,-1912 805,-1912 805,-1924 805,-1924 805,-1930 799,-1936 793,-1936"/>
<text text-anchor="middle" x="778" y="-1915.8" font-family="Noto Sans CJK JP" font-size="9.00">大きさ</text>
</g>
<!-- item_67&#45;&gt;component_71 -->
<g id="edge71" class="edge">
<title>item_67&#45;&gt;component_71</title>
<path fill="none" stroke="black" stroke-width="0.9" d="M619,-1974.84C619,-1952.65 619,-1918 619,-1918 619,-1918 705.21,-1918 750.67,-1918"/>
</g>
<!-- component_73 -->
<g id="node74" class="node">
<title>component_73</title>
<path fill="white" stroke="black" stroke-width="0.8" d="M793,-1886C793,-1886 763,-1886 763,-1886 757,-1886 751,-1880 751,-1874 751,-1874 751,-1862 751,-1862 751,-1856 757,-1850 763,-1850 763,-1850 793,-1850 793,-1850 799,-1850 805,-1856 805,-1862 805,-1862 805,-1874 805,-1874 805,-1880 799,-1886 793,-1886"/>
<text text-anchor="middle" x="778" y="-1865.8" font-family="Noto Sans CJK JP" font-size="9.00">X成分</text>
</g>
<!-- item_72&#45;&gt;component_73 -->
<g id="edge73" class="edge">
<title>item_72&#45;&gt;component_73</title>
<path fill="none" stroke="black" stroke-width="0.9" d="M659,-1836.05C659,-1850.37 659,-1868 659,-1868 659,-1868 715.89,-1868 751,-1868"/>
</g>
<!-- component_74 -->
<g id="node75" class="node">
<title>component_74</title>
<path fill="white" stroke="black" stroke-width="0.8" d="M793,-1836C793,-1836 763,-1836 763,-1836 757,-1836 751,-1830 751,-1824 751,-1824 751,-1812 751,-1812 751,-1806 757,-1800 763,-1800 763,-1800 793,-1800 793,-1800 799,-1800 805,-1806 805,-1812 805,-1812 805,-1824 805,-1824 805,-1830 799,-1836 793,-1836"/>
<text text-anchor="middle" x="778" y="-1815.8" font-family="Noto Sans CJK JP" font-size="9.00">Y成分</text>
</g>
<!-- item_72&#45;&gt;component_74 -->
<g id="edge74" class="edge">
<title>item_72&#45;&gt;component_74</title>
<path fill="none" stroke="black" stroke-width="0.9" d="M671.06,-1818C697.69,-1818 729,-1818 750.83,-1818"/>
</g>
<!-- component_75 -->
<g id="node76" class="node">
<title>component_75</title>
<path fill="white" stroke="black" stroke-width="0.8" d="M793,-1786C793,-1786 763,-1786 763,-1786 757,-1786 751,-1780 751,-1774 751,-1774 751,-1762 751,-1762 751,-1756 757,-1750 763,-1750 763,-1750 793,-1750 793,-1750 799,-1750 805,-1756 805,-1762 805,-1762 805,-1774 805,-1774 805,-1780 799,-1786 793,-1786"/>
<text text-anchor="middle" x="778" y="-1765.8" font-family="Noto Sans CJK JP" font-size="9.00">Z成分</text>
</g>
<!-- item_72&#45;&gt;component_75 -->
<g id="edge75" class="edge">
<title>item_72&#45;&gt;component_75</title>
<path fill="none" stroke="black" stroke-width="0.9" d="M667,-1799.75C667,-1790.97 667,-1782.33 667,-1782.33 667,-1782.33 717.98,-1782.33 750.85,-1782.33"/>
</g>
<!-- component_76 -->
<g id="node77" class="node">
<title>component_76</title>
<path fill="white" stroke="black" stroke-width="0.8" d="M793,-1736C793,-1736 763,-1736 763,-1736 757,-1736 751,-1730 751,-1724 751,-1724 751,-1712 751,-1712 751,-1706 757,-1700 763,-1700 763,-1700 793,-1700 793,-1700 799,-1700 805,-1706 805,-1712 805,-1712 805,-1724 805,-1724 805,-1730 799,-1736 793,-1736"/>
<text text-anchor="middle" x="778" y="-1715.8" font-family="Noto Sans CJK JP" font-size="9.00">大きさ</text>
</g>
<!-- item_72&#45;&gt;component_76 -->
<g id="edge76" class="edge">
<title>item_72&#45;&gt;component_76</title>
<path fill="none" stroke="black" stroke-width="0.9" d="M663,-1799.83C663,-1774.69 663,-1732.33 663,-1732.33 663,-1732.33 716.74,-1732.33 750.75,-1732.33"/>
</g>
<!-- item_78 -->
<g id="node79" class="node">
<title>item_78</title>
<path fill="white" stroke="black" d="M634,-1636C634,-1636 604,-1636 604,-1636 598,-1636 592,-1630 592,-1624 592,-1624 592,-1612 592,-1612 592,-1606 598,-1600 604,-1600 604,-1600 634,-1600 634,-1600 640,-1600 646,-1606 646,-1612 646,-1612 646,-1624 646,-1624 646,-1630 640,-1636 634,-1636"/>
<text text-anchor="middle" x="619" y="-1615.5" font-family="Noto Sans CJK JP" font-size="10.00">接触力</text>
</g>
<!-- sub_77&#45;&gt;item_78 -->
<g id="edge78" class="edge">
<title>sub_77&#45;&gt;item_78</title>
<path fill="none" stroke="black" stroke-width="0.9" d="M456.84,-1778.67C510.49,-1778.67 610,-1778.67 610,-1778.67 610,-1778.67 610,-1678.14 610,-1636.12"/>
</g>
<!-- component_79 -->
<g id="node80" class="node">
<title>component_79</title>
<path fill="white" stroke="black" stroke-width="0.8" d="M793,-1686C793,-1686 763,-1686 763,-1686 757,-1686 751,-1680 751,-1674 751,-1674 751,-1662 751,-1662 751,-1656 757,-1650 763,-1650 763,-1650 793,-1650 793,-1650 799,-1650 805,-1656 805,-1662 805,-1662 805,-1674 805,-1674 805,-1680 799,-1686 793,-1686"/>
<text text-anchor="middle" x="778" y="-1665.8" font-family="Noto Sans CJK JP" font-size="9.00">X成分</text>
</g>
<!-- item_78&#45;&gt;component_79 -->
<g id="edge79" class="edge">
<title>item_78&#45;&gt;component_79</title>
<path fill="none" stroke="black" stroke-width="0.9" d="M628,-1636.05C628,-1650.37 628,-1668 628,-1668 628,-1668 707.61,-1668 750.84,-1668"/>
</g>
<!-- component_80 -->
<g id="node81" class="node">
<title>component_80</title>
<path fill="white" stroke="black" stroke-width="0.8" d="M793,-1636C793,-1636 763,-1636 763,-1636 757,-1636 751,-1630 751,-1624 751,-1624 751,-1612 751,-1612 751,-1606 757,-1600 763,-1600 763,-1600 793,-1600 793,-1600 799,-1600 805,-1606 805,-1612 805,-1612 805,-1624 805,-1624 805,-1630 799,-1636 793,-1636"/>
<text text-anchor="middle" x="778" y="-1615.8" font-family="Noto Sans CJK JP" font-size="9.00">Y成分</text>
</g>
<!-- item_78&#45;&gt;component_80 -->
<g id="edge80" class="edge">
<title>item_78&#45;&gt;component_80</title>
<path fill="none" stroke="black" stroke-width="0.9" d="M646.33,-1618C675.54,-1618 721.58,-1618 750.76,-1618"/>
</g>
<!-- component_81 -->
<g id="node82" class="node">
<title>component_81</title>
<path fill="white" stroke="black" stroke-width="0.8" d="M793,-1586C793,-1586 763,-1586 763,-1586 757,-1586 751,-1580 751,-1574 751,-1574 751,-1562 751,-1562 751,-1556 757,-1550 763,-1550 763,-1550 793,-1550 793,-1550 799,-1550 805,-1556 805,-1562 805,-1562 805,-1574 805,-1574 805,-1580 799,-1586 793,-1586"/>
<text text-anchor="middle" x="778" y="-1565.8" font-family="Noto Sans CJK JP" font-size="9.00">Z成分</text>
</g>
<!-- item_78&#45;&gt;component_81 -->
<g id="edge81" class="edge">
<title>item_78&#45;&gt;component_81</title>
<path fill="none" stroke="black" stroke-width="0.9" d="M628,-1599.95C628,-1585.63 628,-1568 628,-1568 628,-1568 707.61,-1568 750.84,-1568"/>
</g>
<!-- component_82 -->
<g id="node83" class="node">
<title>component_82</title>
<path fill="white" stroke="black" stroke-width="0.8" d="M793,-1536C793,-1536 763,-1536 763,-1536 757,-1536 751,-1530 751,-1524 751,-1524 751,-1512 751,-1512 751,-1506 757,-1500 763,-1500 763,-1500 793,-1500 793,-1500 799,-1500 805,-1506 805,-1512 805,-1512 805,-1524 805,-1524 805,-1530 799,-1536 793,-1536"/>
<text text-anchor="middle" x="778" y="-1515.8" font-family="Noto Sans CJK JP" font-size="9.00">大きさ</text>
</g>
<!-- item_78&#45;&gt;component_82 -->
<g id="edge82" class="edge">
<title>item_78&#45;&gt;component_82</title>
<path fill="none" stroke="black" stroke-width="0.9" d="M610,-1599.66C610,-1570.79 610,-1518 610,-1518 610,-1518 703.03,-1518 750.63,-1518"/>
</g>
<!-- sub_84 -->
<g id="node85" class="node">
<title>sub_84</title>
<path fill="white" stroke="black" stroke-width="1.2" d="M450.5,-1311C450.5,-1311 396.5,-1311 396.5,-1311 390.5,-1311 384.5,-1305 384.5,-1299 384.5,-1299 384.5,-1287 384.5,-1287 384.5,-1281 390.5,-1275 396.5,-1275 396.5,-1275 450.5,-1275 450.5,-1275 456.5,-1275 462.5,-1281 462.5,-1287 462.5,-1287 462.5,-1299 462.5,-1299 462.5,-1305 456.5,-1311 450.5,-1311"/>
<text text-anchor="middle" x="423.5" y="-1290.5" font-family="Noto Sans CJK JP" font-size="10.00">（運動量）</text>
</g>
<!-- main_83&#45;&gt;sub_84 -->
<g id="edge84" class="edge">
<title>main_83&#45;&gt;sub_84</title>
<path fill="none" stroke="black" stroke-width="0.9" d="M299.03,-1299C328.84,-1299 360.47,-1299 384.39,-1299"/>
</g>
<!-- sub_95 -->
<g id="node96" class="node">
<title>sub_95</title>
<path fill="white" stroke="black" stroke-width="1.2" d="M489,-1011C489,-1011 358,-1011 358,-1011 352,-1011 346,-1005 346,-999 346,-999 346,-987 346,-987 346,-981 352,-975 358,-975 358,-975 489,-975 489,-975 495,-975 501,-981 501,-987 501,-987 501,-999 501,-999 501,-1005 495,-1011 489,-1011"/>
<text text-anchor="middle" x="423.5" y="-990.5" font-family="Noto Sans CJK JP" font-size="10.00">（エネルギー／パワー）</text>
</g>
<!-- main_83&#45;&gt;sub_95 -->
<g id="edge95" class="edge">
<title>main_83&#45;&gt;sub_95</title>
<path fill="none" stroke="black" stroke-width="0.9" d="M299.42,-1287C334.32,-1287 366,-1287 366,-1287 366,-1287 366,-1075.75 366,-1011.39"/>
</g>
<!-- item_85 -->
<g id="node86" class="node">
<title>item_85</title>
<path fill="white" stroke="black" d="M646,-1386C646,-1386 592,-1386 592,-1386 586,-1386 580,-1380 580,-1374 580,-1374 580,-1362 580,-1362 580,-1356 586,-1350 592,-1350 592,-1350 646,-1350 646,-1350 652,-1350 658,-1356 658,-1362 658,-1362 658,-1374 658,-1374 658,-1380 652,-1386 646,-1386"/>
<text text-anchor="middle" x="619" y="-1365.5" font-family="Noto Sans CJK JP" font-size="10.00">並進運動量</text>
</g>
<!-- sub_84&#45;&gt;item_85 -->
<g id="edge85" class="edge">
<title>sub_84&#45;&gt;item_85</title>
<path fill="none" stroke="black" stroke-width="0.9" d="M462.76,-1305.5C518.27,-1305.5 613,-1305.5 613,-1305.5 613,-1305.5 613,-1331.46 613,-1349.92"/>
</g>
<!-- item_90 -->
<g id="node91" class="node">
<title>item_90</title>
<path fill="white" stroke="black" d="M640,-1236C640,-1236 598,-1236 598,-1236 592,-1236 586,-1230 586,-1224 586,-1224 586,-1212 586,-1212 586,-1206 592,-1200 598,-1200 598,-1200 640,-1200 640,-1200 646,-1200 652,-1206 652,-1212 652,-1212 652,-1224 652,-1224 652,-1230 646,-1236 640,-1236"/>
<text text-anchor="middle" x="619" y="-1215.5" font-family="Noto Sans CJK JP" font-size="10.00">角運動量</text>
</g>
<!-- sub_84&#45;&gt;item_90 -->
<g id="edge90" class="edge">
<title>sub_84&#45;&gt;item_90</title>
<path fill="none" stroke="black" stroke-width="0.9" d="M462.67,-1280.5C514.67,-1280.5 600,-1280.5 600,-1280.5 600,-1280.5 600,-1254.54 600,-1236.08"/>
</g>
<!-- component_86 -->
<g id="node87" class="node">
<title>component_86</title>
<path fill="white" stroke="black" stroke-width="0.8" d="M793,-1486C793,-1486 763,-1486 763,-1486 757,-1486 751,-1480 751,-1474 751,-1474 751,-1462 751,-1462 751,-1456 757,-1450 763,-1450 763,-1450 793,-1450 793,-1450 799,-1450 805,-1456 805,-1462 805,-1462 805,-1474 805,-1474 805,-1480 799,-1486 793,-1486"/>
<text text-anchor="middle" x="778" y="-1465.8" font-family="Noto Sans CJK JP" font-size="9.00">X成分</text>
</g>
<!-- item_85&#45;&gt;component_86 -->
<g id="edge86" class="edge">
<title>item_85&#45;&gt;component_86</title>
<path fill="none" stroke="black" stroke-width="0.9" d="M650,-1386.34C650,-1415.21 650,-1468 650,-1468 650,-1468 713.28,-1468 750.85,-1468"/>
</g>
<!-- component_87 -->
<g id="node88" class="node">
<title>component_87</title>
<path fill="white" stroke="black" stroke-width="0.8" d="M793,-1436C793,-1436 763,-1436 763,-1436 757,-1436 751,-1430 751,-1424 751,-1424 751,-1412 751,-1412 751,-1406 757,-1400 763,-1400 763,-1400 793,-1400 793,-1400 799,-1400 805,-1406 805,-1412 805,-1412 805,-1424 805,-1424 805,-1430 799,-1436 793,-1436"/>
<text text-anchor="middle" x="778" y="-1415.8" font-family="Noto Sans CJK JP" font-size="9.00">Y成分</text>
</g>
<!-- item_85&#45;&gt;component_87 -->
<g id="edge87" class="edge">
<title>item_85&#45;&gt;component_87</title>
<path fill="none" stroke="black" stroke-width="0.9" d="M654,-1386.05C654,-1400.37 654,-1418 654,-1418 654,-1418 714.29,-1418 750.79,-1418"/>
</g>
<!-- component_88 -->
<g id="node89" class="node">
<title>component_88</title>
<path fill="white" stroke="black" stroke-width="0.8" d="M793,-1386C793,-1386 763,-1386 763,-1386 757,-1386 751,-1380 751,-1374 751,-1374 751,-1362 751,-1362 751,-1356 757,-1350 763,-1350 763,-1350 793,-1350 793,-1350 799,-1350 805,-1356 805,-1362 805,-1362 805,-1374 805,-1374 805,-1380 799,-1386 793,-1386"/>
<text text-anchor="middle" x="778" y="-1365.8" font-family="Noto Sans CJK JP" font-size="9.00">Z成分</text>
</g>
<!-- item_85&#45;&gt;component_88 -->
<g id="edge88" class="edge">
<title>item_85&#45;&gt;component_88</title>
<path fill="none" stroke="black" stroke-width="0.9" d="M658.3,-1368C687,-1368 725.17,-1368 750.61,-1368"/>
</g>
<!-- component_89 -->
<g id="node90" class="node">
<title>component_89</title>
<path fill="white" stroke="black" stroke-width="0.8" d="M793,-1336C793,-1336 763,-1336 763,-1336 757,-1336 751,-1330 751,-1324 751,-1324 751,-1312 751,-1312 751,-1306 757,-1300 763,-1300 763,-1300 793,-1300 793,-1300 799,-1300 805,-1306 805,-1312 805,-1312 805,-1324 805,-1324 805,-1330 799,-1336 793,-1336"/>
<text text-anchor="middle" x="778" y="-1315.8" font-family="Noto Sans CJK JP" font-size="9.00">大きさ</text>
</g>
<!-- item_85&#45;&gt;component_89 -->
<g id="edge89" class="edge">
<title>item_85&#45;&gt;component_89</title>
<path fill="none" stroke="black" stroke-width="0.9" d="M639,-1349.9C639,-1337.58 639,-1323.5 639,-1323.5 639,-1323.5 710.42,-1323.5 750.87,-1323.5"/>
</g>
<!-- component_91 -->
<g id="node92" class="node">
<title>component_91</title>
<path fill="white" stroke="black" stroke-width="0.8" d="M793,-1286C793,-1286 763,-1286 763,-1286 757,-1286 751,-1280 751,-1274 751,-1274 751,-1262 751,-1262 751,-1256 757,-1250 763,-1250 763,-1250 793,-1250 793,-1250 799,-1250 805,-1256 805,-1262 805,-1262 805,-1274 805,-1274 805,-1280 799,-1286 793,-1286"/>
<text text-anchor="middle" x="778" y="-1265.8" font-family="Noto Sans CJK JP" font-size="9.00">X成分</text>
</g>
<!-- item_90&#45;&gt;component_91 -->
<g id="edge91" class="edge">
<title>item_90&#45;&gt;component_91</title>
<path fill="none" stroke="black" stroke-width="0.9" d="M626,-1236.1C626,-1248.42 626,-1262.5 626,-1262.5 626,-1262.5 707.1,-1262.5 750.83,-1262.5"/>
</g>
<!-- component_92 -->
<g id="node93" class="node">
<title>component_92</title>
<path fill="white" stroke="black" stroke-width="0.8" d="M793,-1236C793,-1236 763,-1236 763,-1236 757,-1236 751,-1230 751,-1224 751,-1224 751,-1212 751,-1212 751,-1206 757,-1200 763,-1200 763,-1200 793,-1200 793,-1200 799,-1200 805,-1206 805,-1212 805,-1212 805,-1224 805,-1224 805,-1230 799,-1236 793,-1236"/>
<text text-anchor="middle" x="778" y="-1215.8" font-family="Noto Sans CJK JP" font-size="9.00">Y成分</text>
</g>
<!-- item_90&#45;&gt;component_92 -->
<g id="edge92" class="edge">
<title>item_90&#45;&gt;component_92</title>
<path fill="none" stroke="black" stroke-width="0.9" d="M652.33,-1218C681.56,-1218 723.54,-1218 750.79,-1218"/>
</g>
<!-- component_93 -->
<g id="node94" class="node">
<title>component_93</title>
<path fill="white" stroke="black" stroke-width="0.8" d="M793,-1186C793,-1186 763,-1186 763,-1186 757,-1186 751,-1180 751,-1174 751,-1174 751,-1162 751,-1162 751,-1156 757,-1150 763,-1150 763,-1150 793,-1150 793,-1150 799,-1150 805,-1156 805,-1162 805,-1162 805,-1174 805,-1174 805,-1180 799,-1186 793,-1186"/>
<text text-anchor="middle" x="778" y="-1165.8" font-family="Noto Sans CJK JP" font-size="9.00">Z成分</text>
</g>
<!-- item_90&#45;&gt;component_93 -->
<g id="edge93" class="edge">
<title>item_90&#45;&gt;component_93</title>
<path fill="none" stroke="black" stroke-width="0.9" d="M630,-1199.95C630,-1185.63 630,-1168 630,-1168 630,-1168 708.13,-1168 750.85,-1168"/>
</g>
<!-- component_94 -->
<g id="node95" class="node">
<title>component_94</title>
<path fill="white" stroke="black" stroke-width="0.8" d="M793,-1136C793,-1136 763,-1136 763,-1136 757,-1136 751,-1130 751,-1124 751,-1124 751,-1112 751,-1112 751,-1106 757,-1100 763,-1100 763,-1100 793,-1100 793,-1100 799,-1100 805,-1106 805,-1112 805,-1112 805,-1124 805,-1124 805,-1130 799,-1136 793,-1136"/>
<text text-anchor="middle" x="778" y="-1115.8" font-family="Noto Sans CJK JP" font-size="9.00">大きさ</text>
</g>
<!-- item_90&#45;&gt;component_94 -->
<g id="edge94" class="edge">
<title>item_90&#45;&gt;component_94</title>
<path fill="none" stroke="black" stroke-width="0.9" d="M608,-1199.66C608,-1170.79 608,-1118 608,-1118 608,-1118 702.63,-1118 750.69,-1118"/>
</g>
<!-- item_96 -->
<g id="node97" class="node">
<title>item_96</title>
<path fill="white" stroke="black" d="M671.5,-1086C671.5,-1086 566.5,-1086 566.5,-1086 560.5,-1086 554.5,-1080 554.5,-1074 554.5,-1074 554.5,-1062 554.5,-1062 554.5,-1056 560.5,-1050 566.5,-1050 566.5,-1050 671.5,-1050 671.5,-1050 677.5,-1050 683.5,-1056 683.5,-1062 683.5,-1062 683.5,-1074 683.5,-1074 683.5,-1080 677.5,-1086 671.5,-1086"/>
<text text-anchor="middle" x="619" y="-1065.5" font-family="Noto Sans CJK JP" font-size="10.00">並進運動エネルギー</text>
</g>
<!-- sub_95&#45;&gt;item_96 -->
<g id="edge96" class="edge">
<title>sub_95&#45;&gt;item_96</title>
<path fill="none" stroke="black" stroke-width="0.9" d="M482,-1011.16C482,-1033.35 482,-1068 482,-1068 482,-1068 518.7,-1068 554.11,-1068"/>
</g>
<!-- item_98 -->
<g id="node99" class="node">
<title>item_98</title>
<path fill="white" stroke="black" d="M665.5,-1036C665.5,-1036 572.5,-1036 572.5,-1036 566.5,-1036 560.5,-1030 560.5,-1024 560.5,-1024 560.5,-1012 560.5,-1012 560.5,-1006 566.5,-1000 572.5,-1000 572.5,-1000 665.5,-1000 665.5,-1000 671.5,-1000 677.5,-1006 677.5,-1012 677.5,-1012 677.5,-1024 677.5,-1024 677.5,-1030 671.5,-1036 665.5,-1036"/>
<text text-anchor="middle" x="619" y="-1015.5" font-family="Noto Sans CJK JP" font-size="10.00">角運動エネルギー</text>
</g>
<!-- sub_95&#45;&gt;item_98 -->
<g id="edge98" class="edge">
<title>sub_95&#45;&gt;item_98</title>
<path fill="none" stroke="black" stroke-width="0.9" d="M501.05,-1005.5C520.77,-1005.5 541.64,-1005.5 560.25,-1005.5"/>
</g>
<!-- item_100 -->
<g id="node101" class="node">
<title>item_100</title>
<path fill="white" stroke="black" d="M671.5,-986C671.5,-986 566.5,-986 566.5,-986 560.5,-986 554.5,-980 554.5,-974 554.5,-974 554.5,-962 554.5,-962 554.5,-956 560.5,-950 566.5,-950 566.5,-950 671.5,-950 671.5,-950 677.5,-950 683.5,-956 683.5,-962 683.5,-962 683.5,-974 683.5,-974 683.5,-980 677.5,-986 671.5,-986"/>
<text text-anchor="middle" x="619" y="-965.5" font-family="Noto Sans CJK JP" font-size="10.00">合計運動エネルギー</text>
</g>
<!-- sub_95&#45;&gt;item_100 -->
<g id="edge100" class="edge">
<title>sub_95&#45;&gt;item_100</title>
<path fill="none" stroke="black" stroke-width="0.9" d="M501.05,-980.5C518.74,-980.5 537.36,-980.5 554.45,-980.5"/>
</g>
<!-- item_102 -->
<g id="node103" class="node">
<title>item_102</title>
<path fill="white" stroke="black" d="M659,-936C659,-936 579,-936 579,-936 573,-936 567,-930 567,-924 567,-924 567,-912 567,-912 567,-906 573,-900 579,-900 579,-900 659,-900 659,-900 665,-900 671,-906 671,-912 671,-912 671,-924 671,-924 671,-930 665,-936 659,-936"/>
<text text-anchor="middle" x="619" y="-915.5" font-family="Noto Sans CJK JP" font-size="10.00">位置エネルギー</text>
</g>
<!-- sub_95&#45;&gt;item_102 -->
<g id="edge102" class="edge">
<title>sub_95&#45;&gt;item_102</title>
<path fill="none" stroke="black" stroke-width="0.9" d="M493,-974.84C493,-952.65 493,-918 493,-918 493,-918 532.04,-918 566.66,-918"/>
</g>
<!-- item_104 -->
<g id="node105" class="node">
<title>item_104</title>
<path fill="white" stroke="black" d="M646,-886C646,-886 592,-886 592,-886 586,-886 580,-880 580,-874 580,-874 580,-862 580,-862 580,-856 586,-850 592,-850 592,-850 646,-850 646,-850 652,-850 658,-856 658,-862 658,-862 658,-874 658,-874 658,-880 652,-886 646,-886"/>
<text text-anchor="middle" x="619" y="-865.5" font-family="Noto Sans CJK JP" font-size="10.00">動力消費量</text>
</g>
<!-- sub_95&#45;&gt;item_104 -->
<g id="edge104" class="edge">
<title>sub_95&#45;&gt;item_104</title>
<path fill="none" stroke="black" stroke-width="0.9" d="M484,-974.82C484,-940.16 484,-868 484,-868 484,-868 540.08,-868 579.95,-868"/>
</g>
<!-- component_97 -->
<g id="node98" class="node">
<title>component_97</title>
<path fill="white" stroke="black" stroke-width="0.8" d="M793,-1086C793,-1086 763,-1086 763,-1086 757,-1086 751,-1080 751,-1074 751,-1074 751,-1062 751,-1062 751,-1056 757,-1050 763,-1050 763,-1050 793,-1050 793,-1050 799,-1050 805,-1056 805,-1062 805,-1062 805,-1074 805,-1074 805,-1080 799,-1086 793,-1086"/>
<text text-anchor="middle" x="778" y="-1065.8" font-family="Noto Sans CJK JP" font-size="9.00">&#45;</text>
</g>
<!-- item_96&#45;&gt;component_97 -->
<g id="edge97" class="edge">
<title>item_96&#45;&gt;component_97</title>
<path fill="none" stroke="black" stroke-width="0.9" d="M683.67,-1068C707.06,-1068 732.22,-1068 750.67,-1068"/>
</g>
<!-- component_99 -->
<g id="node100" class="node">
<title>component_99</title>
<path fill="white" stroke="black" stroke-width="0.8" d="M793,-1036C793,-1036 763,-1036 763,-1036 757,-1036 751,-1030 751,-1024 751,-1024 751,-1012 751,-1012 751,-1006 757,-1000 763,-1000 763,-1000 793,-1000 793,-1000 799,-1000 805,-1006 805,-1012 805,-1012 805,-1024 805,-1024 805,-1030 799,-1036 793,-1036"/>
<text text-anchor="middle" x="778" y="-1015.8" font-family="Noto Sans CJK JP" font-size="9.00">&#45;</text>
</g>
<!-- item_98&#45;&gt;component_99 -->
<g id="edge99" class="edge">
<title>item_98&#45;&gt;component_99</title>
<path fill="none" stroke="black" stroke-width="0.9" d="M677.75,-1018C702.7,-1018 730.58,-1018 750.59,-1018"/>
</g>
<!-- component_101 -->
<g id="node102" class="node">
<title>component_101</title>
<path fill="white" stroke="black" stroke-width="0.8" d="M793,-986C793,-986 763,-986 763,-986 757,-986 751,-980 751,-974 751,-974 751,-962 751,-962 751,-956 757,-950 763,-950 763,-950 793,-950 793,-950 799,-950 805,-956 805,-962 805,-962 805,-974 805,-974 805,-980 799,-986 793,-986"/>
<text text-anchor="middle" x="778" y="-965.8" font-family="Noto Sans CJK JP" font-size="9.00">&#45;</text>
</g>
<!-- item_100&#45;&gt;component_101 -->
<g id="edge101" class="edge">
<title>item_100&#45;&gt;component_101</title>
<path fill="none" stroke="black" stroke-width="0.9" d="M683.67,-968C707.06,-968 732.22,-968 750.67,-968"/>
</g>
<!-- component_103 -->
<g id="node104" class="node">
<title>component_103</title>
<path fill="white" stroke="black" stroke-width="0.8" d="M793,-936C793,-936 763,-936 763,-936 757,-936 751,-930 751,-924 751,-924 751,-912 751,-912 751,-906 757,-900 763,-900 763,-900 793,-900 793,-900 799,-900 805,-906 805,-912 805,-912 805,-924 805,-924 805,-930 799,-936 793,-936"/>
<text text-anchor="middle" x="778" y="-915.8" font-family="Noto Sans CJK JP" font-size="9.00">&#45;</text>
</g>
<!-- item_102&#45;&gt;component_103 -->
<g id="edge103" class="edge">
<title>item_102&#45;&gt;component_103</title>
<path fill="none" stroke="black" stroke-width="0.9" d="M671.06,-918C697.69,-918 729,-918 750.83,-918"/>
</g>
<!-- component_105 -->
<g id="node106" class="node">
<title>component_105</title>
<path fill="white" stroke="black" stroke-width="0.8" d="M793,-886C793,-886 763,-886 763,-886 757,-886 751,-880 751,-874 751,-874 751,-862 751,-862 751,-856 757,-850 763,-850 763,-850 793,-850 793,-850 799,-850 805,-856 805,-862 805,-862 805,-874 805,-874 805,-880 799,-886 793,-886"/>
<text text-anchor="middle" x="778" y="-865.8" font-family="Noto Sans CJK JP" font-size="9.00">&#45;</text>
</g>
<!-- item_104&#45;&gt;component_105 -->
<g id="edge105" class="edge">
<title>item_104&#45;&gt;component_105</title>
<path fill="none" stroke="black" stroke-width="0.9" d="M658.3,-868C687,-868 725.17,-868 750.61,-868"/>
</g>
<!-- sub_107 -->
<g id="node108" class="node">
<title>sub_107</title>
<path fill="white" stroke="black" stroke-width="1.2" d="M463.5,-486C463.5,-486 383.5,-486 383.5,-486 377.5,-486 371.5,-480 371.5,-474 371.5,-474 371.5,-462 371.5,-462 371.5,-456 377.5,-450 383.5,-450 383.5,-450 463.5,-450 463.5,-450 469.5,-450 475.5,-456 475.5,-462 475.5,-462 475.5,-474 475.5,-474 475.5,-480 469.5,-486 463.5,-486"/>
<text text-anchor="middle" x="423.5" y="-465.5" font-family="Noto Sans CJK JP" font-size="10.00">（姿勢・角度）</text>
</g>
<!-- main_106&#45;&gt;sub_107 -->
<g id="edge107" class="edge">
<title>main_106&#45;&gt;sub_107</title>
<path fill="none" stroke="black" stroke-width="0.9" d="M236.17,-468C269.99,-468 328.49,-468 371.14,-468"/>
</g>
<!-- sub_128 -->
<g id="node129" class="node">
<title>sub_128</title>
<path fill="white" stroke="black" stroke-width="1.2" d="M444.5,-86C444.5,-86 402.5,-86 402.5,-86 396.5,-86 390.5,-80 390.5,-74 390.5,-74 390.5,-62 390.5,-62 390.5,-56 396.5,-50 402.5,-50 402.5,-50 444.5,-50 444.5,-50 450.5,-50 456.5,-56 456.5,-62 456.5,-62 456.5,-74 456.5,-74 456.5,-80 450.5,-86 444.5,-86"/>
<text text-anchor="middle" x="423.5" y="-65.5" font-family="Noto Sans CJK JP" font-size="10.00">（負荷）</text>
</g>
<!-- main_106&#45;&gt;sub_128 -->
<g id="edge128" class="edge">
<title>main_106&#45;&gt;sub_128</title>
<path fill="none" stroke="black" stroke-width="0.9" d="M209,-449.77C209,-371.52 209,-68 209,-68 209,-68 330.29,-68 390.45,-68"/>
</g>
<!-- item_108 -->
<g id="node109" class="node">
<title>item_108</title>
<path fill="white" stroke="black" d="M646,-761C646,-761 592,-761 592,-761 586,-761 580,-755 580,-749 580,-749 580,-737 580,-737 580,-731 586,-725 592,-725 592,-725 646,-725 646,-725 652,-725 658,-731 658,-737 658,-737 658,-749 658,-749 658,-755 652,-761 646,-761"/>
<text text-anchor="middle" x="619" y="-740.5" font-family="Noto Sans CJK JP" font-size="10.00">オイラー角</text>
</g>
<!-- sub_107&#45;&gt;item_108 -->
<g id="edge108" class="edge">
<title>sub_107&#45;&gt;item_108</title>
<path fill="none" stroke="black" stroke-width="0.9" d="M407,-486.04C407,-547.22 407,-743 407,-743 407,-743 518.31,-743 579.62,-743"/>
</g>
<!-- item_112 -->
<g id="node113" class="node">
<title>item_112</title>
<path fill="white" stroke="black" d="M678,-611C678,-611 560,-611 560,-611 554,-611 548,-605 548,-599 548,-599 548,-587 548,-587 548,-581 554,-575 560,-575 560,-575 678,-575 678,-575 684,-575 690,-581 690,-587 690,-587 690,-599 690,-599 690,-605 684,-611 678,-611"/>
<text text-anchor="middle" x="619" y="-590.5" font-family="Noto Sans CJK JP" font-size="10.00">ピッチ／ヨー／ロール</text>
</g>
<!-- sub_107&#45;&gt;item_112 -->
<g id="edge112" class="edge">
<title>sub_107&#45;&gt;item_112</title>
<path fill="none" stroke="black" stroke-width="0.9" d="M441,-486.18C441,-520.84 441,-593 441,-593 441,-593 498.3,-593 547.88,-593"/>
</g>
<!-- item_116 -->
<g id="node117" class="node">
<title>item_116</title>
<path fill="white" stroke="black" d="M678,-486C678,-486 560,-486 560,-486 554,-486 548,-480 548,-474 548,-474 548,-462 548,-462 548,-456 554,-450 560,-450 560,-450 678,-450 678,-450 684,-450 690,-456 690,-462 690,-462 690,-474 690,-474 690,-480 684,-486 678,-486"/>
<text text-anchor="middle" x="619" y="-465.5" font-family="Noto Sans CJK JP" font-size="10.00">ロドリゲスパラメータ</text>
</g>
<!-- sub_107&#45;&gt;item_116 -->
<g id="edge116" class="edge">
<title>sub_107&#45;&gt;item_116</title>
<path fill="none" stroke="black" stroke-width="0.9" d="M475.63,-468C497.8,-468 524.01,-468 547.91,-468"/>
</g>
<!-- item_120 -->
<g id="node121" class="node">
<title>item_120</title>
<path fill="white" stroke="black" d="M652.5,-361C652.5,-361 585.5,-361 585.5,-361 579.5,-361 573.5,-355 573.5,-349 573.5,-349 573.5,-337 573.5,-337 573.5,-331 579.5,-325 585.5,-325 585.5,-325 652.5,-325 652.5,-325 658.5,-325 664.5,-331 664.5,-337 664.5,-337 664.5,-349 664.5,-349 664.5,-355 658.5,-361 652.5,-361"/>
<text text-anchor="middle" x="619" y="-340.5" font-family="Noto Sans CJK JP" font-size="10.00">ブライアン角</text>
</g>
<!-- sub_107&#45;&gt;item_120 -->
<g id="edge120" class="edge">
<title>sub_107&#45;&gt;item_120</title>
<path fill="none" stroke="black" stroke-width="0.9" d="M470,-449.82C470,-415.16 470,-343 470,-343 470,-343 529.67,-343 573.49,-343"/>
</g>
<!-- item_124 -->
<g id="node125" class="node">
<title>item_124</title>
<path fill="white" stroke="black" d="M634,-211C634,-211 604,-211 604,-211 598,-211 592,-205 592,-199 592,-199 592,-187 592,-187 592,-181 598,-175 604,-175 604,-175 634,-175 634,-175 640,-175 646,-181 646,-187 646,-187 646,-199 646,-199 646,-205 640,-211 634,-211"/>
<text text-anchor="middle" x="619" y="-190.5" font-family="Noto Sans CJK JP" font-size="10.00">投影角</text>
</g>
<!-- sub_107&#45;&gt;item_124 -->
<g id="edge124" class="edge">
<title>sub_107&#45;&gt;item_124</title>
<path fill="none" stroke="black" stroke-width="0.9" d="M463,-449.96C463,-388.78 463,-193 463,-193 463,-193 547.13,-193 591.83,-193"/>
</g>
<!-- component_109 -->
<g id="node110" class="node">
<title>component_109</title>
<path fill="white" stroke="black" stroke-width="0.8" d="M793,-836C793,-836 763,-836 763,-836 757,-836 751,-830 751,-824 751,-824 751,-812 751,-812 751,-806 757,-800 763,-800 763,-800 793,-800 793,-800 799,-800 805,-806 805,-812 805,-812 805,-824 805,-824 805,-830 799,-836 793,-836"/>
<text text-anchor="middle" x="778" y="-815.8" font-family="Noto Sans CJK JP" font-size="9.00">Psi</text>
</g>
<!-- item_108&#45;&gt;component_109 -->
<g id="edge109" class="edge">
<title>item_108&#45;&gt;component_109</title>
<path fill="none" stroke="black" stroke-width="0.9" d="M619,-761.16C619,-783.35 619,-818 619,-818 619,-818 705.21,-818 750.67,-818"/>
</g>
<!-- component_110 -->
<g id="node111" class="node">
<title>component_110</title>
<path fill="white" stroke="black" stroke-width="0.8" d="M793,-786C793,-786 763,-786 763,-786 757,-786 751,-780 751,-774 751,-774 751,-762 751,-762 751,-756 757,-750 763,-750 763,-750 793,-750 793,-750 799,-750 805,-756 805,-762 805,-762 805,-774 805,-774 805,-780 799,-786 793,-786"/>
<text text-anchor="middle" x="778" y="-765.8" font-family="Noto Sans CJK JP" font-size="9.00">シータ</text>
</g>
<!-- item_108&#45;&gt;component_110 -->
<g id="edge110" class="edge">
<title>item_108&#45;&gt;component_110</title>
<path fill="none" stroke="black" stroke-width="0.9" d="M658.3,-755.5C687,-755.5 725.17,-755.5 750.61,-755.5"/>
</g>
<!-- component_111 -->
<g id="node112" class="node">
<title>component_111</title>
<path fill="white" stroke="black" stroke-width="0.8" d="M793,-736C793,-736 763,-736 763,-736 757,-736 751,-730 751,-724 751,-724 751,-712 751,-712 751,-706 757,-700 763,-700 763,-700 793,-700 793,-700 799,-700 805,-706 805,-712 805,-712 805,-724 805,-724 805,-730 799,-736 793,-736"/>
<text text-anchor="middle" x="778" y="-715.8" font-family="Noto Sans CJK JP" font-size="9.00">Phi</text>
</g>
<!-- item_108&#45;&gt;component_111 -->
<g id="edge111" class="edge">
<title>item_108&#45;&gt;component_111</title>
<path fill="none" stroke="black" stroke-width="0.9" d="M658.3,-730.5C687,-730.5 725.17,-730.5 750.61,-730.5"/>
</g>
<!-- component_113 -->
<g id="node114" class="node">
<title>component_113</title>
<path fill="white" stroke="black" stroke-width="0.8" d="M793,-686C793,-686 763,-686 763,-686 757,-686 751,-680 751,-674 751,-674 751,-662 751,-662 751,-656 757,-650 763,-650 763,-650 793,-650 793,-650 799,-650 805,-656 805,-662 805,-662 805,-674 805,-674 805,-680 799,-686 793,-686"/>
<text text-anchor="middle" x="778" y="-665.8" font-family="Noto Sans CJK JP" font-size="9.00">ヨー</text>
</g>
<!-- item_112&#45;&gt;component_113 -->
<g id="edge113" class="edge">
<title>item_112&#45;&gt;component_113</title>
<path fill="none" stroke="black" stroke-width="0.9" d="M678,-611.16C678,-633.35 678,-668 678,-668 678,-668 721.32,-668 750.94,-668"/>
</g>
<!-- component_114 -->
<g id="node115" class="node">
<title>component_114</title>
<path fill="white" stroke="black" stroke-width="0.8" d="M793,-636C793,-636 763,-636 763,-636 757,-636 751,-630 751,-624 751,-624 751,-612 751,-612 751,-606 757,-600 763,-600 763,-600 793,-600 793,-600 799,-600 805,-606 805,-612 805,-612 805,-624 805,-624 805,-630 799,-636 793,-636"/>
<text text-anchor="middle" x="778" y="-615.8" font-family="Noto Sans CJK JP" font-size="9.00">ピッチ</text>
</g>
<!-- item_112&#45;&gt;component_114 -->
<g id="edge114" class="edge">
<title>item_112&#45;&gt;component_114</title>
<path fill="none" stroke="black" stroke-width="0.9" d="M690.13,-605.5C711.63,-605.5 733.95,-605.5 750.72,-605.5"/>
</g>
<!-- component_115 -->
<g id="node116" class="node">
<title>component_115</title>
<path fill="white" stroke="black" stroke-width="0.8" d="M793,-586C793,-586 763,-586 763,-586 757,-586 751,-580 751,-574 751,-574 751,-562 751,-562 751,-556 757,-550 763,-550 763,-550 793,-550 793,-550 799,-550 805,-556 805,-562 805,-562 805,-574 805,-574 805,-580 799,-586 793,-586"/>
<text text-anchor="middle" x="778" y="-565.8" font-family="Noto Sans CJK JP" font-size="9.00">ロール</text>
</g>
<!-- item_112&#45;&gt;component_115 -->
<g id="edge115" class="edge">
<title>item_112&#45;&gt;component_115</title>
<path fill="none" stroke="black" stroke-width="0.9" d="M690.13,-580.5C711.63,-580.5 733.95,-580.5 750.72,-580.5"/>
</g>
<!-- component_117 -->
<g id="node118" class="node">
<title>component_117</title>
<path fill="white" stroke="black" stroke-width="0.8" d="M804,-536C804,-536 752,-536 752,-536 746,-536 740,-530 740,-524 740,-524 740,-512 740,-512 740,-506 746,-500 752,-500 752,-500 804,-500 804,-500 810,-500 816,-506 816,-512 816,-512 816,-524 816,-524 816,-530 810,-536 804,-536"/>
<text text-anchor="middle" x="778" y="-515.8" font-family="Noto Sans CJK JP" font-size="9.00">パラメータ1</text>
</g>
<!-- item_116&#45;&gt;component_117 -->
<g id="edge117" class="edge">
<title>item_116&#45;&gt;component_117</title>
<path fill="none" stroke="black" stroke-width="0.9" d="M619,-486.05C619,-500.37 619,-518 619,-518 619,-518 692.88,-518 739.92,-518"/>
</g>
<!-- component_118 -->
<g id="node119" class="node">
<title>component_118</title>
<path fill="white" stroke="black" stroke-width="0.8" d="M804,-486C804,-486 752,-486 752,-486 746,-486 740,-480 740,-474 740,-474 740,-462 740,-462 740,-456 746,-450 752,-450 752,-450 804,-450 804,-450 810,-450 816,-456 816,-462 816,-462 816,-474 816,-474 816,-480 810,-486 804,-486"/>
<text text-anchor="middle" x="778" y="-465.8" font-family="Noto Sans CJK JP" font-size="9.00">パラメータ2</text>
</g>
<!-- item_116&#45;&gt;component_118 -->
<g id="edge118" class="edge">
<title>item_116&#45;&gt;component_118</title>
<path fill="none" stroke="black" stroke-width="0.9" d="M690.13,-468C707.16,-468 724.71,-468 739.61,-468"/>
</g>
<!-- component_119 -->
<g id="node120" class="node">
<title>component_119</title>
<path fill="white" stroke="black" stroke-width="0.8" d="M804,-436C804,-436 752,-436 752,-436 746,-436 740,-430 740,-424 740,-424 740,-412 740,-412 740,-406 746,-400 752,-400 752,-400 804,-400 804,-400 810,-400 816,-406 816,-412 816,-412 816,-424 816,-424 816,-430 810,-436 804,-436"/>
<text text-anchor="middle" x="778" y="-415.8" font-family="Noto Sans CJK JP" font-size="9.00">パラメータ3</text>
</g>
<!-- item_116&#45;&gt;component_119 -->
<g id="edge119" class="edge">
<title>item_116&#45;&gt;component_119</title>
<path fill="none" stroke="black" stroke-width="0.9" d="M678,-449.95C678,-435.63 678,-418 678,-418 678,-418 711.65,-418 739.91,-418"/>
</g>
<!-- component_121 -->
<g id="node122" class="node">
<title>component_121</title>
<path fill="white" stroke="black" stroke-width="0.8" d="M793,-386C793,-386 763,-386 763,-386 757,-386 751,-380 751,-374 751,-374 751,-362 751,-362 751,-356 757,-350 763,-350 763,-350 793,-350 793,-350 799,-350 805,-356 805,-362 805,-362 805,-374 805,-374 805,-380 799,-386 793,-386"/>
<text text-anchor="middle" x="778" y="-365.8" font-family="Noto Sans CJK JP" font-size="9.00">角度1</text>
</g>
<!-- item_120&#45;&gt;component_121 -->
<g id="edge121" class="edge">
<title>item_120&#45;&gt;component_121</title>
<path fill="none" stroke="black" stroke-width="0.9" d="M664.56,-355.5C692.46,-355.5 727.22,-355.5 750.86,-355.5"/>
</g>
<!-- component_122 -->
<g id="node123" class="node">
<title>component_122</title>
<path fill="white" stroke="black" stroke-width="0.8" d="M793,-336C793,-336 763,-336 763,-336 757,-336 751,-330 751,-324 751,-324 751,-312 751,-312 751,-306 757,-300 763,-300 763,-300 793,-300 793,-300 799,-300 805,-306 805,-312 805,-312 805,-324 805,-324 805,-330 799,-336 793,-336"/>
<text text-anchor="middle" x="778" y="-315.8" font-family="Noto Sans CJK JP" font-size="9.00">角度2</text>
</g>
<!-- item_120&#45;&gt;component_122 -->
<g id="edge122" class="edge">
<title>item_120&#45;&gt;component_122</title>
<path fill="none" stroke="black" stroke-width="0.9" d="M664.56,-330.5C692.46,-330.5 727.22,-330.5 750.86,-330.5"/>
</g>
<!-- component_123 -->
<g id="node124" class="node">
<title>component_123</title>
<path fill="white" stroke="black" stroke-width="0.8" d="M793,-286C793,-286 763,-286 763,-286 757,-286 751,-280 751,-274 751,-274 751,-262 751,-262 751,-256 757,-250 763,-250 763,-250 793,-250 793,-250 799,-250 805,-256 805,-262 805,-262 805,-274 805,-274 805,-280 799,-286 793,-286"/>
<text text-anchor="middle" x="778" y="-265.8" font-family="Noto Sans CJK JP" font-size="9.00">角度3</text>
</g>
<!-- item_120&#45;&gt;component_123 -->
<g id="edge123" class="edge">
<title>item_120&#45;&gt;component_123</title>
<path fill="none" stroke="black" stroke-width="0.9" d="M656,-324.84C656,-302.65 656,-268 656,-268 656,-268 714.98,-268 750.92,-268"/>
</g>
<!-- component_125 -->
<g id="node126" class="node">
<title>component_125</title>
<path fill="white" stroke="black" stroke-width="0.8" d="M804,-236C804,-236 752,-236 752,-236 746,-236 740,-230 740,-224 740,-224 740,-212 740,-212 740,-206 746,-200 752,-200 752,-200 804,-200 804,-200 810,-200 816,-206 816,-212 816,-212 816,-224 816,-224 816,-230 810,-236 804,-236"/>
<text text-anchor="middle" x="778" y="-215.8" font-family="Noto Sans CJK JP" font-size="9.00">X軸について</text>
</g>
<!-- item_124&#45;&gt;component_125 -->
<g id="edge125" class="edge">
<title>item_124&#45;&gt;component_125</title>
<path fill="none" stroke="black" stroke-width="0.9" d="M646.33,-205.5C672.08,-205.5 710.9,-205.5 739.73,-205.5"/>
</g>
<!-- component_126 -->
<g id="node127" class="node">
<title>component_126</title>
<path fill="white" stroke="black" stroke-width="0.8" d="M804,-186C804,-186 752,-186 752,-186 746,-186 740,-180 740,-174 740,-174 740,-162 740,-162 740,-156 746,-150 752,-150 752,-150 804,-150 804,-150 810,-150 816,-156 816,-162 816,-162 816,-174 816,-174 816,-180 810,-186 804,-186"/>
<text text-anchor="middle" x="778" y="-165.8" font-family="Noto Sans CJK JP" font-size="9.00">Y軸について</text>
</g>
<!-- item_124&#45;&gt;component_126 -->
<g id="edge126" class="edge">
<title>item_124&#45;&gt;component_126</title>
<path fill="none" stroke="black" stroke-width="0.9" d="M646.33,-180.5C672.08,-180.5 710.9,-180.5 739.73,-180.5"/>
</g>
<!-- component_127 -->
<g id="node128" class="node">
<title>component_127</title>
<path fill="white" stroke="black" stroke-width="0.8" d="M804,-136C804,-136 752,-136 752,-136 746,-136 740,-130 740,-124 740,-124 740,-112 740,-112 740,-106 746,-100 752,-100 752,-100 804,-100 804,-100 810,-100 816,-106 816,-112 816,-112 816,-124 816,-124 816,-130 810,-136 804,-136"/>
<text text-anchor="middle" x="778" y="-115.8" font-family="Noto Sans CJK JP" font-size="9.00">Z軸について</text>
</g>
<!-- item_124&#45;&gt;component_127 -->
<g id="edge127" class="edge">
<title>item_124&#45;&gt;component_127</title>
<path fill="none" stroke="black" stroke-width="0.9" d="M619,-174.84C619,-152.65 619,-118 619,-118 619,-118 692.88,-118 739.92,-118"/>
</g>
<!-- item_129 -->
<g id="node130" class="node">
<title>item_129</title>
<path fill="white" stroke="black" d="M652.5,-86C652.5,-86 585.5,-86 585.5,-86 579.5,-86 573.5,-80 573.5,-74 573.5,-74 573.5,-62 573.5,-62 573.5,-56 579.5,-50 585.5,-50 585.5,-50 652.5,-50 652.5,-50 658.5,-50 664.5,-56 664.5,-62 664.5,-62 664.5,-74 664.5,-74 664.5,-80 658.5,-86 652.5,-86"/>
<text text-anchor="middle" x="619" y="-65.5" font-family="Noto Sans CJK JP" font-size="10.00">反射負荷質量</text>
</g>
<!-- sub_128&#45;&gt;item_129 -->
<g id="edge129" class="edge">
<title>sub_128&#45;&gt;item_129</title>
<path fill="none" stroke="black" stroke-width="0.9" d="M456.66,-68C488.69,-68 537.46,-68 573.19,-68"/>
</g>
<!-- item_131 -->
<g id="node132" class="node">
<title>item_131</title>
<path fill="white" stroke="black" d="M652.5,-36C652.5,-36 585.5,-36 585.5,-36 579.5,-36 573.5,-30 573.5,-24 573.5,-24 573.5,-12 573.5,-12 573.5,-6 579.5,0 585.5,0 585.5,0 652.5,0 652.5,0 658.5,0 664.5,-6 664.5,-12 664.5,-12 664.5,-24 664.5,-24 664.5,-30 658.5,-36 652.5,-36"/>
<text text-anchor="middle" x="619" y="-15.5" font-family="Noto Sans CJK JP" font-size="10.00">反射負荷慣性</text>
</g>
<!-- sub_128&#45;&gt;item_131 -->
<g id="edge131" class="edge">
<title>sub_128&#45;&gt;item_131</title>
<path fill="none" stroke="black" stroke-width="0.9" d="M424,-49.95C424,-35.63 424,-18 424,-18 424,-18 515.65,-18 573.28,-18"/>
</g>
<!-- component_130 -->
<g id="node131" class="node">
<title>component_130</title>
<path fill="white" stroke="black" stroke-width="0.8" d="M793,-86C793,-86 763,-86 763,-86 757,-86 751,-80 751,-74 751,-74 751,-62 751,-62 751,-56 757,-50 763,-50 763,-50 793,-50 793,-50 799,-50 805,-56 805,-62 805,-62 805,-74 805,-74 805,-80 799,-86 793,-86"/>
<text text-anchor="middle" x="778" y="-65.8" font-family="Noto Sans CJK JP" font-size="9.00">&#45;</text>
</g>
<!-- item_129&#45;&gt;component_130 -->
<g id="edge130" class="edge">
<title>item_129&#45;&gt;component_130</title>
<path fill="none" stroke="black" stroke-width="0.9" d="M664.56,-68C692.46,-68 727.22,-68 750.86,-68"/>
</g>
<!-- component_132 -->
<g id="node133" class="node">
<title>component_132</title>
<path fill="white" stroke="black" stroke-width="0.8" d="M793,-36C793,-36 763,-36 763,-36 757,-36 751,-30 751,-24 751,-24 751,-12 751,-12 751,-6 757,0 763,0 763,0 793,0 793,0 799,0 805,-6 805,-12 805,-12 805,-24 805,-24 805,-30 799,-36 793,-36"/>
<text text-anchor="middle" x="778" y="-15.8" font-family="Noto Sans CJK JP" font-size="9.00">&#45;</text>
</g>
<!-- item_131&#45;&gt;component_132 -->
<g id="edge132" class="edge">
<title>item_131&#45;&gt;component_132</title>
<path fill="none" stroke="black" stroke-width="0.9" d="M664.56,-18C692.46,-18 727.22,-18 750.86,-18"/>
</g>
</g>
</svg>
