<?xml version="1.0" encoding="utf-8" standalone="no"?>
<!DOCTYPE svg PUBLIC "-//W3C//DTD SVG 1.1//EN"
  "http://www.w3.org/Graphics/SVG/1.1/DTD/svg11.dtd">
<svg xmlns:xlink="http://www.w3.org/1999/xlink" width="768.413793pt" height="309.6pt" viewBox="0 0 768.413793 309.6" xmlns="http://www.w3.org/2000/svg" version="1.1">
 <metadata>
  <rdf:RDF xmlns:dc="http://purl.org/dc/elements/1.1/" xmlns:cc="http://creativecommons.org/ns#" xmlns:rdf="http://www.w3.org/1999/02/22-rdf-syntax-ns#">
   <cc:Work>
    <dc:type rdf:resource="http://purl.org/dc/dcmitype/StillImage"/>
    <dc:date>2026-07-14T09:28:25.520705</dc:date>
    <dc:format>image/svg+xml</dc:format>
    <dc:creator>
     <cc:Agent>
      <dc:title>Matplotlib v3.10.0, https://matplotlib.org/</dc:title>
     </cc:Agent>
    </dc:creator>
   </cc:Work>
  </rdf:RDF>
 </metadata>
 <defs>
  <style type="text/css">*{stroke-linejoin: round; stroke-linecap: butt}</style>
 </defs>
 <g id="figure_1">
  <g id="patch_1">
   <path d="M 0 309.6 
L 768.413793 309.6 
L 768.413793 0 
L 0 0 
z
" style="fill: #ffffff"/>
  </g>
  <g id="axes_1">
   <g id="patch_2">
    <path d="M 43.132645 235.920362 
L 42.166255 237.395475 
L 41.321696 238.943566 
L 40.604446 240.554597 
L 40.019155 242.218118 
L 39.56962 243.923341 
L 39.258756 245.659207 
L 39.08858 247.414458 
L 39.060194 249.177711 
L 39.173784 250.937531 
L 39.428611 252.682504 
L 39.823025 254.401313 
L 40.354466 256.082812 
L 41.019488 257.716094 
L 41.813778 259.290569 
L 42.732185 260.796024 
L 43.768753 262.222696 
L 44.916759 263.561334 
L 46.168758 264.803254 
L 47.516631 265.940403 
L 48.951635 266.965405 
L 50.464464 267.871615 
L 52.045307 268.653153 
L 53.683911 269.304952 
L 55.369651 269.822785 
L 57.091592 270.203293 
L 58.838567 270.444008 
L 60.599247 270.54337 
L 62.362213 270.500733 
L 64.116032 270.316375 
L 65.849329 269.991492 
L 67.550862 269.528189 
L 69.209598 268.929471 
L 70.814779 268.199223 
L 72.355994 267.342179 
L 73.823247 266.363898 
L 75.207024 265.270725 
L 76.49835 264.069748 
L 77.68885 262.768757 
L 78.770804 261.37619 
L 209.115631 78.893431 
L 210.082021 77.418318 
L 210.92658 75.870227 
L 211.64383 74.259196 
L 212.229121 72.595675 
L 212.678656 70.890452 
L 212.989519 69.154586 
L 213.159696 67.399335 
L 213.188082 65.636082 
L 213.074492 63.876262 
L 212.819665 62.131289 
L 212.425251 60.41248 
L 211.89381 58.730982 
L 211.228788 57.097699 
L 210.434498 55.523224 
L 209.516091 54.017769 
L 208.479523 52.591097 
L 207.331516 51.25246 
L 206.079517 50.010539 
L 204.731645 48.873391 
L 203.296641 47.848388 
L 201.783812 46.942178 
L 200.202969 46.16064 
L 198.564364 45.508841 
L 196.878625 44.991008 
L 195.156684 44.6105 
L 193.409709 44.369785 
L 191.649029 44.270423 
L 189.886063 44.31306 
L 188.132244 44.497418 
L 186.398947 44.822302 
L 184.697413 45.285604 
L 183.038677 45.884322 
L 181.433497 46.61457 
L 179.892282 47.471614 
L 178.425028 48.449895 
L 177.041252 49.543069 
L 175.749926 50.744045 
L 174.559426 52.045036 
L 173.477472 53.437603 
z
" clip-path="url(#p47ddf8c56f)" style="fill: #616161; stroke: #000000; stroke-width: 1.5; stroke-linejoin: miter"/>
   </g>
   <g id="patch_3">
    <path d="M 198.595531 45.519833 
L 196.910575 44.999457 
L 195.189211 44.61635 
L 193.4426 44.372999 
L 191.682072 44.27098 
L 189.919044 44.310956 
L 188.164949 44.492667 
L 186.431164 44.814934 
L 184.728933 45.275669 
L 183.069295 45.871882 
L 181.463014 46.599707 
L 179.920508 47.454424 
L 178.451779 48.43049 
L 177.066354 49.521574 
L 175.773217 50.7206 
L 174.580755 52.019792 
L 173.496701 53.410725 
L 172.528087 54.884378 
L 171.681192 56.431193 
L 170.961511 58.04114 
L 170.373711 59.703775 
L 169.921603 61.408318 
L 169.60812 63.143713 
L 169.435294 64.898705 
L 169.404248 66.661914 
L 169.515181 68.421903 
L 169.767375 70.167258 
L 170.159194 71.88666 
L 170.688096 73.568959 
L 171.350653 75.203244 
L 172.142566 76.778915 
L 173.0587 78.285755 
L 174.093114 79.71399 
L 175.239099 81.054358 
L 176.489222 82.298166 
L 177.835376 83.437348 
L 179.268832 84.464515 
L 180.780292 85.373007 
L 182.359953 86.15693 
L 183.997572 86.811202 
L 700.16309 269.29396 
L 701.848045 269.814336 
L 703.56941 270.197443 
L 705.31602 270.440794 
L 707.076549 270.542813 
L 708.839577 270.502837 
L 710.593672 270.321126 
L 712.327457 269.998859 
L 714.029688 269.538124 
L 715.689326 268.941911 
L 717.295606 268.214086 
L 718.838113 267.359369 
L 720.306841 266.383304 
L 721.692266 265.29222 
L 722.985403 264.093193 
L 724.177865 262.794001 
L 725.261919 261.403068 
L 726.230534 259.929415 
L 727.077428 258.3826 
L 727.797109 256.772654 
L 728.38491 255.110018 
L 728.837018 253.405475 
L 729.150501 251.67008 
L 729.323326 249.915088 
L 729.354373 248.15188 
L 729.24344 246.391891 
L 728.991246 244.646535 
L 728.599427 242.927133 
L 728.070524 241.244834 
L 727.407968 239.610549 
L 726.616055 238.034878 
L 725.69992 236.528038 
L 724.665507 235.099803 
L 723.519522 233.759435 
L 722.269399 232.515627 
L 720.923244 231.376445 
L 719.489789 230.349278 
L 717.978329 229.440786 
L 716.398667 228.656863 
L 714.761048 228.002591 
z
" clip-path="url(#p47ddf8c56f)" style="fill: #616161; stroke: #000000; stroke-width: 1.5; stroke-linejoin: miter"/>
   </g>
   <g id="patch_4">
    <path d="M 60.951724 267.417931 
C 65.929495 267.417931 70.704059 265.440242 74.223875 261.920426 
C 77.74369 258.400611 79.721379 253.626047 79.721379 248.648276 
C 79.721379 243.670505 77.74369 238.895941 74.223875 235.376125 
C 70.704059 231.85631 65.929495 229.878621 60.951724 229.878621 
C 55.973953 229.878621 51.199389 231.85631 47.679574 235.376125 
C 44.159758 238.895941 42.182069 243.670505 42.182069 248.648276 
C 42.182069 253.626047 44.159758 258.400611 47.679574 261.920426 
C 51.199389 265.440242 55.973953 267.417931 60.951724 267.417931 
z
" clip-path="url(#p47ddf8c56f)" style="fill: #616161; stroke: #000000; stroke-width: 1.4; stroke-linejoin: miter"/>
   </g>
   <g id="patch_5">
    <path d="M 191.296552 84.935172 
C 196.274322 84.935172 201.048887 82.957483 204.568702 79.437668 
C 208.088518 75.917852 210.066207 71.143288 210.066207 66.165517 
C 210.066207 61.187747 208.088518 56.413182 204.568702 52.893367 
C 201.048887 49.373551 196.274322 47.395862 191.296552 47.395862 
C 186.318781 47.395862 181.544217 49.373551 178.024401 52.893367 
C 174.504586 56.413182 172.526897 61.187747 172.526897 66.165517 
C 172.526897 71.143288 174.504586 75.917852 178.024401 79.437668 
C 181.544217 82.957483 186.318781 84.935172 191.296552 84.935172 
z
" clip-path="url(#p47ddf8c56f)" style="fill: #616161; stroke: #000000; stroke-width: 1.4; stroke-linejoin: miter"/>
   </g>
   <g id="patch_6">
    <path d="M 707.462069 267.417931 
C 712.43984 267.417931 717.214404 265.440242 720.734219 261.920426 
C 724.254035 258.400611 726.231724 253.626047 726.231724 248.648276 
C 726.231724 243.670505 724.254035 238.895941 720.734219 235.376125 
C 717.214404 231.85631 712.43984 229.878621 707.462069 229.878621 
C 702.484298 229.878621 697.709734 231.85631 694.189919 235.376125 
C 690.670103 238.895941 688.692414 243.670505 688.692414 248.648276 
C 688.692414 253.626047 690.670103 258.400611 694.189919 261.920426 
C 697.709734 265.440242 702.484298 267.417931 707.462069 267.417931 
z
" clip-path="url(#p47ddf8c56f)" style="fill: #616161; stroke: #000000; stroke-width: 1.4; stroke-linejoin: miter"/>
   </g>
   <g id="patch_7">
    <path d="M 60.951724 258.554483 
C 63.578881 258.554483 66.09879 257.510702 67.95647 255.653022 
C 69.814151 253.795342 70.857931 251.275433 70.857931 248.648276 
C 70.857931 246.021119 69.814151 243.50121 67.95647 241.64353 
C 66.09879 239.785849 63.578881 238.742069 60.951724 238.742069 
C 58.324567 238.742069 55.804658 239.785849 53.946978 241.64353 
C 52.089298 243.50121 51.045517 246.021119 51.045517 248.648276 
C 51.045517 251.275433 52.089298 253.795342 53.946978 255.653022 
C 55.804658 257.510702 58.324567 258.554483 60.951724 258.554483 
z
" clip-path="url(#p47ddf8c56f)" style="fill: #8c8c8c; stroke: #000000; stroke-width: 1.3; stroke-linejoin: miter"/>
   </g>
   <g id="patch_8">
    <path d="M 191.296552 76.071724 
C 193.923709 76.071724 196.443617 75.027944 198.301298 73.170263 
C 200.158978 71.312583 201.202759 68.792674 201.202759 66.165517 
C 201.202759 63.53836 200.158978 61.018452 198.301298 59.160771 
C 196.443617 57.303091 193.923709 56.25931 191.296552 56.25931 
C 188.669395 56.25931 186.149486 57.303091 184.291806 59.160771 
C 182.434125 61.018452 181.390345 63.53836 181.390345 66.165517 
C 181.390345 68.792674 182.434125 71.312583 184.291806 73.170263 
C 186.149486 75.027944 188.669395 76.071724 191.296552 76.071724 
z
" clip-path="url(#p47ddf8c56f)" style="fill: #8c8c8c; stroke: #000000; stroke-width: 1.3; stroke-linejoin: miter"/>
   </g>
   <g id="patch_9">
    <path d="M 707.462069 258.554483 
C 710.089226 258.554483 712.609135 257.510702 714.466815 255.653022 
C 716.324495 253.795342 717.368276 251.275433 717.368276 248.648276 
C 717.368276 246.021119 716.324495 243.50121 714.466815 241.64353 
C 712.609135 239.785849 710.089226 238.742069 707.462069 238.742069 
C 704.834912 238.742069 702.315003 239.785849 700.457323 241.64353 
C 698.599643 243.50121 697.555862 246.021119 697.555862 248.648276 
C 697.555862 251.275433 698.599643 253.795342 700.457323 255.653022 
C 702.315003 257.510702 704.834912 258.554483 707.462069 258.554483 
z
" clip-path="url(#p47ddf8c56f)" style="fill: #8c8c8c; stroke: #000000; stroke-width: 1.3; stroke-linejoin: miter"/>
   </g>
  </g>
 </g>
 <defs>
  <clipPath id="p47ddf8c56f">
   <rect x="3.6" y="3.6" width="761.213793" height="302.4"/>
  </clipPath>
 </defs>
</svg>
